<svg width="352" height="229" viewBox="0 0 352 229" fill="none" xmlns="http://www.w3.org/2000/svg">
<g clip-path="url(#clip0_482_80284)">
<path d="M10 20V14H14V20H19V12H22L12 3L2 12H5V20H10Z" fill="#3A3A3C"/>
<path d="M45 6H61V16H45M61 18C61.5304 18 62.0391 17.7893 62.4142 17.4142C62.7893 17.0391 63 16.5304 63 16V6C63 5.46957 62.7893 4.96086 62.4142 4.58579C62.0391 4.21071 61.5304 4 61 4H45C43.89 4 43 4.89 43 6V16C43 16.5304 43.2107 17.0391 43.5858 17.4142C43.9609 17.7893 44.4696 18 45 18H41V20H65V18H61Z" fill="#3A3A3C"/>
<path d="M104 3L92 4.41V6H104V7H92V12H104C104 13.81 103.43 15.46 102.32 16.95C101.21 18.44 99.77 19.53 98 20.25V22H90V20.25C88.24 19.53 86.79 18.43 85.68 16.95C84.57 15.47 84 13.81 84 12H87V4L104 2V3ZM88 4.88V6H89V4.78L88 4.88ZM88 7V12H89V7H88ZM91 12V7H90V12H91ZM91 6V4.55L90 4.64V6H91Z" fill="#3A3A3C"/>
<path d="M140 19H130V5H140M140 1H130C128.89 1 128 1.89 128 3V21C128 21.5304 128.211 22.0391 128.586 22.4142C128.961 22.7893 129.47 23 130 23H140C140.53 23 141.039 22.7893 141.414 22.4142C141.789 22.0391 142 21.5304 142 21V3C142 2.46957 141.789 1.96086 141.414 1.58579C141.039 1.21071 140.53 1 140 1Z" fill="#3A3A3C"/>
<path d="M184.57 14.86L186 13.43L184.57 12L181 15.57L172.43 7L176 3.43L174.57 2L173.14 3.43L171.71 2L169.57 4.14L168.14 2.71L166.71 4.14L168.14 5.57L166 7.71L167.43 9.14L166 10.57L167.43 12L171 8.43L179.57 17L176 20.57L177.43 22L178.86 20.57L180.29 22L182.43 19.86L183.86 21.29L185.29 19.86L183.86 18.43L186 16.29L184.57 14.86Z" fill="#3A3A3C"/>
<path d="M213 0L212.17 5H212C211.47 5 210.961 5.21071 210.586 5.58579C210.211 5.96086 210 6.46957 210 7V17C210 17.5304 210.211 18.0391 210.586 18.4142C210.961 18.7893 211.47 19 212 19H212.17L213 24H221L221.83 19H222C222.53 19 223.039 18.7893 223.414 18.4142C223.789 18.0391 224 17.5304 224 17V7C224 6.46957 223.789 5.96086 223.414 5.58579C223.039 5.21071 222.53 5 222 5H221.83L221 0H213ZM212 7H222V17H212V7Z" fill="#3A3A3C"/>
<path d="M258 18H252V14H258M267 14V12L266 7H250L249 12V14H250V20H260V14H264V20H266V14M266 4H250V6H266V4Z" fill="#3A3A3C"/>
<path d="M295.75 15.75C293.75 15.75 293 18 291 19C289 19 287.5 16 291.5 7.49998H291.75L292.19 6.66998C292.19 6.66998 295 4.99998 296.33 6.22998H301.67C303 4.99998 305.81 6.66998 305.81 6.66998L306.25 7.49998H306.5C310.5 16 309 19 307 19C305 18 304.25 15.75 302.25 15.75H295.75ZM299 6.99998C298.735 6.99998 298.481 7.10534 298.293 7.29287C298.106 7.48041 298 7.73476 298 7.99998C298 8.2652 298.106 8.51955 298.293 8.70709C298.481 8.89462 298.735 8.99998 299 8.99998C299.265 8.99998 299.52 8.89462 299.707 8.70709C299.895 8.51955 300 8.2652 300 7.99998C300 7.73476 299.895 7.48041 299.707 7.29287C299.52 7.10534 299.265 6.99998 299 6.99998Z" fill="#3A3A3C"/>
<path d="M333 11L334.5 6.5H345.5L347 11M345.5 16C345.102 16 344.721 15.842 344.439 15.5607C344.158 15.2794 344 14.8978 344 14.5C344 14.1022 344.158 13.7206 344.439 13.4393C344.721 13.158 345.102 13 345.5 13C345.898 13 346.279 13.158 346.561 13.4393C346.842 13.7206 347 14.1022 347 14.5C347 14.8978 346.842 15.2794 346.561 15.5607C346.279 15.842 345.898 16 345.5 16ZM334.5 16C334.102 16 333.721 15.842 333.439 15.5607C333.158 15.2794 333 14.8978 333 14.5C333 14.1022 333.158 13.7206 333.439 13.4393C333.721 13.158 334.102 13 334.5 13C334.898 13 335.279 13.158 335.561 13.4393C335.842 13.7206 336 14.1022 336 14.5C336 14.8978 335.842 15.2794 335.561 15.5607C335.279 15.842 334.898 16 334.5 16ZM346.92 6C346.72 5.42 346.16 5 345.5 5H334.5C333.84 5 333.28 5.42 333.08 6L331 12V20C331 20.2652 331.105 20.5196 331.293 20.7071C331.48 20.8946 331.735 21 332 21H333C333.265 21 333.52 20.8946 333.707 20.7071C333.895 20.5196 334 20.2652 334 20V19H346V20C346 20.2652 346.105 20.5196 346.293 20.7071C346.48 20.8946 346.735 21 347 21H348C348.265 21 348.52 20.8946 348.707 20.7071C348.895 20.5196 349 20.2652 349 20V12L346.92 6Z" fill="#3A3A3C"/>
<path d="M4 47H20V57H4M20 59C20.5304 59 21.0391 58.7893 21.4142 58.4142C21.7893 58.0391 22 57.5304 22 57V47C22 46.4696 21.7893 45.9609 21.4142 45.5858C21.0391 45.2107 20.5304 45 20 45H4C2.89 45 2 45.89 2 47V57C2 57.5304 2.21071 58.0391 2.58579 58.4142C2.96086 58.7893 3.46957 59 4 59H0V61H24V59H20Z" fill="#3A3A3C"/>
<path d="M63 44L51 45.41V47H63V48H51V53H63C63 54.81 62.43 56.46 61.32 57.95C60.21 59.44 58.77 60.53 57 61.25V63H49V61.25C47.24 60.53 45.79 59.43 44.68 57.95C43.57 56.47 43 54.81 43 53H46V45L63 43V44ZM47 45.88V47H48V45.78L47 45.88ZM47 48V53H48V48H47ZM50 53V48H49V53H50ZM50 47V45.55L49 45.64V47H50Z" fill="#3A3A3C"/>
<path d="M99 60H89V46H99M99 42H89C87.89 42 87 42.89 87 44V62C87 62.5304 87.2107 63.0391 87.5858 63.4142C87.9609 63.7893 88.4696 64 89 64H99C99.5304 64 100.039 63.7893 100.414 63.4142C100.789 63.0391 101 62.5304 101 62V44C101 43.4696 100.789 42.9609 100.414 42.5858C100.039 42.2107 99.5304 42 99 42Z" fill="#3A3A3C"/>
<path d="M143.57 55.86L145 54.43L143.57 53L140 56.57L131.43 48L135 44.43L133.57 43L132.14 44.43L130.71 43L128.57 45.14L127.14 43.71L125.71 45.14L127.14 46.57L125 48.71L126.43 50.14L125 51.57L126.43 53L130 49.43L138.57 58L135 61.57L136.43 63L137.86 61.57L139.29 63L141.43 60.86L142.86 62.29L144.29 60.86L142.86 59.43L145 57.29L143.57 55.86Z" fill="#3A3A3C"/>
<path d="M172 41L171.17 46H171C170.47 46 169.961 46.2107 169.586 46.5858C169.211 46.9609 169 47.4696 169 48V58C169 58.5304 169.211 59.0391 169.586 59.4142C169.961 59.7893 170.47 60 171 60H171.17L172 65H180L180.83 60H181C181.53 60 182.039 59.7893 182.414 59.4142C182.789 59.0391 183 58.5304 183 58V48C183 47.4696 182.789 46.9609 182.414 46.5858C182.039 46.2107 181.53 46 181 46H180.83L180 41H172ZM171 48H181V58H171V48Z" fill="#3A3A3C"/>
<path d="M217 59H211V55H217M226 55V53L225 48H209L208 53V55H209V61H219V55H223V61H225V55M225 45H209V47H225V45Z" fill="#3A3A3C"/>
<path d="M254.75 56.75C252.75 56.75 252 59 250 60C248 60 246.5 57 250.5 48.5H250.75L251.19 47.67C251.19 47.67 254 46 255.33 47.23H260.67C262 46 264.81 47.67 264.81 47.67L265.25 48.5H265.5C269.5 57 268 60 266 60C264 59 263.25 56.75 261.25 56.75H254.75ZM258 48C257.735 48 257.481 48.1053 257.293 48.2929C257.106 48.4804 257 48.7348 257 49C257 49.2652 257.106 49.5195 257.293 49.7071C257.481 49.8946 257.735 50 258 50C258.265 50 258.52 49.8946 258.707 49.7071C258.895 49.5195 259 49.2652 259 49C259 48.7348 258.895 48.4804 258.707 48.2929C258.52 48.1053 258.265 48 258 48Z" fill="#3A3A3C"/>
<path d="M292 52L293.5 47.5H304.5L306 52M304.5 57C304.102 57 303.721 56.842 303.439 56.5607C303.158 56.2794 303 55.8978 303 55.5C303 55.1022 303.158 54.7206 303.439 54.4393C303.721 54.158 304.102 54 304.5 54C304.898 54 305.279 54.158 305.561 54.4393C305.842 54.7206 306 55.1022 306 55.5C306 55.8978 305.842 56.2794 305.561 56.5607C305.279 56.842 304.898 57 304.5 57ZM293.5 57C293.102 57 292.721 56.842 292.439 56.5607C292.158 56.2794 292 55.8978 292 55.5C292 55.1022 292.158 54.7206 292.439 54.4393C292.721 54.158 293.102 54 293.5 54C293.898 54 294.279 54.158 294.561 54.4393C294.842 54.7206 295 55.1022 295 55.5C295 55.8978 294.842 56.2794 294.561 56.5607C294.279 56.842 293.898 57 293.5 57ZM305.92 47C305.72 46.42 305.16 46 304.5 46H293.5C292.84 46 292.28 46.42 292.08 47L290 53V61C290 61.2652 290.105 61.5196 290.293 61.7071C290.48 61.8946 290.735 62 291 62H292C292.265 62 292.52 61.8946 292.707 61.7071C292.895 61.5196 293 61.2652 293 61V60H305V61C305 61.2652 305.105 61.5196 305.293 61.7071C305.48 61.8946 305.735 62 306 62H307C307.265 62 307.52 61.8946 307.707 61.7071C307.895 61.5196 308 61.2652 308 61V53L305.92 47Z" fill="#EBEBF5" fill-opacity="0.6"/>
<path d="M338 61V55H342V61H347V53H350L340 44L330 53H333V61H338Z" fill="#3A3A3C"/>
<path d="M22 85L10 86.41V88H22V89H10V94H22C22 95.81 21.43 97.46 20.32 98.95C19.21 100.44 17.77 101.53 16 102.25V104H8V102.25C6.24 101.53 4.79 100.43 3.68 98.95C2.57 97.47 2 95.81 2 94H5V86L22 84V85ZM6 86.88V88H7V86.78L6 86.88ZM6 89V94H7V89H6ZM9 94V89H8V94H9ZM9 88V86.55L8 86.64V88H9Z" fill="#EBEBF5" fill-opacity="0.6"/>
<path d="M58 101H48V87H58M58 83H48C46.89 83 46 83.89 46 85V103C46 103.53 46.2107 104.039 46.5858 104.414C46.9609 104.789 47.4696 105 48 105H58C58.5304 105 59.0391 104.789 59.4142 104.414C59.7893 104.039 60 103.53 60 103V85C60 84.4696 59.7893 83.9609 59.4142 83.5858C59.0391 83.2107 58.5304 83 58 83Z" fill="#3A3A3C"/>
<path d="M102.57 96.86L104 95.43L102.57 94L99 97.57L90.43 89L94 85.43L92.57 84L91.14 85.43L89.71 84L87.57 86.14L86.14 84.71L84.71 86.14L86.14 87.57L84 89.71L85.43 91.14L84 92.57L85.43 94L89 90.43L97.57 99L94 102.57L95.43 104L96.86 102.57L98.29 104L100.43 101.86L101.86 103.29L103.29 101.86L101.86 100.43L104 98.29L102.57 96.86Z" fill="#3A3A3C"/>
<path d="M131 82L130.17 87H130C129.47 87 128.961 87.2107 128.586 87.5858C128.211 87.9609 128 88.4696 128 89V99C128 99.5304 128.211 100.039 128.586 100.414C128.961 100.789 129.47 101 130 101H130.17L131 106H139L139.83 101H140C140.53 101 141.039 100.789 141.414 100.414C141.789 100.039 142 99.5304 142 99V89C142 88.4696 141.789 87.9609 141.414 87.5858C141.039 87.2107 140.53 87 140 87H139.83L139 82H131ZM130 89H140V99H130V89Z" fill="#3A3A3C"/>
<path d="M176 100H170V96H176M185 96V94L184 89H168L167 94V96H168V102H178V96H182V102H184V96M184 86H168V88H184V86Z" fill="#3A3A3C"/>
<path d="M213.75 97.75C211.75 97.75 211 100 209 101C207 101 205.5 98 209.5 89.5H209.75L210.19 88.67C210.19 88.67 213 87 214.33 88.23H219.67C221 87 223.81 88.67 223.81 88.67L224.25 89.5H224.5C228.5 98 227 101 225 101C223 100 222.25 97.75 220.25 97.75H213.75ZM217 89C216.735 89 216.481 89.1053 216.293 89.2929C216.106 89.4804 216 89.7348 216 90C216 90.2652 216.106 90.5195 216.293 90.7071C216.481 90.8946 216.735 91 217 91C217.265 91 217.52 90.8946 217.707 90.7071C217.895 90.5195 218 90.2652 218 90C218 89.7348 217.895 89.4804 217.707 89.2929C217.52 89.1053 217.265 89 217 89Z" fill="#3A3A3C"/>
<path d="M251 93L252.5 88.5H263.5L265 93M263.5 98C263.102 98 262.721 97.842 262.439 97.5607C262.158 97.2794 262 96.8978 262 96.5C262 96.1022 262.158 95.7206 262.439 95.4393C262.721 95.158 263.102 95 263.5 95C263.898 95 264.279 95.158 264.561 95.4393C264.842 95.7206 265 96.1022 265 96.5C265 96.8978 264.842 97.2794 264.561 97.5607C264.279 97.842 263.898 98 263.5 98ZM252.5 98C252.102 98 251.721 97.842 251.439 97.5607C251.158 97.2794 251 96.8978 251 96.5C251 96.1022 251.158 95.7206 251.439 95.4393C251.721 95.158 252.102 95 252.5 95C252.898 95 253.279 95.158 253.561 95.4393C253.842 95.7206 254 96.1022 254 96.5C254 96.8978 253.842 97.2794 253.561 97.5607C253.279 97.842 252.898 98 252.5 98ZM264.92 88C264.72 87.42 264.16 87 263.5 87H252.5C251.84 87 251.28 87.42 251.08 88L249 94V102C249 102.265 249.105 102.52 249.293 102.707C249.48 102.895 249.735 103 250 103H251C251.265 103 251.52 102.895 251.707 102.707C251.895 102.52 252 102.265 252 102V101H264V102C264 102.265 264.105 102.52 264.293 102.707C264.48 102.895 264.735 103 265 103H266C266.265 103 266.52 102.895 266.707 102.707C266.895 102.52 267 102.265 267 102V94L264.92 88Z" fill="#3A3A3C"/>
<path d="M297 102V96H301V102H306V94H309L299 85L289 94H292V102H297Z" fill="#EBEBF5" fill-opacity="0.6"/>
<path d="M332 88H348V98H332M348 100C348.53 100 349.039 99.7893 349.414 99.4142C349.789 99.0391 350 98.5304 350 98V88C350 87.4696 349.789 86.9609 349.414 86.5858C349.039 86.2107 348.53 86 348 86H332C330.89 86 330 86.89 330 88V98C330 98.5304 330.211 99.0391 330.586 99.4142C330.961 99.7893 331.47 100 332 100H328V102H352V100H348Z" fill="#3A3A3C"/>
<path d="M17 142H7V128H17M17 124H7C5.89 124 5 124.89 5 126V144C5 144.53 5.21071 145.039 5.58579 145.414C5.96086 145.789 6.46957 146 7 146H17C17.5304 146 18.0391 145.789 18.4142 145.414C18.7893 145.039 19 144.53 19 144V126C19 125.47 18.7893 124.961 18.4142 124.586C18.0391 124.211 17.5304 124 17 124Z" fill="#EBEBF5" fill-opacity="0.6"/>
<path d="M61.57 137.86L63 136.43L61.57 135L58 138.57L49.43 130L53 126.43L51.57 125L50.14 126.43L48.71 125L46.57 127.14L45.14 125.71L43.71 127.14L45.14 128.57L43 130.71L44.43 132.14L43 133.57L44.43 135L48 131.43L56.57 140L53 143.57L54.43 145L55.86 143.57L57.29 145L59.43 142.86L60.86 144.29L62.29 142.86L60.86 141.43L63 139.29L61.57 137.86Z" fill="#3A3A3C"/>
<path d="M90 123L89.17 128H89C88.4696 128 87.9609 128.211 87.5858 128.586C87.2107 128.961 87 129.47 87 130V140C87 140.53 87.2107 141.039 87.5858 141.414C87.9609 141.789 88.4696 142 89 142H89.17L90 147H98L98.83 142H99C99.5304 142 100.039 141.789 100.414 141.414C100.789 141.039 101 140.53 101 140V130C101 129.47 100.789 128.961 100.414 128.586C100.039 128.211 99.5304 128 99 128H98.83L98 123H90ZM89 130H99V140H89V130Z" fill="#EBEBF5" fill-opacity="0.6"/>
<path d="M135 141H129V137H135M144 137V135L143 130H127L126 135V137H127V143H137V137H141V143H143V137M143 127H127V129H143V127Z" fill="#3A3A3C"/>
<path d="M172.75 138.75C170.75 138.75 170 141 168 142C166 142 164.5 139 168.5 130.5H168.75L169.19 129.67C169.19 129.67 172 128 173.33 129.23H178.67C180 128 182.81 129.67 182.81 129.67L183.25 130.5H183.5C187.5 139 186 142 184 142C182 141 181.25 138.75 179.25 138.75H172.75ZM176 130C175.735 130 175.481 130.105 175.293 130.293C175.106 130.48 175 130.735 175 131C175 131.265 175.106 131.52 175.293 131.707C175.481 131.895 175.735 132 176 132C176.265 132 176.52 131.895 176.707 131.707C176.895 131.52 177 131.265 177 131C177 130.735 176.895 130.48 176.707 130.293C176.52 130.105 176.265 130 176 130Z" fill="#3A3A3C"/>
<path d="M210 134L211.5 129.5H222.5L224 134M222.5 139C222.102 139 221.721 138.842 221.439 138.561C221.158 138.279 221 137.898 221 137.5C221 137.102 221.158 136.721 221.439 136.439C221.721 136.158 222.102 136 222.5 136C222.898 136 223.279 136.158 223.561 136.439C223.842 136.721 224 137.102 224 137.5C224 137.898 223.842 138.279 223.561 138.561C223.279 138.842 222.898 139 222.5 139ZM211.5 139C211.102 139 210.721 138.842 210.439 138.561C210.158 138.279 210 137.898 210 137.5C210 137.102 210.158 136.721 210.439 136.439C210.721 136.158 211.102 136 211.5 136C211.898 136 212.279 136.158 212.561 136.439C212.842 136.721 213 137.102 213 137.5C213 137.898 212.842 138.279 212.561 138.561C212.279 138.842 211.898 139 211.5 139ZM223.92 129C223.72 128.42 223.16 128 222.5 128H211.5C210.84 128 210.28 128.42 210.08 129L208 135V143C208 143.265 208.105 143.52 208.293 143.707C208.48 143.895 208.735 144 209 144H210C210.265 144 210.52 143.895 210.707 143.707C210.895 143.52 211 143.265 211 143V142H223V143C223 143.265 223.105 143.52 223.293 143.707C223.48 143.895 223.735 144 224 144H225C225.265 144 225.52 143.895 225.707 143.707C225.895 143.52 226 143.265 226 143V135L223.92 129Z" fill="#3A3A3C"/>
<path d="M256 143V137H260V143H265V135H268L258 126L248 135H251V143H256Z" fill="#3A3A3C"/>
<path d="M291 129H307V139H291M307 141C307.53 141 308.039 140.789 308.414 140.414C308.789 140.039 309 139.53 309 139V129C309 128.47 308.789 127.961 308.414 127.586C308.039 127.211 307.53 127 307 127H291C289.89 127 289 127.89 289 129V139C289 139.53 289.211 140.039 289.586 140.414C289.961 140.789 290.47 141 291 141H287V143H311V141H307Z" fill="#EBEBF5" fill-opacity="0.6"/>
<path d="M350 126L338 127.41V129H350V130H338V135H350C350 136.81 349.43 138.46 348.32 139.95C347.21 141.44 345.77 142.53 344 143.25V145H336V143.25C334.24 142.53 332.79 141.43 331.68 139.95C330.57 138.47 330 136.81 330 135H333V127L350 125V126ZM334 127.88V129H335V127.78L334 127.88ZM334 130V135H335V130H334ZM337 135V130H336V135H337ZM337 129V127.55L336 127.64V129H337Z" fill="#EBEBF5" fill-opacity="0.6"/>
<path d="M20.57 178.86L22 177.43L20.57 176L17 179.57L8.43 171L12 167.43L10.57 166L9.14 167.43L7.71 166L5.57 168.14L4.14 166.71L2.71 168.14L4.14 169.57L2 171.71L3.43 173.14L2 174.57L3.43 176L7 172.43L15.57 181L12 184.57L13.43 186L14.86 184.57L16.29 186L18.43 183.86L19.86 185.29L21.29 183.86L19.86 182.43L22 180.29L20.57 178.86Z" fill="#EBEBF5" fill-opacity="0.6"/>
<path d="M49 164L48.17 169H48C47.4696 169 46.9609 169.211 46.5858 169.586C46.2107 169.961 46 170.47 46 171V181C46 181.53 46.2107 182.039 46.5858 182.414C46.9609 182.789 47.4696 183 48 183H48.17L49 188H57L57.83 183H58C58.5304 183 59.0391 182.789 59.4142 182.414C59.7893 182.039 60 181.53 60 181V171C60 170.47 59.7893 169.961 59.4142 169.586C59.0391 169.211 58.5304 169 58 169H57.83L57 164H49ZM48 171H58V181H48V171Z" fill="#EBEBF5" fill-opacity="0.6"/>
<path d="M94 182H88V178H94M103 178V176L102 171H86L85 176V178H86V184H96V178H100V184H102V178M102 168H86V170H102V168Z" fill="#EBEBF5" fill-opacity="0.6"/>
<path d="M131.75 179.75C129.75 179.75 129 182 127 183C125 183 123.5 180 127.5 171.5H127.75L128.19 170.67C128.19 170.67 131 169 132.33 170.23H137.67C139 169 141.81 170.67 141.81 170.67L142.25 171.5H142.5C146.5 180 145 183 143 183C141 182 140.25 179.75 138.25 179.75H131.75ZM135 171C134.735 171 134.481 171.105 134.293 171.293C134.106 171.48 134 171.735 134 172C134 172.265 134.106 172.52 134.293 172.707C134.481 172.895 134.735 173 135 173C135.265 173 135.52 172.895 135.707 172.707C135.895 172.52 136 172.265 136 172C136 171.735 135.895 171.48 135.707 171.293C135.52 171.105 135.265 171 135 171Z" fill="#EBEBF5" fill-opacity="0.6"/>
<path d="M169 175L170.5 170.5H181.5L183 175M181.5 180C181.102 180 180.721 179.842 180.439 179.561C180.158 179.279 180 178.898 180 178.5C180 178.102 180.158 177.721 180.439 177.439C180.721 177.158 181.102 177 181.5 177C181.898 177 182.279 177.158 182.561 177.439C182.842 177.721 183 178.102 183 178.5C183 178.898 182.842 179.279 182.561 179.561C182.279 179.842 181.898 180 181.5 180ZM170.5 180C170.102 180 169.721 179.842 169.439 179.561C169.158 179.279 169 178.898 169 178.5C169 178.102 169.158 177.721 169.439 177.439C169.721 177.158 170.102 177 170.5 177C170.898 177 171.279 177.158 171.561 177.439C171.842 177.721 172 178.102 172 178.5C172 178.898 171.842 179.279 171.561 179.561C171.279 179.842 170.898 180 170.5 180ZM182.92 170C182.72 169.42 182.16 169 181.5 169H170.5C169.84 169 169.28 169.42 169.08 170L167 176V184C167 184.265 167.105 184.52 167.293 184.707C167.48 184.895 167.735 185 168 185H169C169.265 185 169.52 184.895 169.707 184.707C169.895 184.52 170 184.265 170 184V183H182V184C182 184.265 182.105 184.52 182.293 184.707C182.48 184.895 182.735 185 183 185H184C184.265 185 184.52 184.895 184.707 184.707C184.895 184.52 185 184.265 185 184V176L182.92 170Z" fill="#3A3A3C"/>
<path d="M215 184V178H219V184H224V176H227L217 167L207 176H210V184H215Z" fill="#EBEBF5" fill-opacity="0.6"/>
<path d="M250 170H266V180H250M266 182C266.53 182 267.039 181.789 267.414 181.414C267.789 181.039 268 180.53 268 180V170C268 169.47 267.789 168.961 267.414 168.586C267.039 168.211 266.53 168 266 168H250C248.89 168 248 168.89 248 170V180C248 180.53 248.211 181.039 248.586 181.414C248.961 181.789 249.47 182 250 182H246V184H270V182H266Z" fill="#EBEBF5" fill-opacity="0.6"/>
<path d="M309 167L297 168.41V170H309V171H297V176H309C309 177.81 308.43 179.46 307.32 180.95C306.21 182.44 304.77 183.53 303 184.25V186H295V184.25C293.24 183.53 291.79 182.43 290.68 180.95C289.57 179.47 289 177.81 289 176H292V168L309 166V167ZM293 168.88V170H294V168.78L293 168.88ZM293 171V176H294V171H293ZM296 176V171H295V176H296ZM296 170V168.55L295 168.64V170H296Z" fill="#EBEBF5" fill-opacity="0.6"/>
<path d="M345 183H335V169H345M345 165H335C333.89 165 333 165.89 333 167V185C333 185.53 333.211 186.039 333.586 186.414C333.961 186.789 334.47 187 335 187H345C345.53 187 346.039 186.789 346.414 186.414C346.789 186.039 347 185.53 347 185V167C347 166.47 346.789 165.961 346.414 165.586C346.039 165.211 345.53 165 345 165Z" fill="#EBEBF5" fill-opacity="0.6"/>
<path d="M8 205L7.17 210H7C6.46957 210 5.96086 210.211 5.58579 210.586C5.21071 210.961 5 211.47 5 212V222C5 222.53 5.21071 223.039 5.58579 223.414C5.96086 223.789 6.46957 224 7 224H7.17L8 229H16L16.83 224H17C17.5304 224 18.0391 223.789 18.4142 223.414C18.7893 223.039 19 222.53 19 222V212C19 211.47 18.7893 210.961 18.4142 210.586C18.0391 210.211 17.5304 210 17 210H16.83L16 205H8ZM7 212H17V222H7V212Z" fill="#EBEBF5" fill-opacity="0.6"/>
<path d="M53 223H47V219H53M62 219V217L61 212H45L44 217V219H45V225H55V219H59V225H61V219M61 209H45V211H61V209Z" fill="#EBEBF5" fill-opacity="0.6"/>
<path d="M90.7501 220.75C88.7501 220.75 88.0001 223 86.0001 224C84.0001 224 82.5001 221 86.5001 212.5H86.7501L87.1901 211.67C87.1901 211.67 90.0001 210 91.3301 211.23H96.6701C98.0001 210 100.81 211.67 100.81 211.67L101.25 212.5H101.5C105.5 221 104 224 102 224C100 223 99.2501 220.75 97.2501 220.75H90.7501ZM94.0001 212C93.7349 212 93.4806 212.105 93.293 212.293C93.1055 212.48 93.0001 212.735 93.0001 213C93.0001 213.265 93.1055 213.52 93.293 213.707C93.4806 213.895 93.7349 214 94.0001 214C94.2654 214 94.5197 213.895 94.7073 213.707C94.8948 213.52 95.0001 213.265 95.0001 213C95.0001 212.735 94.8948 212.48 94.7073 212.293C94.5197 212.105 94.2654 212 94.0001 212Z" fill="#EBEBF5" fill-opacity="0.6"/>
<path d="M128 216L129.5 211.5H140.5L142 216M140.5 221C140.102 221 139.721 220.842 139.439 220.561C139.158 220.279 139 219.898 139 219.5C139 219.102 139.158 218.721 139.439 218.439C139.721 218.158 140.102 218 140.5 218C140.898 218 141.279 218.158 141.561 218.439C141.842 218.721 142 219.102 142 219.5C142 219.898 141.842 220.279 141.561 220.561C141.279 220.842 140.898 221 140.5 221ZM129.5 221C129.102 221 128.721 220.842 128.439 220.561C128.158 220.279 128 219.898 128 219.5C128 219.102 128.158 218.721 128.439 218.439C128.721 218.158 129.102 218 129.5 218C129.898 218 130.279 218.158 130.561 218.439C130.842 218.721 131 219.102 131 219.5C131 219.898 130.842 220.279 130.561 220.561C130.279 220.842 129.898 221 129.5 221ZM141.92 211C141.72 210.42 141.16 210 140.5 210H129.5C128.84 210 128.28 210.42 128.08 211L126 217V225C126 225.265 126.105 225.52 126.293 225.707C126.48 225.895 126.735 226 127 226H128C128.265 226 128.52 225.895 128.707 225.707C128.895 225.52 129 225.265 129 225V224H141V225C141 225.265 141.105 225.52 141.293 225.707C141.48 225.895 141.735 226 142 226H143C143.265 226 143.52 225.895 143.707 225.707C143.895 225.52 144 225.265 144 225V217L141.92 211Z" fill="#EBEBF5" fill-opacity="0.6"/>
<path d="M174 225V219H178V225H183V217H186L176 208L166 217H169V225H174Z" fill="#EBEBF5" fill-opacity="0.6"/>
<path d="M209 211H225V221H209M225 223C225.53 223 226.039 222.789 226.414 222.414C226.789 222.039 227 221.53 227 221V211C227 210.47 226.789 209.961 226.414 209.586C226.039 209.211 225.53 209 225 209H209C207.89 209 207 209.89 207 211V221C207 221.53 207.211 222.039 207.586 222.414C207.961 222.789 208.47 223 209 223H205V225H229V223H225Z" fill="#EBEBF5" fill-opacity="0.6"/>
<path d="M268 208L256 209.41V211H268V212H256V217H268C268 218.81 267.43 220.46 266.32 221.95C265.21 223.44 263.77 224.53 262 225.25V227H254V225.25C252.24 224.53 250.79 223.43 249.68 221.95C248.57 220.47 248 218.81 248 217H251V209L268 207V208ZM252 209.88V211H253V209.78L252 209.88ZM252 212V217H253V212H252ZM255 217V212H254V217H255ZM255 211V209.55L254 209.64V211H255Z" fill="#EBEBF5" fill-opacity="0.6"/>
<path d="M304 224H294V210H304M304 206H294C292.89 206 292 206.89 292 208V226C292 226.53 292.211 227.039 292.586 227.414C292.961 227.789 293.47 228 294 228H304C304.53 228 305.039 227.789 305.414 227.414C305.789 227.039 306 226.53 306 226V208C306 207.47 305.789 206.961 305.414 206.586C305.039 206.211 304.53 206 304 206Z" fill="#EBEBF5" fill-opacity="0.6"/>
<path d="M348.57 219.86L350 218.43L348.57 217L345 220.57L336.43 212L340 208.43L338.57 207L337.14 208.43L335.71 207L333.57 209.14L332.14 207.71L330.71 209.14L332.14 210.57L330 212.71L331.43 214.14L330 215.57L331.43 217L335 213.43L343.57 222L340 225.57L341.43 227L342.86 225.57L344.29 227L346.43 224.86L347.86 226.29L349.29 224.86L347.86 223.43L350 221.29L348.57 219.86Z" fill="#EBEBF5" fill-opacity="0.6"/>
<path d="M176 115C181.893 115 186.667 110.227 186.667 104.333C186.667 98.44 181.893 93.6667 176 93.6667C170.107 93.6667 165.333 98.44 165.333 104.333C165.333 110.227 170.107 115 176 115ZM176 120.333C168.88 120.333 154.667 123.907 154.667 131V133.667C154.667 135.133 155.867 136.333 157.333 136.333H194.667C196.133 136.333 197.333 135.133 197.333 133.667V131C197.333 123.907 183.12 120.333 176 120.333Z" fill="url(#paint0_linear_482_80284)"/>
</g>
<defs>
<linearGradient id="paint0_linear_482_80284" x1="154.667" y1="93.6667" x2="197.333" y2="136.333" gradientUnits="userSpaceOnUse">
<stop stop-color="#FCBA82"/>
<stop offset="0.5" stop-color="#FA9D4C"/>
<stop offset="1" stop-color="#E18D44"/>
</linearGradient>
<clipPath id="clip0_482_80284">
<rect width="352" height="229" fill="white"/>
</clipPath>
</defs>
</svg>
