<svg width="352" height="229" viewBox="0 0 352 229" fill="none" xmlns="http://www.w3.org/2000/svg">
<rect width="46" height="18" fill="#06A9EF"/>
<rect x="51" width="46" height="18" fill="#06A9EF"/>
<rect x="102" width="46" height="18" fill="#06A9EF"/>
<rect x="204" width="46" height="18" fill="#6E0CDF"/>
<rect x="255" width="46" height="18" fill="#6E0CDF"/>
<rect x="306" width="46" height="18" fill="#6E0CDF"/>
<rect y="23" width="46" height="16" fill="#3A3A3C"/>
<rect x="51" y="23" width="46" height="16" fill="#3A3A3C"/>
<rect x="102" y="23" width="46" height="16" fill="#3A3A3C"/>
<rect x="204" y="23" width="46" height="16" fill="#9A55E9"/>
<rect x="255" y="23" width="46" height="16" fill="#9A55E9"/>
<rect x="306" y="23" width="46" height="16" fill="#9A55E9"/>
<rect y="44" width="46" height="16" fill="#3A3A3C"/>
<rect x="51" y="44" width="46" height="16" fill="#3A3A3C"/>
<rect x="102" y="44" width="46" height="16" fill="#3A3A3C"/>
<rect x="204" y="44" width="46" height="16" fill="#9A55E9"/>
<rect x="255" y="44" width="46" height="16" fill="#9A55E9"/>
<rect x="306" y="44" width="46" height="16" fill="#9A55E9"/>
<rect y="65" width="46" height="16" fill="#3A3A3C"/>
<rect x="51" y="65" width="46" height="16" fill="#3A3A3C"/>
<rect x="102" y="65" width="46" height="16" fill="#3A3A3C"/>
<rect x="204" y="65" width="46" height="16" fill="#9A55E9"/>
<rect x="255" y="65" width="46" height="16" fill="#9A55E9"/>
<rect x="306" y="65" width="46" height="16" fill="#9A55E9"/>
<rect y="86" width="46" height="16" fill="#3A3A3C"/>
<rect x="51" y="86" width="46" height="16" fill="#3A3A3C"/>
<rect x="102" y="86" width="46" height="16" fill="#3A3A3C"/>
<rect x="204" y="86" width="46" height="16" fill="#9A55E9"/>
<rect x="255" y="86" width="46" height="16" fill="#9A55E9"/>
<rect x="306" y="86" width="46" height="16" fill="#9A55E9"/>
<rect y="107" width="46" height="16" fill="#3A3A3C"/>
<rect x="51" y="107" width="46" height="16" fill="#3A3A3C"/>
<rect x="102" y="107" width="46" height="16" fill="#3A3A3C"/>
<path d="M180.834 115.667H176.667V119.833C176.667 120.054 176.579 120.266 176.423 120.423C176.267 120.579 176.055 120.667 175.834 120.667C175.613 120.667 175.401 120.579 175.245 120.423C175.088 120.266 175 120.054 175 119.833V115.667H170.834C170.613 115.667 170.401 115.579 170.245 115.423C170.088 115.266 170 115.054 170 114.833C170 114.612 170.088 114.4 170.245 114.244C170.401 114.088 170.613 114 170.834 114H175V109.833C175 109.612 175.088 109.4 175.245 109.244C175.401 109.088 175.613 109 175.834 109C176.055 109 176.267 109.088 176.423 109.244C176.579 109.4 176.667 109.612 176.667 109.833V114H180.834C181.055 114 181.267 114.088 181.423 114.244C181.579 114.4 181.667 114.612 181.667 114.833C181.667 115.054 181.579 115.266 181.423 115.423C181.267 115.579 181.055 115.667 180.834 115.667Z" fill="white"/>
<rect x="204" y="107" width="46" height="16" fill="#9A55E9"/>
<rect x="255" y="107" width="46" height="16" fill="#9A55E9"/>
<rect x="306" y="107" width="46" height="16" fill="#9A55E9"/>
<rect y="128" width="46" height="16" fill="#3A3A3C"/>
<rect x="51" y="128" width="46" height="16" fill="#3A3A3C"/>
<rect x="102" y="128" width="46" height="16" fill="#3A3A3C"/>
<rect x="204" y="128" width="46" height="16" fill="#9A55E9"/>
<rect x="255" y="128" width="46" height="16" fill="#9A55E9"/>
<rect x="306" y="128" width="46" height="16" fill="#9A55E9"/>
<rect y="149" width="46" height="16" fill="#3A3A3C"/>
<rect x="51" y="149" width="46" height="16" fill="#3A3A3C"/>
<rect x="102" y="149" width="46" height="16" fill="#3A3A3C"/>
<rect x="204" y="149" width="46" height="16" fill="#9A55E9"/>
<rect x="255" y="149" width="46" height="16" fill="#9A55E9"/>
<rect x="306" y="149" width="46" height="16" fill="#9A55E9"/>
<rect y="170" width="46" height="16" fill="#3A3A3C"/>
<rect x="51" y="170" width="46" height="16" fill="#3A3A3C"/>
<rect x="102" y="170" width="46" height="16" fill="#3A3A3C"/>
<rect x="204" y="170" width="46" height="16" fill="#9A55E9"/>
<rect x="255" y="170" width="46" height="16" fill="#9A55E9"/>
<rect x="306" y="170" width="46" height="16" fill="#9A55E9"/>
<rect y="191" width="46" height="16" fill="#3A3A3C"/>
<rect x="51" y="191" width="46" height="16" fill="#3A3A3C"/>
<rect x="102" y="191" width="46" height="16" fill="#3A3A3C"/>
<rect x="204" y="191" width="46" height="16" fill="#9A55E9"/>
<rect x="255" y="191" width="46" height="16" fill="#9A55E9"/>
<rect x="306" y="191" width="46" height="16" fill="#9A55E9"/>
<rect y="212" width="46" height="16" fill="#3A3A3C"/>
<rect x="51" y="212" width="46" height="16" fill="#3A3A3C"/>
<rect x="102" y="212" width="46" height="16" fill="#3A3A3C"/>
<rect x="204" y="212" width="46" height="16" fill="#9A55E9"/>
<rect x="255" y="212" width="46" height="16" fill="#9A55E9"/>
<rect x="306" y="212" width="46" height="16" fill="#9A55E9"/>
</svg>
