<svg width="352" height="229" viewBox="0 0 352 229" fill="none" xmlns="http://www.w3.org/2000/svg">
<path d="M16 16C16 16 32.5 74 96 74C159.5 74 176 132 176 132" stroke="#EBEBF5" stroke-opacity="0.18" stroke-width="2" stroke-linecap="round" stroke-linejoin="bevel" stroke-dasharray="2 6"/>
<path d="M176 132C176 132 192.5 74 256 74C319.5 74 336 16 336 16" stroke="#EBEBF5" stroke-opacity="0.18" stroke-width="2" stroke-linecap="round" stroke-linejoin="bevel" stroke-dasharray="2 6"/>
<path d="M26 82C26 82 41.4687 107 101 107C160.531 107 176 132 176 132" stroke="#EBEBF5" stroke-opacity="0.18" stroke-width="2" stroke-linecap="round" stroke-linejoin="bevel" stroke-dasharray="2 6"/>
<path d="M176 132C176 132 191.469 107 251 107C310.531 107 326 82 326 82" stroke="#EBEBF5" stroke-opacity="0.18" stroke-width="2" stroke-linecap="round" stroke-linejoin="bevel" stroke-dasharray="2 6"/>
<path d="M16 214C16 214 32.5 171 96 171C159.5 171 176 128 176 128" stroke="#EBEBF5" stroke-opacity="0.18" stroke-width="2" stroke-linecap="round" stroke-linejoin="bevel" stroke-dasharray="2 6"/>
<path d="M176 128C176 128 192.5 171 256 171C319.5 171 336 214 336 214" stroke="#EBEBF5" stroke-opacity="0.18" stroke-width="2" stroke-linecap="round" stroke-linejoin="bevel" stroke-dasharray="2 6"/>
<path d="M16 148C16 148 32.5 138 96 138C159.5 138 176 128 176 128" stroke="#EBEBF5" stroke-opacity="0.18" stroke-width="2" stroke-linecap="round" stroke-linejoin="bevel" stroke-dasharray="2 6"/>
<path d="M176 128C176 128 192.5 138 256 138C319.5 138 336 148 336 148" stroke="#EBEBF5" stroke-opacity="0.18" stroke-width="2" stroke-linecap="round" stroke-linejoin="bevel" stroke-dasharray="2 6"/>
<path d="M176 115C181.893 115 186.667 110.227 186.667 104.333C186.667 98.44 181.893 93.6667 176 93.6667C170.107 93.6667 165.333 98.44 165.333 104.333C165.333 110.227 170.107 115 176 115ZM176 120.333C168.88 120.333 154.667 123.907 154.667 131V133.667C154.667 135.133 155.867 136.333 157.333 136.333H194.667C196.133 136.333 197.333 135.133 197.333 133.667V131C197.333 123.907 183.12 120.333 176 120.333Z" fill="url(#paint0_linear_482_80500)"/>
<path d="M16.0002 28.4667L14.0668 26.7067C7.20016 20.48 2.66683 16.36 2.66683 11.3333C2.66683 7.21333 5.8935 4 10.0002 4C12.3202 4 14.5468 5.08 16.0002 6.77333C17.4535 5.08 19.6802 4 22.0002 4C26.1068 4 29.3335 7.21333 29.3335 11.3333C29.3335 16.36 24.8002 20.48 17.9335 26.7067L16.0002 28.4667Z" fill="url(#paint1_linear_482_80500)"/>
<path d="M4.00016 74H28.0002V90H4.00016V74ZM16.0002 78C17.061 78 18.0784 78.4214 18.8286 79.1716C19.5787 79.9217 20.0002 80.9391 20.0002 82C20.0002 83.0609 19.5787 84.0783 18.8286 84.8284C18.0784 85.5786 17.061 86 16.0002 86C14.9393 86 13.9219 85.5786 13.1717 84.8284C12.4216 84.0783 12.0002 83.0609 12.0002 82C12.0002 80.9391 12.4216 79.9217 13.1717 79.1716C13.9219 78.4214 14.9393 78 16.0002 78ZM9.3335 76.6667C9.3335 77.3739 9.05254 78.0522 8.55245 78.5523C8.05235 79.0524 7.37407 79.3333 6.66683 79.3333V84.6667C7.37407 84.6667 8.05235 84.9476 8.55245 85.4477C9.05254 85.9478 9.3335 86.6261 9.3335 87.3333H22.6668C22.6668 86.6261 22.9478 85.9478 23.4479 85.4477C23.948 84.9476 24.6263 84.6667 25.3335 84.6667V79.3333C24.6263 79.3333 23.948 79.0524 23.4479 78.5523C22.9478 78.0522 22.6668 77.3739 22.6668 76.6667H9.3335Z" fill="url(#paint2_linear_482_80500)"/>
<path d="M22.6668 156C21.1868 156 20.0002 157.187 20.0002 158.667C20.0002 159.374 20.2811 160.052 20.7812 160.552C21.2813 161.052 21.9596 161.333 22.6668 161.333C23.3741 161.333 24.0523 161.052 24.5524 160.552C25.0525 160.052 25.3335 159.374 25.3335 158.667C25.3335 157.959 25.0525 157.281 24.5524 156.781C24.0523 156.281 23.3741 156 22.6668 156ZM1.3335 134.667V137.333H4.00016L8.80016 147.453L6.98683 150.72C6.78683 151.093 6.66683 151.533 6.66683 152C6.66683 152.707 6.94778 153.386 7.44788 153.886C7.94797 154.386 8.62625 154.667 9.3335 154.667H25.3335V152H9.8935C9.80509 152 9.72031 151.965 9.65779 151.902C9.59528 151.84 9.56016 151.755 9.56016 151.667C9.56016 151.6 9.57349 151.547 9.60016 151.507L10.8002 149.333H20.7335C21.7335 149.333 22.6135 148.773 23.0668 147.96L27.8402 139.333C27.9335 139.12 28.0002 138.893 28.0002 138.667C28.0002 138.313 27.8597 137.974 27.6096 137.724C27.3596 137.474 27.0205 137.333 26.6668 137.333H6.94683L5.6935 134.667M9.3335 156C7.8535 156 6.66683 157.187 6.66683 158.667C6.66683 159.374 6.94778 160.052 7.44788 160.552C7.94797 161.052 8.62625 161.333 9.3335 161.333C10.0407 161.333 10.719 161.052 11.2191 160.552C11.7192 160.052 12.0002 159.374 12.0002 158.667C12.0002 157.959 11.7192 157.281 11.2191 156.781C10.719 156.281 10.0407 156 9.3335 156Z" fill="url(#paint3_linear_482_80500)"/>
<path d="M18.3735 218.4L26.3735 226.4L29.1868 223.52L21.1868 215.52L18.3735 218.4ZM23.3335 211.467C22.8135 211.467 22.2535 211.4 21.8135 211.213L6.62683 226.333L3.8135 223.52L13.6935 213.653L11.3335 211.28L10.3735 212.213L8.44016 210.333V214.147L7.50683 215.08L2.8135 210.333L3.74683 209.4H7.4935L5.62683 207.52L10.3735 202.773C10.7422 202.403 11.1806 202.108 11.6634 201.908C12.1462 201.707 12.6639 201.604 13.1868 201.604C13.7097 201.604 14.2274 201.707 14.7102 201.908C15.1931 202.108 15.6314 202.403 16.0002 202.773L13.1868 205.653L15.0668 207.52L14.1202 208.467L16.5068 210.84L18.9335 208.333C18.7468 207.893 18.6668 207.333 18.6668 206.84C18.6615 206.224 18.7784 205.614 19.0107 205.044C19.2431 204.474 19.5862 203.955 20.0202 203.519C20.4543 203.082 20.9706 202.736 21.5394 202.501C22.1081 202.265 22.7179 202.145 23.3335 202.147C24.1202 202.147 24.8135 202.333 25.4402 202.707L21.8802 206.267L23.8802 208.267L27.4402 204.707C27.8135 205.333 28.0002 206 28.0002 206.84C28.0002 209.4 25.9335 211.467 23.3335 211.467Z" fill="url(#paint4_linear_482_80500)"/>
<path d="M331.667 21C329 21 328 24 325.333 25.3333C322.667 25.3333 320.667 21.3333 326 10H326.333L326.92 8.89333C326.92 8.89333 330.667 6.66667 332.44 8.30667H339.56C341.333 6.66667 345.08 8.89333 345.08 8.89333L345.667 10H346C351.333 21.3333 349.333 25.3333 346.667 25.3333C344 24 343 21 340.333 21H331.667ZM336 9.33333C335.647 9.33333 335.307 9.47381 335.057 9.72386C334.807 9.97391 334.667 10.313 334.667 10.6667C334.667 11.0203 334.807 11.3594 335.057 11.6095C335.307 11.8595 335.647 12 336 12C336.354 12 336.693 11.8595 336.943 11.6095C337.193 11.3594 337.333 11.0203 337.333 10.6667C337.333 10.313 337.193 9.97391 336.943 9.72386C336.693 9.47381 336.354 9.33333 336 9.33333Z" fill="url(#paint5_linear_482_80500)"/>
<path d="M336 67.3333C329.333 67.3333 324 72.6667 324 79.3333V88.6667C324 89.7275 324.422 90.7449 325.172 91.4951C325.922 92.2452 326.939 92.6667 328 92.6667H332V82H326.667V79.3333C326.667 76.858 327.65 74.484 329.401 72.7337C331.151 70.9833 333.525 70 336 70C338.475 70 340.849 70.9833 342.6 72.7337C344.35 74.484 345.333 76.858 345.333 79.3333V82H340V92.6667H344C345.061 92.6667 346.078 92.2452 346.829 91.4951C347.579 90.7449 348 89.7275 348 88.6667V79.3333C348 72.6667 342.627 67.3333 336 67.3333Z" fill="url(#paint6_linear_482_80500)"/>
<path d="M347.613 203.173L345.827 201.387C345.333 200.867 344.467 200.867 343.947 201.387L332 213.333L335.667 217L347.613 205.053C348.133 204.533 348.133 203.667 347.613 203.173ZM329.333 215.667C328.273 215.667 327.255 216.088 326.505 216.838C325.755 217.588 325.333 218.606 325.333 219.667C325.333 221.413 323.787 222.333 322.667 222.333C323.893 223.96 326 225 328 225C329.415 225 330.771 224.438 331.771 223.438C332.772 222.438 333.333 221.081 333.333 219.667C333.333 218.606 332.912 217.588 332.162 216.838C331.412 216.088 330.394 215.667 329.333 215.667Z" fill="url(#paint7_linear_482_80500)"/>
<path d="M341.333 160H330.667C330.313 160 329.974 159.86 329.724 159.609C329.474 159.359 329.333 159.02 329.333 158.667V148.093L327.6 149.427C327.477 149.55 327.33 149.648 327.169 149.715C327.008 149.782 326.835 149.817 326.66 149.817C326.486 149.817 326.313 149.782 326.151 149.715C325.99 149.648 325.844 149.55 325.72 149.427L321.947 145.72C321.823 145.597 321.725 145.45 321.658 145.289C321.591 145.128 321.557 144.955 321.557 144.78C321.557 144.605 321.591 144.432 321.658 144.271C321.725 144.11 321.823 143.963 321.947 143.84L329.787 136H332C332.387 138.4 333.867 140.493 336 141.667C338.133 140.493 339.613 138.4 340 136H342.214L350.053 143.84C350.573 144.36 350.573 145.2 350.053 145.72L346.28 149.493C345.76 150 344.92 150 344.4 149.493L342.667 148.16V158.667C342.667 159.02 342.526 159.359 342.276 159.609C342.026 159.86 341.687 160 341.333 160Z" fill="url(#paint8_linear_482_80500)"/>
<path d="M40.9858 20V11.0255H42.3399V14.9255H46.814V11.0255H48.1725V20H46.814V16.0868H42.3399V20H40.9858Z" fill="url(#paint9_linear_482_80500)"/>
<path d="M52.9402 20.1359C52.277 20.1359 51.7059 19.9942 51.2268 19.7108C50.7506 19.4245 50.3825 19.0228 50.1225 18.5057C49.8654 17.9857 49.7369 17.3766 49.7369 16.6784C49.7369 15.9889 49.8654 15.3813 50.1225 14.8554C50.3825 14.3296 50.7448 13.9191 51.2093 13.6241C51.6767 13.329 52.223 13.1815 52.8482 13.1815C53.2279 13.1815 53.596 13.2443 53.9525 13.3699C54.3089 13.4955 54.6288 13.6927 54.9121 13.9615C55.1955 14.2302 55.419 14.5794 55.5826 15.0088C55.7462 15.4353 55.828 15.9539 55.828 16.5644V17.029H50.4774V16.0474H54.544C54.544 15.7026 54.4739 15.3973 54.3337 15.1315C54.1935 14.8627 53.9963 14.6509 53.7421 14.4961C53.4909 14.3413 53.1958 14.2638 52.8569 14.2638C52.4888 14.2638 52.1675 14.3544 51.8929 14.5355C51.6212 14.7137 51.4108 14.9475 51.2618 15.2367C51.1158 15.523 51.0427 15.8341 51.0427 16.1701V16.9369C51.0427 17.3868 51.1216 17.7695 51.2794 18.085C51.44 18.4005 51.6635 18.6416 51.9498 18.8081C52.2361 18.9717 52.5706 19.0535 52.9533 19.0535C53.2017 19.0535 53.4281 19.0184 53.6326 18.9483C53.8371 18.8753 54.0138 18.7672 54.1628 18.624C54.3118 18.4809 54.4257 18.3041 54.5046 18.0938L55.7447 18.3173C55.6454 18.6825 55.4672 19.0024 55.2101 19.277C54.956 19.5487 54.6361 19.7605 54.2504 19.9124C53.8677 20.0614 53.431 20.1359 52.9402 20.1359Z" fill="url(#paint10_linear_482_80500)"/>
<path d="M59.2406 20.149C58.814 20.149 58.4284 20.0701 58.0837 19.9124C57.739 19.7517 57.4658 19.5194 57.2642 19.2156C57.0656 18.9118 56.9662 18.5393 56.9662 18.0982C56.9662 17.7184 57.0393 17.4058 57.1853 17.1604C57.3314 16.915 57.5286 16.7207 57.7769 16.5776C58.0252 16.4344 58.3028 16.3264 58.6095 16.2533C58.9163 16.1803 59.2289 16.1248 59.5473 16.0868C59.9505 16.0401 60.2777 16.0021 60.5289 15.9729C60.7801 15.9407 60.9627 15.8896 61.0767 15.8195C61.1906 15.7494 61.2476 15.6354 61.2476 15.4777V15.447C61.2476 15.0643 61.1395 14.7678 60.9233 14.5574C60.71 14.3471 60.3916 14.2419 59.968 14.2419C59.5268 14.2419 59.1792 14.3398 58.925 14.5355C58.6738 14.7283 58.5 14.9431 58.4036 15.1797L57.1722 14.8992C57.3183 14.4903 57.5315 14.1601 57.812 13.9089C58.0954 13.6547 58.4211 13.4707 58.7892 13.3567C59.1573 13.2399 59.5444 13.1815 59.9505 13.1815C60.2192 13.1815 60.5041 13.2136 60.805 13.2779C61.1088 13.3392 61.3922 13.4532 61.6551 13.6197C61.9209 13.7862 62.1386 14.0243 62.308 14.334C62.4775 14.6407 62.5622 15.0395 62.5622 15.5303V20H61.2826V19.0798H61.23C61.1453 19.2492 61.0182 19.4157 60.8488 19.5793C60.6793 19.7429 60.4617 19.8788 60.1959 19.9869C59.93 20.095 59.6116 20.149 59.2406 20.149ZM59.5254 19.0973C59.8876 19.0973 60.1973 19.0257 60.4544 18.8826C60.7144 18.7394 60.9116 18.5525 61.046 18.3217C61.1833 18.088 61.2519 17.8382 61.2519 17.5723V16.7047C61.2052 16.7514 61.1146 16.7952 60.9802 16.8361C60.8488 16.8741 60.6983 16.9077 60.5289 16.9369C60.3594 16.9632 60.1944 16.9881 60.0337 17.0114C59.873 17.0319 59.7387 17.0494 59.6306 17.064C59.3764 17.0961 59.1441 17.1502 58.9338 17.2261C58.7264 17.3021 58.5599 17.4117 58.4342 17.5548C58.3115 17.695 58.2502 17.882 58.2502 18.1157C58.2502 18.44 58.37 18.6854 58.6095 18.8519C58.8491 19.0155 59.1544 19.0973 59.5254 19.0973Z" fill="url(#paint11_linear_482_80500)"/>
<path d="M65.6176 11.0255V20H64.3074V11.0255H65.6176Z" fill="url(#paint12_linear_482_80500)"/>
<path d="M70.5223 13.2691V14.3208H66.8457V13.2691H70.5223ZM67.8317 11.6565H69.1419V18.0237C69.1419 18.2778 69.1799 18.4692 69.2558 18.5977C69.3318 18.7234 69.4297 18.8095 69.5494 18.8563C69.6721 18.9001 69.8051 18.922 69.9482 18.922C70.0534 18.922 70.1454 18.9147 70.2243 18.9001C70.3032 18.8855 70.3645 18.8738 70.4083 18.8651L70.645 19.9474C70.569 19.9766 70.4609 20.0059 70.3207 20.0351C70.1805 20.0672 70.0052 20.0847 69.7948 20.0877C69.4501 20.0935 69.1288 20.0322 68.8308 19.9036C68.5328 19.7751 68.2918 19.5764 68.1077 19.3076C67.9237 19.0389 67.8317 18.7015 67.8317 18.2954V11.6565Z" fill="url(#paint13_linear_482_80500)"/>
<path d="M73.4265 16.0035V20H72.1163V11.0255H73.409V14.3646H73.4922C73.65 14.0024 73.891 13.7146 74.2153 13.5014C74.5396 13.2881 74.9632 13.1815 75.4861 13.1815C75.9477 13.1815 76.3508 13.2764 76.6956 13.4663C77.0432 13.6562 77.312 13.9396 77.5019 14.3164C77.6947 14.6904 77.7911 15.1578 77.7911 15.7187V20H76.4808V15.8765C76.4808 15.3827 76.3538 15 76.0996 14.7283C75.8454 14.4537 75.4919 14.3164 75.0391 14.3164C74.7295 14.3164 74.4519 14.3822 74.2065 14.5136C73.9641 14.6451 73.7727 14.8379 73.6325 15.0921C73.4952 15.3433 73.4265 15.6471 73.4265 16.0035Z" fill="url(#paint14_linear_482_80500)"/>
<path d="M42.3399 77.0255V86H40.9858V77.0255H42.3399Z" fill="url(#paint15_linear_482_80500)"/>
<path d="M45.5169 82.0035V86H44.2067V79.2691H45.4643V80.3646H45.5476C45.7024 80.0082 45.9449 79.7219 46.275 79.5057C46.608 79.2896 47.0273 79.1815 47.5327 79.1815C47.9913 79.1815 48.393 79.2779 48.7377 79.4707C49.0825 79.6606 49.3498 79.9439 49.5397 80.3208C49.7296 80.6977 49.8245 81.1636 49.8245 81.7187V86H48.5143V81.8765C48.5143 81.3886 48.3872 81.0073 48.133 80.7327C47.8789 80.4552 47.5297 80.3164 47.0857 80.3164C46.7819 80.3164 46.5116 80.3822 46.275 80.5136C46.0413 80.6451 45.8558 80.8379 45.7185 81.0921C45.5841 81.3433 45.5169 81.6471 45.5169 82.0035Z" fill="url(#paint16_linear_482_80500)"/>
<path d="M57.0988 79.2691L54.658 86H53.2557L50.8105 79.2691H52.2171L53.9218 84.4488H53.9919L55.6921 79.2691H57.0988Z" fill="url(#paint17_linear_482_80500)"/>
<path d="M61.0022 86.1359C60.339 86.1359 59.7679 85.9942 59.2888 85.7108C58.8126 85.4245 58.4445 85.0228 58.1845 84.5057C57.9274 83.9857 57.7988 83.3766 57.7988 82.6784C57.7988 81.9889 57.9274 81.3813 58.1845 80.8554C58.4445 80.3296 58.8067 79.9191 59.2712 79.6241C59.7387 79.329 60.285 79.1815 60.9101 79.1815C61.2899 79.1815 61.658 79.2443 62.0144 79.3699C62.3708 79.4955 62.6907 79.6927 62.9741 79.9615C63.2575 80.2302 63.481 80.5794 63.6446 81.0088C63.8082 81.4353 63.89 81.9539 63.89 82.5644V83.029H58.5394V82.0474H62.606C62.606 81.7026 62.5359 81.3973 62.3957 81.1315C62.2554 80.8627 62.0582 80.6509 61.8041 80.4961C61.5528 80.3413 61.2578 80.2638 60.9189 80.2638C60.5508 80.2638 60.2294 80.3544 59.9548 80.5355C59.6831 80.7137 59.4728 80.9475 59.3238 81.2367C59.1777 81.523 59.1047 81.8341 59.1047 82.1701V82.9369C59.1047 83.3868 59.1836 83.7695 59.3413 84.085C59.502 84.4006 59.7255 84.6416 60.0118 84.8081C60.2981 84.9717 60.6326 85.0535 61.0153 85.0535C61.2636 85.0535 61.49 85.0184 61.6945 84.9483C61.899 84.8753 62.0758 84.7672 62.2248 84.624C62.3738 84.4809 62.4877 84.3041 62.5666 84.0938L63.8067 84.3173C63.7074 84.6825 63.5292 85.0024 63.2721 85.277C63.0179 85.5487 62.698 85.7605 62.3124 85.9124C61.9297 86.0614 61.493 86.1359 61.0022 86.1359Z" fill="url(#paint18_linear_482_80500)"/>
<path d="M70.3875 80.9124L69.2 81.1227C69.1503 80.9708 69.0714 80.8262 68.9633 80.6889C68.8582 80.5516 68.715 80.4391 68.5339 80.3515C68.3528 80.2638 68.1264 80.22 67.8547 80.22C67.4837 80.22 67.174 80.3033 66.9257 80.4698C66.6773 80.6334 66.5532 80.8452 66.5532 81.1052C66.5532 81.3302 66.6364 81.5113 66.803 81.6486C66.9695 81.7859 67.2383 81.8984 67.6093 81.986L68.6785 82.2314C69.2978 82.3746 69.7594 82.5951 70.0633 82.8931C70.3671 83.1911 70.519 83.5782 70.519 84.0544C70.519 84.4575 70.4021 84.8168 70.1684 85.1324C69.9376 85.445 69.6148 85.6903 69.2 85.8686C68.7881 86.0468 68.3104 86.1359 67.767 86.1359C67.0133 86.1359 66.3984 85.9752 65.9222 85.6538C65.446 85.3296 65.1538 84.8694 65.0457 84.2735L66.3122 84.0807C66.391 84.4108 66.5532 84.6606 66.7986 84.83C67.044 84.9965 67.3639 85.0798 67.7583 85.0798C68.1877 85.0798 68.531 84.9907 68.7881 84.8125C69.0451 84.6313 69.1737 84.4108 69.1737 84.1508C69.1737 83.9404 69.0948 83.7637 68.937 83.6205C68.7822 83.4774 68.5441 83.3693 68.2228 83.2963L67.0834 83.0465C66.4553 82.9033 65.9908 82.6755 65.6899 82.3629C65.3919 82.0503 65.2429 81.6544 65.2429 81.1753C65.2429 80.778 65.354 80.4304 65.576 80.1324C65.798 79.8344 66.1048 79.6021 66.4962 79.4356C66.8877 79.2662 67.3361 79.1815 67.8415 79.1815C68.569 79.1815 69.1415 79.3392 69.5593 79.6547C69.9771 79.9673 70.2531 80.3865 70.3875 80.9124Z" fill="url(#paint19_linear_482_80500)"/>
<path d="M75.1016 79.2691V80.3208H71.425V79.2691H75.1016ZM72.411 77.6565H73.7212V84.0237C73.7212 84.2778 73.7592 84.4692 73.8351 84.5977C73.9111 84.7234 74.009 84.8095 74.1287 84.8563C74.2514 84.9001 74.3844 84.922 74.5275 84.922C74.6327 84.922 74.7247 84.9147 74.8036 84.9001C74.8825 84.8855 74.9438 84.8738 74.9876 84.8651L75.2243 85.9474C75.1483 85.9766 75.0402 86.0059 74.9 86.0351C74.7598 86.0672 74.5845 86.0847 74.3741 86.0877C74.0294 86.0935 73.7081 86.0322 73.4101 85.9036C73.1121 85.7751 72.8711 85.5764 72.687 85.3076C72.503 85.0389 72.411 84.7015 72.411 84.2954V77.6565Z" fill="url(#paint20_linear_482_80500)"/>
<path d="M76.551 86V79.2691H77.8086V80.3646H77.8919C78.0321 79.9936 78.2614 79.7044 78.5799 79.497C78.8983 79.2866 79.2795 79.1815 79.7236 79.1815C80.1735 79.1815 80.5504 79.2866 80.8542 79.497C81.1609 79.7073 81.3873 79.9965 81.5334 80.3646H81.6035C81.7642 80.0053 82.0198 79.719 82.3704 79.5057C82.721 79.2896 83.1387 79.1815 83.6237 79.1815C84.2342 79.1815 84.7323 79.3728 85.118 79.7555C85.5065 80.1382 85.7008 80.7152 85.7008 81.4865V86H84.3905V81.6091C84.3905 81.1534 84.2664 80.8233 84.0181 80.6188C83.7697 80.4143 83.4732 80.312 83.1285 80.312C82.702 80.312 82.3704 80.4435 82.1338 80.7064C81.8971 80.9664 81.7788 81.3009 81.7788 81.7099V86H80.4729V81.5259C80.4729 81.1607 80.359 80.8671 80.1311 80.6451C79.9033 80.4231 79.6067 80.312 79.2416 80.312C78.9932 80.312 78.7639 80.3778 78.5536 80.5092C78.3462 80.6378 78.1782 80.8175 78.0496 81.0482C77.924 81.279 77.8612 81.5463 77.8612 81.8502V86H76.551Z" fill="url(#paint21_linear_482_80500)"/>
<path d="M90.3579 86.1359C89.6947 86.1359 89.1236 85.9942 88.6445 85.7108C88.1683 85.4245 87.8002 85.0228 87.5402 84.5057C87.2831 83.9857 87.1545 83.3766 87.1545 82.6784C87.1545 81.9889 87.2831 81.3813 87.5402 80.8554C87.8002 80.3296 88.1624 79.9191 88.6269 79.6241C89.0944 79.329 89.6407 79.1815 90.2658 79.1815C90.6456 79.1815 91.0137 79.2443 91.3701 79.3699C91.7265 79.4955 92.0464 79.6927 92.3298 79.9615C92.6132 80.2302 92.8367 80.5794 93.0003 81.0088C93.1639 81.4353 93.2457 81.9539 93.2457 82.5644V83.029H87.8951V82.0474H91.9617C91.9617 81.7026 91.8916 81.3973 91.7514 81.1315C91.6111 80.8627 91.4139 80.6509 91.1598 80.4961C90.9085 80.3413 90.6135 80.2638 90.2746 80.2638C89.9065 80.2638 89.5852 80.3544 89.3105 80.5355C89.0388 80.7137 88.8285 80.9475 88.6795 81.2367C88.5334 81.523 88.4604 81.8341 88.4604 82.1701V82.9369C88.4604 83.3868 88.5393 83.7695 88.697 84.085C88.8577 84.4006 89.0812 84.6416 89.3675 84.8081C89.6538 84.9717 89.9883 85.0535 90.371 85.0535C90.6193 85.0535 90.8457 85.0184 91.0502 84.9483C91.2547 84.8753 91.4315 84.7672 91.5805 84.624C91.7295 84.4809 91.8434 84.3041 91.9223 84.0938L93.1624 84.3173C93.0631 84.6825 92.8849 85.0024 92.6278 85.277C92.3736 85.5487 92.0537 85.7605 91.6681 85.9124C91.2854 86.0614 90.8487 86.1359 90.3579 86.1359Z" fill="url(#paint22_linear_482_80500)"/>
<path d="M96.0097 82.0035V86H94.6994V79.2691H95.9571V80.3646H96.0404C96.1952 80.0082 96.4377 79.7219 96.7678 79.5057C97.1008 79.2896 97.52 79.1815 98.0254 79.1815C98.4841 79.1815 98.8858 79.2779 99.2305 79.4707C99.5752 79.6606 99.8426 79.9439 100.032 80.3208C100.222 80.6977 100.317 81.1636 100.317 81.7187V86H99.007V81.8765C99.007 81.3886 98.88 81.0073 98.6258 80.7327C98.3716 80.4552 98.0225 80.3164 97.5785 80.3164C97.2746 80.3164 97.0044 80.3822 96.7678 80.5136C96.5341 80.6451 96.3486 80.8379 96.2113 81.0921C96.0769 81.3433 96.0097 81.6471 96.0097 82.0035Z" fill="url(#paint23_linear_482_80500)"/>
<path d="M105.216 79.2691V80.3208H101.54V79.2691H105.216ZM102.526 77.6565H103.836V84.0237C103.836 84.2778 103.874 84.4692 103.95 84.5977C104.026 84.7234 104.124 84.8095 104.244 84.8563C104.366 84.9001 104.499 84.922 104.642 84.922C104.748 84.922 104.84 84.9147 104.918 84.9001C104.997 84.8855 105.059 84.8738 105.103 84.8651L105.339 85.9474C105.263 85.9766 105.155 86.0059 105.015 86.0351C104.875 86.0672 104.699 86.0847 104.489 86.0877C104.144 86.0935 103.823 86.0322 103.525 85.9036C103.227 85.7751 102.986 85.5764 102.802 85.3076C102.618 85.0389 102.526 84.7015 102.526 84.2954V77.6565Z" fill="url(#paint24_linear_482_80500)"/>
<path d="M111.601 80.9124L110.414 81.1227C110.364 80.9708 110.285 80.8262 110.177 80.6889C110.072 80.5516 109.929 80.4391 109.748 80.3515C109.566 80.2638 109.34 80.22 109.068 80.22C108.697 80.22 108.388 80.3033 108.139 80.4698C107.891 80.6334 107.767 80.8452 107.767 81.1052C107.767 81.3302 107.85 81.5113 108.017 81.6486C108.183 81.7859 108.452 81.8984 108.823 81.986L109.892 82.2314C110.512 82.3746 110.973 82.5951 111.277 82.8931C111.581 83.1911 111.733 83.5782 111.733 84.0544C111.733 84.4575 111.616 84.8168 111.382 85.1324C111.151 85.445 110.828 85.6903 110.414 85.8686C110.002 86.0468 109.524 86.1359 108.981 86.1359C108.227 86.1359 107.612 85.9752 107.136 85.6538C106.66 85.3296 106.368 84.8694 106.259 84.2735L107.526 84.0807C107.605 84.4108 107.767 84.6606 108.012 84.83C108.258 84.9965 108.578 85.0798 108.972 85.0798C109.401 85.0798 109.745 84.9907 110.002 84.8125C110.259 84.6313 110.387 84.4108 110.387 84.1508C110.387 83.9404 110.308 83.7637 110.151 83.6205C109.996 83.4774 109.758 83.3693 109.436 83.2963L108.297 83.0465C107.669 82.9033 107.204 82.6755 106.904 82.3629C106.606 82.0503 106.457 81.6544 106.457 81.1753C106.457 80.778 106.568 80.4304 106.79 80.1324C107.012 79.8344 107.318 79.6021 107.71 79.4356C108.101 79.2662 108.55 79.1815 109.055 79.1815C109.783 79.1815 110.355 79.3392 110.773 79.6547C111.191 79.9673 111.467 80.3865 111.601 80.9124Z" fill="url(#paint25_linear_482_80500)"/>
<path d="M45.8806 145.383C45.8339 144.968 45.6411 144.647 45.3022 144.419C44.9633 144.188 44.5368 144.073 44.0226 144.073C43.6545 144.073 43.3361 144.131 43.0673 144.248C42.7985 144.362 42.5897 144.52 42.4407 144.721C42.2946 144.92 42.2216 145.146 42.2216 145.401C42.2216 145.614 42.2712 145.798 42.3706 145.953C42.4728 146.108 42.6057 146.238 42.7693 146.343C42.9358 146.445 43.1141 146.531 43.3039 146.601C43.4938 146.668 43.6764 146.724 43.8517 146.768L44.7281 146.996C45.0144 147.066 45.308 147.161 45.6089 147.28C45.9098 147.4 46.1888 147.558 46.4459 147.754C46.703 147.949 46.9104 148.192 47.0682 148.481C47.2288 148.77 47.3092 149.117 47.3092 149.52C47.3092 150.028 47.1777 150.479 46.9148 150.874C46.6548 151.268 46.2765 151.579 45.7798 151.807C45.2861 152.035 44.6887 152.149 43.9875 152.149C43.3156 152.149 42.7343 152.042 42.2435 151.829C41.7527 151.616 41.3685 151.313 41.091 150.922C40.8134 150.528 40.6601 150.06 40.6309 149.52H41.9893C42.0156 149.844 42.1208 150.114 42.3048 150.33C42.4918 150.544 42.7299 150.703 43.0191 150.808C43.3112 150.91 43.6311 150.961 43.9788 150.961C44.3615 150.961 44.7018 150.902 44.9998 150.782C45.3007 150.659 45.5374 150.49 45.7097 150.273C45.8821 150.054 45.9683 149.799 45.9683 149.507C45.9683 149.241 45.8923 149.023 45.7404 148.854C45.5914 148.684 45.3884 148.544 45.1313 148.433C44.8771 148.322 44.5894 148.224 44.268 148.139L43.2075 147.85C42.4889 147.654 41.9192 147.367 41.4985 146.987C41.0808 146.607 40.8719 146.105 40.8719 145.479C40.8719 144.962 41.0121 144.511 41.2926 144.125C41.573 143.74 41.9528 143.44 42.4319 143.227C42.911 143.011 43.4515 142.903 44.0533 142.903C44.6609 142.903 45.197 143.009 45.6615 143.223C46.1289 143.436 46.497 143.73 46.7658 144.103C47.0346 144.474 47.1748 144.901 47.1865 145.383H45.8806Z" fill="url(#paint26_linear_482_80500)"/>
<path d="M50.1324 148.004V152H48.8221V143.025H50.1148V146.365H50.1981C50.3558 146.002 50.5969 145.715 50.9211 145.501C51.2454 145.288 51.669 145.181 52.1919 145.181C52.6535 145.181 53.0567 145.276 53.4014 145.466C53.749 145.656 54.0178 145.94 54.2077 146.316C54.4005 146.69 54.4969 147.158 54.4969 147.719V152H53.1867V147.876C53.1867 147.383 53.0596 147 52.8054 146.728C52.5513 146.454 52.1978 146.316 51.745 146.316C51.4353 146.316 51.1578 146.382 50.9124 146.514C50.6699 146.645 50.4785 146.838 50.3383 147.092C50.201 147.343 50.1324 147.647 50.1324 148.004Z" fill="url(#paint27_linear_482_80500)"/>
<path d="M59.0806 152.136C58.4496 152.136 57.8989 151.991 57.4286 151.702C56.9582 151.413 56.593 151.008 56.333 150.488C56.073 149.968 55.943 149.361 55.943 148.665C55.943 147.967 56.073 147.356 56.333 146.834C56.593 146.311 56.9582 145.905 57.4286 145.615C57.8989 145.326 58.4496 145.181 59.0806 145.181C59.7116 145.181 60.2623 145.326 60.7327 145.615C61.203 145.905 61.5682 146.311 61.8282 146.834C62.0882 147.356 62.2182 147.967 62.2182 148.665C62.2182 149.361 62.0882 149.968 61.8282 150.488C61.5682 151.008 61.203 151.413 60.7327 151.702C60.2623 151.991 59.7116 152.136 59.0806 152.136ZM59.085 151.036C59.494 151.036 59.8329 150.928 60.1016 150.712C60.3704 150.495 60.5691 150.208 60.6976 149.848C60.8291 149.489 60.8948 149.093 60.8948 148.661C60.8948 148.231 60.8291 147.837 60.6976 147.478C60.5691 147.115 60.3704 146.825 60.1016 146.606C59.8329 146.387 59.494 146.277 59.085 146.277C58.6731 146.277 58.3313 146.387 58.0596 146.606C57.7908 146.825 57.5907 147.115 57.4592 147.478C57.3307 147.837 57.2664 148.231 57.2664 148.661C57.2664 149.093 57.3307 149.489 57.4592 149.848C57.5907 150.208 57.7908 150.495 58.0596 150.712C58.3313 150.928 58.6731 151.036 59.085 151.036Z" fill="url(#paint28_linear_482_80500)"/>
<path d="M63.6807 154.524V145.269H64.9603V146.36H65.0698C65.1458 146.22 65.2554 146.058 65.3985 145.874C65.5417 145.69 65.7403 145.529 65.9945 145.392C66.2486 145.252 66.5846 145.181 67.0024 145.181C67.5457 145.181 68.0307 145.319 68.4572 145.593C68.8837 145.868 69.2182 146.264 69.4607 146.781C69.7061 147.298 69.8288 147.92 69.8288 148.648C69.8288 149.375 69.7076 149.999 69.4651 150.519C69.2226 151.036 68.8896 151.435 68.466 151.715C68.0424 151.993 67.5589 152.131 67.0155 152.131C66.6065 152.131 66.272 152.063 66.012 151.926C65.7549 151.788 65.5533 151.628 65.4073 151.443C65.2612 151.259 65.1487 151.096 65.0698 150.953H64.991V154.524H63.6807ZM64.9647 148.635C64.9647 149.108 65.0333 149.523 65.1706 149.879C65.3079 150.235 65.5066 150.514 65.7666 150.716C66.0266 150.915 66.345 151.014 66.7219 151.014C67.1134 151.014 67.4406 150.91 67.7035 150.703C67.9664 150.493 68.1651 150.208 68.2995 149.848C68.4368 149.489 68.5054 149.084 68.5054 148.635C68.5054 148.191 68.4382 147.792 68.3038 147.438C68.1724 147.085 67.9737 146.806 67.7079 146.601C67.4449 146.397 67.1163 146.295 66.7219 146.295C66.3421 146.295 66.0208 146.392 65.7578 146.588C65.4978 146.784 65.3006 147.057 65.1663 147.408C65.0319 147.758 64.9647 148.167 64.9647 148.635Z" fill="url(#paint29_linear_482_80500)"/>
<path d="M71.2968 154.524V145.269H72.5764V146.36H72.6859C72.7619 146.22 72.8714 146.058 73.0146 145.874C73.1577 145.69 73.3564 145.529 73.6106 145.392C73.8647 145.252 74.2007 145.181 74.6184 145.181C75.1618 145.181 75.6468 145.319 76.0733 145.593C76.4998 145.868 76.8343 146.264 77.0768 146.781C77.3222 147.298 77.4449 147.92 77.4449 148.648C77.4449 149.375 77.3237 149.999 77.0812 150.519C76.8387 151.036 76.5057 151.435 76.0821 151.715C75.6585 151.993 75.175 152.131 74.6316 152.131C74.2226 152.131 73.8881 152.063 73.6281 151.926C73.371 151.788 73.1694 151.628 73.0234 151.443C72.8773 151.259 72.7648 151.096 72.6859 150.953H72.6071V154.524H71.2968ZM72.5808 148.635C72.5808 149.108 72.6494 149.523 72.7867 149.879C72.924 150.235 73.1227 150.514 73.3827 150.716C73.6427 150.915 73.9611 151.014 74.338 151.014C74.7295 151.014 75.0567 150.91 75.3196 150.703C75.5825 150.493 75.7812 150.208 75.9155 149.848C76.0529 149.489 76.1215 149.084 76.1215 148.635C76.1215 148.191 76.0543 147.792 75.9199 147.438C75.7885 147.085 75.5898 146.806 75.324 146.601C75.061 146.397 74.7324 146.295 74.338 146.295C73.9582 146.295 73.6369 146.392 73.3739 146.588C73.1139 146.784 72.9167 147.057 72.7823 147.408C72.648 147.758 72.5808 148.167 72.5808 148.635Z" fill="url(#paint30_linear_482_80500)"/>
<path d="M78.9129 152V145.269H80.2232V152H78.9129ZM79.5746 144.231C79.3467 144.231 79.151 144.155 78.9874 144.003C78.8267 143.848 78.7464 143.664 78.7464 143.451C78.7464 143.234 78.8267 143.05 78.9874 142.898C79.151 142.744 79.3467 142.666 79.5746 142.666C79.8025 142.666 79.9967 142.744 80.1574 142.898C80.321 143.05 80.4028 143.234 80.4028 143.451C80.4028 143.664 80.321 143.848 80.1574 144.003C79.9967 144.155 79.8025 144.231 79.5746 144.231Z" fill="url(#paint31_linear_482_80500)"/>
<path d="M83.2961 148.004V152H81.9859V145.269H83.2435V146.365H83.3268C83.4816 146.008 83.7241 145.722 84.0542 145.506C84.3872 145.29 84.8065 145.181 85.3119 145.181C85.7705 145.181 86.1722 145.278 86.5169 145.471C86.8617 145.661 87.129 145.944 87.3189 146.321C87.5088 146.698 87.6037 147.164 87.6037 147.719V152H86.2935V147.876C86.2935 147.389 86.1664 147.007 85.9122 146.733C85.6581 146.455 85.3089 146.316 84.8649 146.316C84.5611 146.316 84.2908 146.382 84.0542 146.514C83.8205 146.645 83.635 146.838 83.4977 147.092C83.3633 147.343 83.2961 147.647 83.2961 148.004Z" fill="url(#paint32_linear_482_80500)"/>
<path d="M92.183 154.664C91.6484 154.664 91.1883 154.594 90.8026 154.454C90.4199 154.314 90.1074 154.128 89.8649 153.897C89.6224 153.667 89.4413 153.414 89.3215 153.139L90.4477 152.675C90.5266 152.803 90.6317 152.939 90.7632 153.082C90.8976 153.228 91.0787 153.353 91.3066 153.455C91.5374 153.557 91.8339 153.608 92.1962 153.608C92.6928 153.608 93.1032 153.487 93.4275 153.245C93.7518 153.005 93.9139 152.622 93.9139 152.096V150.773H93.8307C93.7518 150.916 93.6379 151.075 93.4889 151.251C93.3428 151.426 93.1412 151.578 92.8841 151.706C92.6271 151.835 92.2926 151.899 91.8806 151.899C91.3489 151.899 90.8698 151.775 90.4433 151.527C90.0197 151.276 89.6837 150.906 89.4354 150.418C89.19 149.927 89.0673 149.324 89.0673 148.608C89.0673 147.893 89.1886 147.279 89.431 146.768C89.6764 146.257 90.0124 145.865 90.4389 145.593C90.8655 145.319 91.3489 145.181 91.8894 145.181C92.3072 145.181 92.6446 145.252 92.9017 145.392C93.1588 145.529 93.3589 145.69 93.502 145.874C93.6481 146.058 93.7606 146.22 93.8394 146.36H93.9358V145.269H95.2198V152.149C95.2198 152.727 95.0854 153.202 94.8167 153.573C94.5479 153.944 94.1842 154.219 93.7255 154.397C93.2698 154.575 92.7556 154.664 92.183 154.664ZM92.1699 150.812C92.5467 150.812 92.8652 150.725 93.1252 150.55C93.3881 150.371 93.5867 150.117 93.7211 149.787C93.8584 149.454 93.9271 149.055 93.9271 148.591C93.9271 148.138 93.8599 147.739 93.7255 147.394C93.5911 147.05 93.3939 146.781 93.1339 146.588C92.8739 146.392 92.5526 146.295 92.1699 146.295C91.7755 146.295 91.4468 146.397 91.1839 146.601C90.921 146.803 90.7223 147.077 90.5879 147.425C90.4565 147.773 90.3907 148.161 90.3907 148.591C90.3907 149.032 90.4579 149.419 90.5923 149.752C90.7267 150.085 90.9253 150.345 91.1883 150.532C91.4541 150.719 91.7813 150.812 92.1699 150.812Z" fill="url(#paint33_linear_482_80500)"/>
<path d="M40.9858 218V209.025H44.2724C44.9093 209.025 45.4366 209.131 45.8543 209.341C46.2721 209.548 46.5847 209.83 46.7921 210.187C46.9995 210.54 47.1032 210.939 47.1032 211.383C47.1032 211.757 47.0346 212.072 46.8973 212.33C46.76 212.584 46.5759 212.788 46.3451 212.943C46.1173 213.095 45.866 213.206 45.5914 213.276V213.364C45.8894 213.378 46.1801 213.475 46.4634 213.653C46.7497 213.828 46.9864 214.078 47.1733 214.402C47.3603 214.727 47.4538 215.121 47.4538 215.585C47.4538 216.044 47.3457 216.456 47.1295 216.821C46.9163 217.183 46.5861 217.471 46.1392 217.685C45.6922 217.895 45.1211 218 44.4258 218H40.9858ZM42.3399 216.839H44.2943C44.9428 216.839 45.4074 216.713 45.6878 216.462C45.9683 216.211 46.1085 215.897 46.1085 215.52C46.1085 215.236 46.0369 214.976 45.8938 214.74C45.7506 214.503 45.5461 214.315 45.2803 214.174C45.0173 214.034 44.7048 213.964 44.3425 213.964H42.3399V216.839ZM42.3399 212.908H44.1541C44.4579 212.908 44.731 212.85 44.9735 212.733C45.2189 212.616 45.4132 212.452 45.5563 212.242C45.7024 212.029 45.7754 211.777 45.7754 211.488C45.7754 211.117 45.6454 210.806 45.3854 210.555C45.1254 210.304 44.7267 210.178 44.1891 210.178H42.3399V212.908Z" fill="url(#paint34_linear_482_80500)"/>
<path d="M53.2184 215.209V211.269H54.5331V218H53.2447V216.834H53.1746C53.0198 217.194 52.7715 217.493 52.4297 217.733C52.0908 217.969 51.6686 218.088 51.1632 218.088C50.7309 218.088 50.3482 217.993 50.0151 217.803C49.685 217.61 49.425 217.325 49.2351 216.948C49.0481 216.571 48.9547 216.105 48.9547 215.55V211.269H50.2649V215.393C50.2649 215.851 50.392 216.216 50.6462 216.488C50.9003 216.76 51.2304 216.896 51.6365 216.896C51.8819 216.896 52.1258 216.834 52.3683 216.712C52.6137 216.589 52.8168 216.403 52.9774 216.155C53.141 215.907 53.2214 215.591 53.2184 215.209Z" fill="url(#paint35_linear_482_80500)"/>
<path d="M56.2936 218V211.269H57.6038V218H56.2936ZM56.9553 210.231C56.7274 210.231 56.5317 210.155 56.3681 210.003C56.2074 209.848 56.1271 209.664 56.1271 209.451C56.1271 209.234 56.2074 209.05 56.3681 208.898C56.5317 208.744 56.7274 208.666 56.9553 208.666C57.1832 208.666 57.3774 208.744 57.5381 208.898C57.7017 209.05 57.7835 209.234 57.7835 209.451C57.7835 209.664 57.7017 209.848 57.5381 210.003C57.3774 210.155 57.1832 210.231 56.9553 210.231Z" fill="url(#paint36_linear_482_80500)"/>
<path d="M60.6768 209.025V218H59.3665V209.025H60.6768Z" fill="url(#paint37_linear_482_80500)"/>
<path d="M64.9592 218.131C64.4158 218.131 63.9309 217.993 63.5043 217.715C63.0807 217.435 62.7477 217.036 62.5052 216.519C62.2657 215.999 62.1459 215.375 62.1459 214.648C62.1459 213.92 62.2671 213.298 62.5096 212.781C62.755 212.264 63.091 211.868 63.5175 211.593C63.944 211.319 64.4275 211.181 64.968 211.181C65.3857 211.181 65.7217 211.252 65.9758 211.392C66.2329 211.529 66.4316 211.69 66.5718 211.874C66.715 212.058 66.826 212.22 66.9049 212.36H66.9837V209.025H68.294V218H67.0144V216.953H66.9049C66.826 217.096 66.712 217.259 66.563 217.443C66.417 217.628 66.2154 217.788 65.9583 217.926C65.7012 218.063 65.3682 218.131 64.9592 218.131ZM65.2484 217.014C65.6253 217.014 65.9437 216.915 66.2037 216.716C66.4666 216.514 66.6653 216.235 66.7997 215.879C66.937 215.523 67.0056 215.108 67.0056 214.635C67.0056 214.167 66.9384 213.758 66.8041 213.408C66.6697 213.057 66.4725 212.784 66.2125 212.588C65.9525 212.392 65.6311 212.295 65.2484 212.295C64.854 212.295 64.5254 212.397 64.2624 212.601C63.9995 212.806 63.8009 213.085 63.6665 213.438C63.535 213.792 63.4693 214.191 63.4693 214.635C63.4693 215.084 63.5365 215.489 63.6709 215.848C63.8052 216.208 64.0039 216.493 64.2668 216.703C64.5327 216.91 64.8599 217.014 65.2484 217.014Z" fill="url(#paint38_linear_482_80500)"/>
<path d="M70.164 218V211.269H71.4743V218H70.164ZM70.8257 210.231C70.5979 210.231 70.4021 210.155 70.2385 210.003C70.0779 209.848 69.9975 209.664 69.9975 209.451C69.9975 209.234 70.0779 209.05 70.2385 208.898C70.4021 208.744 70.5979 208.666 70.8257 208.666C71.0536 208.666 71.2479 208.744 71.4086 208.898C71.5722 209.05 71.654 209.234 71.654 209.451C71.654 209.664 71.5722 209.848 71.4086 210.003C71.2479 210.155 71.0536 210.231 70.8257 210.231Z" fill="url(#paint39_linear_482_80500)"/>
<path d="M74.5472 214.004V218H73.237V211.269H74.4946V212.365H74.5779C74.7327 212.008 74.9752 211.722 75.3053 211.506C75.6384 211.29 76.0576 211.181 76.563 211.181C77.0217 211.181 77.4234 211.278 77.7681 211.471C78.1128 211.661 78.3801 211.944 78.57 212.321C78.7599 212.698 78.8548 213.164 78.8548 213.719V218H77.5446V213.876C77.5446 213.389 77.4175 213.007 77.1633 212.733C76.9092 212.455 76.5601 212.316 76.116 212.316C75.8122 212.316 75.542 212.382 75.3053 212.514C75.0716 212.645 74.8861 212.838 74.7488 213.092C74.6144 213.343 74.5472 213.647 74.5472 214.004Z" fill="url(#paint40_linear_482_80500)"/>
<path d="M83.4341 220.664C82.8995 220.664 82.4394 220.594 82.0538 220.454C81.6711 220.314 81.3585 220.128 81.116 219.897C80.8735 219.667 80.6924 219.414 80.5726 219.139L81.6988 218.675C81.7777 218.803 81.8829 218.939 82.0143 219.082C82.1487 219.228 82.3298 219.353 82.5577 219.455C82.7885 219.557 83.085 219.608 83.4473 219.608C83.9439 219.608 84.3544 219.487 84.6787 219.245C85.0029 219.005 85.1651 218.622 85.1651 218.096V216.773H85.0818C85.0029 216.916 84.889 217.075 84.74 217.251C84.5939 217.426 84.3924 217.578 84.1353 217.706C83.8782 217.835 83.5437 217.899 83.1318 217.899C82.6001 217.899 82.121 217.775 81.6944 217.527C81.2708 217.276 80.9349 216.906 80.6866 216.418C80.4412 215.927 80.3185 215.324 80.3185 214.608C80.3185 213.893 80.4397 213.279 80.6822 212.768C80.9276 212.257 81.2635 211.865 81.6901 211.593C82.1166 211.319 82.6001 211.181 83.1405 211.181C83.5583 211.181 83.8957 211.252 84.1528 211.392C84.4099 211.529 84.61 211.69 84.7532 211.874C84.8992 212.058 85.0117 212.22 85.0906 212.36H85.187V211.269H86.4709V218.149C86.4709 218.727 86.3366 219.202 86.0678 219.573C85.799 219.944 85.4353 220.219 84.9766 220.397C84.5209 220.575 84.0067 220.664 83.4341 220.664ZM83.421 216.812C83.7979 216.812 84.1163 216.725 84.3763 216.55C84.6392 216.371 84.8379 216.117 84.9723 215.787C85.1096 215.454 85.1782 215.055 85.1782 214.591C85.1782 214.138 85.111 213.739 84.9766 213.394C84.8423 213.05 84.6451 212.781 84.3851 212.588C84.125 212.392 83.8037 212.295 83.421 212.295C83.0266 212.295 82.6979 212.397 82.435 212.601C82.1721 212.803 81.9734 213.077 81.8391 213.425C81.7076 213.773 81.6419 214.161 81.6419 214.591C81.6419 215.032 81.7091 215.419 81.8434 215.752C81.9778 216.085 82.1765 216.345 82.4394 216.532C82.7052 216.719 83.0324 216.812 83.421 216.812Z" fill="url(#paint41_linear_482_80500)"/>
<path d="M270.181 20V11.0255H273.38C274.079 11.0255 274.657 11.1526 275.116 11.4067C275.574 11.6609 275.918 12.0085 276.145 12.4497C276.373 12.8879 276.487 13.3816 276.487 13.9308C276.487 14.4829 276.372 14.9796 276.141 15.4207C275.913 15.8589 275.568 16.2066 275.107 16.4637C274.648 16.7178 274.071 16.8449 273.376 16.8449H271.176V15.6968H273.253C273.694 15.6968 274.052 15.6208 274.327 15.4689C274.602 15.3141 274.803 15.1037 274.932 14.8379C275.06 14.5721 275.124 14.2697 275.124 13.9308C275.124 13.5919 275.06 13.291 274.932 13.0281C274.803 12.7652 274.6 12.5592 274.323 12.4102C274.048 12.2612 273.686 12.1867 273.236 12.1867H271.536V20H270.181Z" fill="url(#paint42_linear_482_80500)"/>
<path d="M279.28 11.0255V20H277.97V11.0255H279.28Z" fill="url(#paint43_linear_482_80500)"/>
<path d="M283.001 20.149C282.575 20.149 282.189 20.0701 281.844 19.9124C281.5 19.7517 281.227 19.5194 281.025 19.2156C280.826 18.9118 280.727 18.5393 280.727 18.0982C280.727 17.7184 280.8 17.4058 280.946 17.1604C281.092 16.915 281.289 16.7207 281.538 16.5776C281.786 16.4344 282.064 16.3264 282.37 16.2533C282.677 16.1803 282.99 16.1248 283.308 16.0868C283.711 16.0401 284.038 16.0021 284.29 15.9729C284.541 15.9407 284.723 15.8896 284.837 15.8195C284.951 15.7494 285.008 15.6354 285.008 15.4777V15.447C285.008 15.0643 284.9 14.7678 284.684 14.5574C284.471 14.3471 284.152 14.2419 283.729 14.2419C283.288 14.2419 282.94 14.3398 282.686 14.5355C282.435 14.7283 282.261 14.9431 282.164 15.1797L280.933 14.8992C281.079 14.4903 281.292 14.1601 281.573 13.9089C281.856 13.6547 282.182 13.4707 282.55 13.3567C282.918 13.2399 283.305 13.1815 283.711 13.1815C283.98 13.1815 284.265 13.2136 284.566 13.2779C284.87 13.3392 285.153 13.4532 285.416 13.6197C285.682 13.7862 285.899 14.0243 286.069 14.334C286.238 14.6407 286.323 15.0395 286.323 15.5303V20H285.043V19.0798H284.991C284.906 19.2492 284.779 19.4157 284.61 19.5793C284.44 19.7429 284.222 19.8788 283.957 19.9869C283.691 20.095 283.372 20.149 283.001 20.149ZM283.286 19.0973C283.648 19.0973 283.958 19.0257 284.215 18.8826C284.475 18.7394 284.672 18.5525 284.807 18.3217C284.944 18.088 285.013 17.8382 285.013 17.5723V16.7047C284.966 16.7514 284.875 16.7952 284.741 16.8361C284.609 16.8741 284.459 16.9077 284.29 16.9369C284.12 16.9632 283.955 16.9881 283.794 17.0114C283.634 17.0319 283.499 17.0494 283.391 17.064C283.137 17.0961 282.905 17.1502 282.695 17.2261C282.487 17.3021 282.321 17.4117 282.195 17.5548C282.072 17.695 282.011 17.882 282.011 18.1157C282.011 18.44 282.131 18.6854 282.37 18.8519C282.61 19.0155 282.915 19.0973 283.286 19.0973Z" fill="url(#paint44_linear_482_80500)"/>
<path d="M288.655 22.5241C288.46 22.5241 288.281 22.508 288.121 22.4759C287.96 22.4467 287.84 22.4146 287.761 22.3795L288.077 21.3059C288.316 21.3702 288.53 21.3979 288.717 21.3891C288.904 21.3804 289.069 21.3103 289.212 21.1788C289.358 21.0473 289.486 20.8326 289.597 20.5346L289.76 20.0877L287.297 13.2691H288.699L290.404 18.4926H290.474L292.178 13.2691H293.585L290.811 20.8983C290.683 21.2489 290.519 21.5454 290.32 21.7879C290.122 22.0333 289.885 22.2174 289.611 22.3401C289.336 22.4628 289.018 22.5241 288.655 22.5241Z" fill="url(#paint45_linear_482_80500)"/>
<path d="M294.817 20V13.2691H296.127V20H294.817ZM295.478 12.2305C295.25 12.2305 295.055 12.1546 294.891 12.0027C294.73 11.8478 294.65 11.6638 294.65 11.4505C294.65 11.2344 294.73 11.0503 294.891 10.8984C295.055 10.7436 295.25 10.6661 295.478 10.6661C295.706 10.6661 295.9 10.7436 296.061 10.8984C296.225 11.0503 296.306 11.2344 296.306 11.4505C296.306 11.6638 296.225 11.8478 296.061 12.0027C295.9 12.1546 295.706 12.2305 295.478 12.2305Z" fill="url(#paint46_linear_482_80500)"/>
<path d="M299.2 16.0035V20H297.889V13.2691H299.147V14.3646H299.23C299.385 14.0082 299.628 13.7219 299.958 13.5057C300.291 13.2896 300.71 13.1815 301.215 13.1815C301.674 13.1815 302.076 13.2779 302.421 13.4707C302.765 13.6606 303.033 13.944 303.222 14.3208C303.412 14.6977 303.507 15.1636 303.507 15.7187V20H302.197V15.8765C302.197 15.3886 302.07 15.0073 301.816 14.7327C301.562 14.4552 301.213 14.3164 300.769 14.3164C300.465 14.3164 300.194 14.3822 299.958 14.5136C299.724 14.6451 299.539 14.8379 299.401 15.0921C299.267 15.3433 299.2 15.6471 299.2 16.0035Z" fill="url(#paint47_linear_482_80500)"/>
<path d="M308.087 22.6643C307.552 22.6643 307.092 22.5942 306.706 22.454C306.324 22.3138 306.011 22.1283 305.768 21.8975C305.526 21.6667 305.345 21.414 305.225 21.1394L306.351 20.6749C306.43 20.8034 306.535 20.9392 306.667 21.0824C306.801 21.2285 306.982 21.3526 307.21 21.4549C307.441 21.5571 307.738 21.6082 308.1 21.6082C308.596 21.6082 309.007 21.487 309.331 21.2445C309.655 21.005 309.818 20.6223 309.818 20.0964V18.773H309.734C309.655 18.9162 309.541 19.0754 309.392 19.2507C309.246 19.426 309.045 19.5779 308.788 19.7064C308.531 19.835 308.196 19.8992 307.784 19.8992C307.253 19.8992 306.773 19.7751 306.347 19.5267C305.923 19.2755 305.587 18.906 305.339 18.4181C305.094 17.9273 304.971 17.324 304.971 16.6083C304.971 15.8925 305.092 15.279 305.335 14.7678C305.58 14.2565 305.916 13.8651 306.343 13.5934C306.769 13.3188 307.253 13.1815 307.793 13.1815C308.211 13.1815 308.548 13.2516 308.805 13.3918C309.062 13.5291 309.262 13.6898 309.406 13.8738C309.552 14.0579 309.664 14.22 309.743 14.3603H309.839V13.2691H311.123V20.149C311.123 20.7274 310.989 21.2022 310.72 21.5732C310.452 21.9442 310.088 22.2188 309.629 22.397C309.173 22.5752 308.659 22.6643 308.087 22.6643ZM308.073 18.8125C308.45 18.8125 308.769 18.7248 309.029 18.5495C309.292 18.3713 309.49 18.1172 309.625 17.7871C309.762 17.454 309.831 17.0552 309.831 16.5907C309.831 16.1379 309.764 15.7392 309.629 15.3944C309.495 15.0497 309.298 14.7809 309.038 14.5881C308.778 14.3924 308.456 14.2945 308.073 14.2945C307.679 14.2945 307.35 14.3968 307.087 14.6013C306.825 14.8028 306.626 15.0775 306.492 15.4251C306.36 15.7727 306.294 16.1613 306.294 16.5907C306.294 17.0319 306.362 17.419 306.496 17.752C306.63 18.085 306.829 18.345 307.092 18.532C307.358 18.719 307.685 18.8125 308.073 18.8125Z" fill="url(#paint48_linear_482_80500)"/>
<path d="M259.131 86V77.0255H260.485V84.8344H264.552V86H259.131Z" fill="url(#paint49_linear_482_80500)"/>
<path d="M265.991 86V79.2691H267.301V86H265.991ZM266.653 78.2305C266.425 78.2305 266.229 78.1546 266.066 78.0027C265.905 77.8478 265.825 77.6638 265.825 77.4505C265.825 77.2343 265.905 77.0503 266.066 76.8984C266.229 76.7436 266.425 76.6661 266.653 76.6661C266.881 76.6661 267.075 76.7436 267.236 76.8984C267.399 77.0503 267.481 77.2343 267.481 77.4505C267.481 77.6638 267.399 77.8478 267.236 78.0027C267.075 78.1546 266.881 78.2305 266.653 78.2305Z" fill="url(#paint50_linear_482_80500)"/>
<path d="M274.108 80.9124L272.92 81.1227C272.871 80.9708 272.792 80.8262 272.684 80.6889C272.578 80.5516 272.435 80.4391 272.254 80.3515C272.073 80.2638 271.847 80.22 271.575 80.22C271.204 80.22 270.894 80.3033 270.646 80.4698C270.398 80.6334 270.273 80.8452 270.273 81.1052C270.273 81.3302 270.357 81.5113 270.523 81.6486C270.69 81.7859 270.959 81.8984 271.33 81.986L272.399 82.2314C273.018 82.3746 273.48 82.5951 273.784 82.8931C274.087 83.1911 274.239 83.5782 274.239 84.0544C274.239 84.4575 274.122 84.8168 273.889 85.1324C273.658 85.445 273.335 85.6903 272.92 85.8686C272.508 86.0468 272.031 86.1359 271.487 86.1359C270.734 86.1359 270.119 85.9752 269.642 85.6538C269.166 85.3296 268.874 84.8694 268.766 84.2735L270.032 84.0807C270.111 84.4108 270.273 84.6606 270.519 84.83C270.764 84.9965 271.084 85.0798 271.479 85.0798C271.908 85.0798 272.251 84.9907 272.508 84.8125C272.765 84.6313 272.894 84.4108 272.894 84.1508C272.894 83.9404 272.815 83.7637 272.657 83.6205C272.502 83.4774 272.264 83.3693 271.943 83.2963L270.804 83.0465C270.176 82.9033 269.711 82.6755 269.41 82.3629C269.112 82.0503 268.963 81.6544 268.963 81.1753C268.963 80.778 269.074 80.4304 269.296 80.1324C269.518 79.8344 269.825 79.6021 270.216 79.4356C270.608 79.2662 271.056 79.1815 271.562 79.1815C272.289 79.1815 272.862 79.3392 273.28 79.6547C273.697 79.9673 273.973 80.3865 274.108 80.9124Z" fill="url(#paint51_linear_482_80500)"/>
<path d="M278.822 79.2691V80.3208H275.145V79.2691H278.822ZM276.131 77.6565H277.441V84.0237C277.441 84.2778 277.479 84.4692 277.555 84.5977C277.631 84.7234 277.729 84.8095 277.849 84.8563C277.972 84.9001 278.105 84.922 278.248 84.922C278.353 84.922 278.445 84.9147 278.524 84.9001C278.603 84.8855 278.664 84.8738 278.708 84.8651L278.945 85.9474C278.869 85.9766 278.76 86.0059 278.62 86.0351C278.48 86.0672 278.305 86.0847 278.094 86.0877C277.75 86.0935 277.428 86.0322 277.13 85.9036C276.832 85.7751 276.591 85.5764 276.407 85.3076C276.223 85.0389 276.131 84.7015 276.131 84.2954V77.6565Z" fill="url(#paint52_linear_482_80500)"/>
<path d="M283.1 86.1359C282.437 86.1359 281.866 85.9942 281.386 85.7108C280.91 85.4245 280.542 85.0228 280.282 84.5057C280.025 83.9857 279.897 83.3766 279.897 82.6784C279.897 81.9889 280.025 81.3813 280.282 80.8554C280.542 80.3296 280.904 79.9191 281.369 79.6241C281.836 79.329 282.383 79.1815 283.008 79.1815C283.388 79.1815 283.756 79.2443 284.112 79.3699C284.469 79.4955 284.788 79.6927 285.072 79.9615C285.355 80.2302 285.579 80.5794 285.742 81.0088C285.906 81.4353 285.988 81.9539 285.988 82.5644V83.029H280.637V82.0474H284.704C284.704 81.7026 284.634 81.3973 284.493 81.1315C284.353 80.8627 284.156 80.6509 283.902 80.4961C283.651 80.3413 283.355 80.2638 283.017 80.2638C282.649 80.2638 282.327 80.3544 282.053 80.5355C281.781 80.7137 281.571 80.9475 281.422 81.2367C281.275 81.523 281.202 81.8341 281.202 82.1701V82.9369C281.202 83.3868 281.281 83.7695 281.439 84.085C281.6 84.4006 281.823 84.6416 282.11 84.8081C282.396 84.9717 282.73 85.0535 283.113 85.0535C283.361 85.0535 283.588 85.0184 283.792 84.9483C283.997 84.8753 284.173 84.7672 284.322 84.624C284.471 84.4809 284.585 84.3041 284.664 84.0938L285.904 84.3173C285.805 84.6825 285.627 85.0024 285.37 85.277C285.116 85.5487 284.796 85.7605 284.41 85.9124C284.027 86.0614 283.591 86.1359 283.1 86.1359Z" fill="url(#paint53_linear_482_80500)"/>
<path d="M288.752 82.0035V86H287.441V79.2691H288.699V80.3646H288.782C288.937 80.0082 289.18 79.7219 289.51 79.5057C289.843 79.2896 290.262 79.1815 290.767 79.1815C291.226 79.1815 291.628 79.2779 291.973 79.4707C292.317 79.6606 292.585 79.9439 292.774 80.3208C292.964 80.6977 293.059 81.1636 293.059 81.7187V86H291.749V81.8765C291.749 81.3886 291.622 81.0073 291.368 80.7327C291.114 80.4552 290.765 80.3164 290.32 80.3164C290.017 80.3164 289.746 80.3822 289.51 80.5136C289.276 80.6451 289.091 80.8379 288.953 81.0921C288.819 81.3433 288.752 81.6471 288.752 82.0035Z" fill="url(#paint54_linear_482_80500)"/>
<path d="M294.817 86V79.2691H296.127V86H294.817ZM295.478 78.2305C295.25 78.2305 295.055 78.1546 294.891 78.0027C294.73 77.8478 294.65 77.6638 294.65 77.4505C294.65 77.2343 294.73 77.0503 294.891 76.8984C295.055 76.7436 295.25 76.6661 295.478 76.6661C295.706 76.6661 295.9 76.7436 296.061 76.8984C296.225 77.0503 296.306 77.2343 296.306 77.4505C296.306 77.6638 296.225 77.8478 296.061 78.0027C295.9 78.1546 295.706 78.2305 295.478 78.2305Z" fill="url(#paint55_linear_482_80500)"/>
<path d="M299.2 82.0035V86H297.889V79.2691H299.147V80.3646H299.23C299.385 80.0082 299.628 79.7219 299.958 79.5057C300.291 79.2896 300.71 79.1815 301.215 79.1815C301.674 79.1815 302.076 79.2779 302.421 79.4707C302.765 79.6606 303.033 79.9439 303.222 80.3208C303.412 80.6977 303.507 81.1636 303.507 81.7187V86H302.197V81.8765C302.197 81.3886 302.07 81.0073 301.816 80.7327C301.562 80.4552 301.213 80.3164 300.768 80.3164C300.465 80.3164 300.194 80.3822 299.958 80.5136C299.724 80.6451 299.539 80.8379 299.401 81.0921C299.267 81.3433 299.2 81.6471 299.2 82.0035Z" fill="url(#paint56_linear_482_80500)"/>
<path d="M308.087 88.6643C307.552 88.6643 307.092 88.5942 306.706 88.454C306.324 88.3138 306.011 88.1283 305.768 87.8975C305.526 87.6667 305.345 87.414 305.225 87.1394L306.351 86.6749C306.43 86.8034 306.535 86.9392 306.667 87.0824C306.801 87.2285 306.982 87.3526 307.21 87.4549C307.441 87.5571 307.738 87.6082 308.1 87.6082C308.596 87.6082 309.007 87.487 309.331 87.2445C309.655 87.005 309.818 86.6223 309.818 86.0964V84.773H309.734C309.655 84.9162 309.541 85.0754 309.392 85.2507C309.246 85.426 309.045 85.5779 308.788 85.7064C308.531 85.835 308.196 85.8992 307.784 85.8992C307.253 85.8992 306.773 85.7751 306.347 85.5267C305.923 85.2755 305.587 84.906 305.339 84.4181C305.094 83.9273 304.971 83.324 304.971 82.6083C304.971 81.8925 305.092 81.279 305.335 80.7678C305.58 80.2565 305.916 79.8651 306.343 79.5934C306.769 79.3188 307.253 79.1815 307.793 79.1815C308.211 79.1815 308.548 79.2516 308.805 79.3918C309.062 79.5291 309.262 79.6898 309.406 79.8738C309.552 80.0579 309.664 80.22 309.743 80.3603H309.839V79.2691H311.123V86.149C311.123 86.7274 310.989 87.2022 310.72 87.5732C310.452 87.9442 310.088 88.2188 309.629 88.397C309.173 88.5752 308.659 88.6643 308.087 88.6643ZM308.073 84.8125C308.45 84.8125 308.769 84.7248 309.029 84.5495C309.292 84.3713 309.49 84.1172 309.625 83.7871C309.762 83.454 309.831 83.0552 309.831 82.5907C309.831 82.1379 309.764 81.7392 309.629 81.3944C309.495 81.0497 309.298 80.7809 309.038 80.5881C308.778 80.3924 308.456 80.2945 308.073 80.2945C307.679 80.2945 307.35 80.3968 307.087 80.6013C306.825 80.8028 306.626 81.0775 306.492 81.4251C306.36 81.7728 306.294 82.1613 306.294 82.5907C306.294 83.0319 306.362 83.419 306.496 83.752C306.63 84.085 306.829 84.345 307.092 84.532C307.358 84.719 307.685 84.8125 308.073 84.8125Z" fill="url(#paint57_linear_482_80500)"/>
<path d="M266.831 152V143.025H272.397V144.191H268.185V146.926H271.998V148.087H268.185V152H266.831Z" fill="url(#paint58_linear_482_80500)"/>
<path d="M275.891 152.149C275.465 152.149 275.079 152.07 274.734 151.912C274.39 151.752 274.117 151.519 273.915 151.216C273.716 150.912 273.617 150.539 273.617 150.098C273.617 149.718 273.69 149.406 273.836 149.16C273.982 148.915 274.179 148.721 274.428 148.578C274.676 148.434 274.954 148.326 275.26 148.253C275.567 148.18 275.88 148.125 276.198 148.087C276.601 148.04 276.928 148.002 277.18 147.973C277.431 147.941 277.613 147.89 277.727 147.819C277.841 147.749 277.898 147.635 277.898 147.478V147.447C277.898 147.064 277.79 146.768 277.574 146.557C277.361 146.347 277.042 146.242 276.619 146.242C276.178 146.242 275.83 146.34 275.576 146.536C275.325 146.728 275.151 146.943 275.054 147.18L273.823 146.899C273.969 146.49 274.182 146.16 274.463 145.909C274.746 145.655 275.072 145.471 275.44 145.357C275.808 145.24 276.195 145.181 276.601 145.181C276.87 145.181 277.155 145.214 277.456 145.278C277.76 145.339 278.043 145.453 278.306 145.62C278.572 145.786 278.789 146.024 278.959 146.334C279.128 146.641 279.213 147.039 279.213 147.53V152H277.933V151.08H277.881C277.796 151.249 277.669 151.416 277.5 151.579C277.33 151.743 277.112 151.879 276.847 151.987C276.581 152.095 276.262 152.149 275.891 152.149ZM276.176 151.097C276.538 151.097 276.848 151.026 277.105 150.883C277.365 150.739 277.562 150.552 277.697 150.322C277.834 150.088 277.903 149.838 277.903 149.572V148.705C277.856 148.751 277.765 148.795 277.631 148.836C277.5 148.874 277.349 148.908 277.18 148.937C277.01 148.963 276.845 148.988 276.684 149.011C276.524 149.032 276.389 149.049 276.281 149.064C276.027 149.096 275.795 149.15 275.585 149.226C275.377 149.302 275.211 149.412 275.085 149.555C274.962 149.695 274.901 149.882 274.901 150.116C274.901 150.44 275.021 150.685 275.26 150.852C275.5 151.016 275.805 151.097 276.176 151.097Z" fill="url(#paint59_linear_482_80500)"/>
<path d="M286.002 146.912L284.814 147.123C284.765 146.971 284.686 146.826 284.578 146.689C284.473 146.552 284.329 146.439 284.148 146.351C283.967 146.264 283.741 146.22 283.469 146.22C283.098 146.22 282.788 146.303 282.54 146.47C282.292 146.633 282.168 146.845 282.168 147.105C282.168 147.33 282.251 147.511 282.417 147.649C282.584 147.786 282.853 147.898 283.224 147.986L284.293 148.231C284.912 148.375 285.374 148.595 285.678 148.893C285.981 149.191 286.133 149.578 286.133 150.054C286.133 150.458 286.017 150.817 285.783 151.132C285.552 151.445 285.229 151.69 284.814 151.869C284.402 152.047 283.925 152.136 283.381 152.136C282.628 152.136 282.013 151.975 281.537 151.654C281.06 151.33 280.768 150.869 280.66 150.273L281.927 150.081C282.005 150.411 282.168 150.661 282.413 150.83C282.658 150.997 282.978 151.08 283.373 151.08C283.802 151.08 284.145 150.991 284.402 150.812C284.66 150.631 284.788 150.411 284.788 150.151C284.788 149.94 284.709 149.764 284.551 149.621C284.397 149.477 284.159 149.369 283.837 149.296L282.698 149.046C282.07 148.903 281.605 148.675 281.304 148.363C281.006 148.05 280.857 147.654 280.857 147.175C280.857 146.778 280.968 146.43 281.19 146.132C281.412 145.834 281.719 145.602 282.111 145.436C282.502 145.266 282.951 145.181 283.456 145.181C284.183 145.181 284.756 145.339 285.174 145.655C285.591 145.967 285.868 146.387 286.002 146.912Z" fill="url(#paint60_linear_482_80500)"/>
<path d="M288.884 148.004V152H287.574V143.025H288.867V146.365H288.95C289.108 146.002 289.349 145.715 289.673 145.501C289.997 145.288 290.421 145.181 290.944 145.181C291.405 145.181 291.809 145.276 292.153 145.466C292.501 145.656 292.77 145.94 292.96 146.316C293.152 146.69 293.249 147.158 293.249 147.719V152H291.939V147.876C291.939 147.383 291.811 147 291.557 146.728C291.303 146.454 290.95 146.316 290.497 146.316C290.187 146.316 289.91 146.382 289.664 146.514C289.422 146.645 289.23 146.838 289.09 147.092C288.953 147.343 288.884 147.647 288.884 148.004Z" fill="url(#paint61_linear_482_80500)"/>
<path d="M294.997 152V145.269H296.308V152H294.997ZM295.659 144.231C295.431 144.231 295.235 144.155 295.072 144.003C294.911 143.848 294.831 143.664 294.831 143.451C294.831 143.234 294.911 143.05 295.072 142.898C295.235 142.744 295.431 142.666 295.659 142.666C295.887 142.666 296.081 142.744 296.242 142.898C296.405 143.05 296.487 143.234 296.487 143.451C296.487 143.664 296.405 143.848 296.242 144.003C296.081 144.155 295.887 144.231 295.659 144.231Z" fill="url(#paint62_linear_482_80500)"/>
<path d="M300.905 152.136C300.274 152.136 299.724 151.991 299.253 151.702C298.783 151.413 298.418 151.008 298.158 150.488C297.898 149.968 297.768 149.361 297.768 148.665C297.768 147.967 297.898 147.356 298.158 146.834C298.418 146.311 298.783 145.905 299.253 145.615C299.724 145.326 300.274 145.181 300.905 145.181C301.536 145.181 302.087 145.326 302.557 145.615C303.028 145.905 303.393 146.311 303.653 146.834C303.913 147.356 304.043 147.967 304.043 148.665C304.043 149.361 303.913 149.968 303.653 150.488C303.393 151.008 303.028 151.413 302.557 151.702C302.087 151.991 301.536 152.136 300.905 152.136ZM300.91 151.036C301.319 151.036 301.658 150.928 301.926 150.712C302.195 150.495 302.394 150.208 302.522 149.848C302.654 149.489 302.72 149.093 302.72 148.661C302.72 148.231 302.654 147.837 302.522 147.478C302.394 147.115 302.195 146.825 301.926 146.606C301.658 146.387 301.319 146.277 300.91 146.277C300.498 146.277 300.156 146.387 299.884 146.606C299.616 146.825 299.416 147.115 299.284 147.478C299.156 147.837 299.091 148.231 299.091 148.661C299.091 149.093 299.156 149.489 299.284 149.848C299.416 150.208 299.616 150.495 299.884 150.712C300.156 150.928 300.498 151.036 300.91 151.036Z" fill="url(#paint63_linear_482_80500)"/>
<path d="M306.816 148.004V152H305.506V145.269H306.763V146.365H306.846C307.001 146.008 307.244 145.722 307.574 145.506C307.907 145.29 308.326 145.181 308.832 145.181C309.29 145.181 309.692 145.278 310.037 145.471C310.381 145.661 310.649 145.944 310.839 146.321C311.028 146.698 311.123 147.164 311.123 147.719V152H309.813V147.876C309.813 147.389 309.686 147.007 309.432 146.733C309.178 146.455 308.829 146.316 308.385 146.316C308.081 146.316 307.811 146.382 307.574 146.514C307.34 146.645 307.155 146.838 307.017 147.092C306.883 147.343 306.816 147.647 306.816 148.004Z" fill="url(#paint64_linear_482_80500)"/>
<path d="M269.947 211.944H268.58C268.527 211.652 268.429 211.395 268.286 211.173C268.143 210.951 267.968 210.762 267.76 210.607C267.553 210.453 267.321 210.336 267.064 210.257C266.809 210.178 266.539 210.139 266.253 210.139C265.736 210.139 265.273 210.269 264.864 210.529C264.458 210.789 264.136 211.17 263.9 211.672C263.666 212.175 263.549 212.788 263.549 213.513C263.549 214.243 263.666 214.859 263.9 215.362C264.136 215.864 264.459 216.244 264.868 216.501C265.277 216.758 265.737 216.887 266.248 216.887C266.532 216.887 266.801 216.849 267.055 216.773C267.312 216.694 267.544 216.579 267.752 216.427C267.959 216.275 268.134 216.089 268.277 215.87C268.423 215.648 268.524 215.394 268.58 215.108L269.947 215.112C269.874 215.553 269.732 215.959 269.522 216.33C269.315 216.699 269.047 217.017 268.72 217.286C268.396 217.552 268.025 217.758 267.607 217.904C267.189 218.05 266.733 218.123 266.24 218.123C265.463 218.123 264.77 217.939 264.163 217.571C263.555 217.2 263.076 216.669 262.725 215.98C262.378 215.29 262.204 214.468 262.204 213.513C262.204 212.555 262.379 211.732 262.73 211.046C263.08 210.356 263.559 209.827 264.167 209.459C264.775 209.088 265.466 208.903 266.24 208.903C266.716 208.903 267.16 208.971 267.572 209.109C267.987 209.243 268.359 209.442 268.689 209.705C269.019 209.965 269.293 210.283 269.509 210.66C269.725 211.034 269.871 211.462 269.947 211.944Z" fill="url(#paint65_linear_482_80500)"/>
<path d="M271.462 218V211.269H272.729V212.338H272.799C272.921 211.976 273.138 211.691 273.447 211.484C273.76 211.273 274.113 211.168 274.508 211.168C274.589 211.168 274.686 211.171 274.797 211.177C274.911 211.183 275 211.19 275.064 211.199V212.452C275.012 212.438 274.918 212.422 274.784 212.404C274.649 212.384 274.515 212.373 274.381 212.373C274.071 212.373 273.795 212.439 273.552 212.571C273.313 212.699 273.123 212.879 272.983 213.11C272.842 213.337 272.772 213.597 272.772 213.89V218H271.462Z" fill="url(#paint66_linear_482_80500)"/>
<path d="M278.858 218.136C278.195 218.136 277.624 217.994 277.145 217.711C276.668 217.424 276.3 217.023 276.04 216.506C275.783 215.986 275.655 215.377 275.655 214.678C275.655 213.989 275.783 213.381 276.04 212.855C276.3 212.33 276.663 211.919 277.127 211.624C277.594 211.329 278.141 211.181 278.766 211.181C279.146 211.181 279.514 211.244 279.87 211.37C280.227 211.496 280.547 211.693 280.83 211.961C281.113 212.23 281.337 212.579 281.5 213.009C281.664 213.435 281.746 213.954 281.746 214.564V215.029H276.395V214.047H280.462C280.462 213.703 280.392 213.397 280.252 213.132C280.111 212.863 279.914 212.651 279.66 212.496C279.409 212.341 279.114 212.264 278.775 212.264C278.407 212.264 278.085 212.354 277.811 212.536C277.539 212.714 277.329 212.947 277.18 213.237C277.034 213.523 276.961 213.834 276.961 214.17V214.937C276.961 215.387 277.039 215.77 277.197 216.085C277.358 216.401 277.581 216.642 277.868 216.808C278.154 216.972 278.488 217.053 278.871 217.053C279.119 217.053 279.346 217.018 279.55 216.948C279.755 216.875 279.932 216.767 280.081 216.624C280.23 216.481 280.344 216.304 280.422 216.094L281.663 216.317C281.563 216.682 281.385 217.002 281.128 217.277C280.874 217.549 280.554 217.76 280.168 217.912C279.786 218.061 279.349 218.136 278.858 218.136Z" fill="url(#paint67_linear_482_80500)"/>
<path d="M285.158 218.149C284.732 218.149 284.346 218.07 284.001 217.912C283.657 217.752 283.384 217.519 283.182 217.216C282.983 216.912 282.884 216.539 282.884 216.098C282.884 215.718 282.957 215.406 283.103 215.16C283.249 214.915 283.446 214.721 283.695 214.578C283.943 214.434 284.221 214.326 284.527 214.253C284.834 214.18 285.147 214.125 285.465 214.087C285.868 214.04 286.195 214.002 286.447 213.973C286.698 213.941 286.881 213.89 286.994 213.819C287.108 213.749 287.165 213.635 287.165 213.478V213.447C287.165 213.064 287.057 212.768 286.841 212.557C286.628 212.347 286.309 212.242 285.886 212.242C285.445 212.242 285.097 212.34 284.843 212.536C284.592 212.728 284.418 212.943 284.321 213.18L283.09 212.899C283.236 212.49 283.449 212.16 283.73 211.909C284.013 211.655 284.339 211.471 284.707 211.357C285.075 211.24 285.462 211.181 285.868 211.181C286.137 211.181 286.422 211.214 286.723 211.278C287.027 211.339 287.31 211.453 287.573 211.62C287.839 211.786 288.056 212.024 288.226 212.334C288.395 212.641 288.48 213.039 288.48 213.53V218H287.2V217.08H287.148C287.063 217.249 286.936 217.416 286.767 217.579C286.597 217.743 286.38 217.879 286.114 217.987C285.848 218.095 285.529 218.149 285.158 218.149ZM285.443 217.097C285.805 217.097 286.115 217.026 286.372 216.883C286.632 216.739 286.829 216.552 286.964 216.322C287.101 216.088 287.17 215.838 287.17 215.572V214.705C287.123 214.751 287.032 214.795 286.898 214.836C286.767 214.874 286.616 214.908 286.447 214.937C286.277 214.963 286.112 214.988 285.952 215.011C285.791 215.032 285.656 215.049 285.548 215.064C285.294 215.096 285.062 215.15 284.852 215.226C284.644 215.302 284.478 215.412 284.352 215.555C284.229 215.695 284.168 215.882 284.168 216.116C284.168 216.44 284.288 216.685 284.527 216.852C284.767 217.016 285.072 217.097 285.443 217.097Z" fill="url(#paint68_linear_482_80500)"/>
<path d="M293.367 211.269V212.321H289.691V211.269H293.367ZM290.677 209.656H291.987V216.024C291.987 216.278 292.025 216.469 292.101 216.598C292.177 216.723 292.275 216.81 292.394 216.856C292.517 216.9 292.65 216.922 292.793 216.922C292.898 216.922 292.99 216.915 293.069 216.9C293.148 216.885 293.209 216.874 293.253 216.865L293.49 217.947C293.414 217.977 293.306 218.006 293.166 218.035C293.025 218.067 292.85 218.085 292.64 218.088C292.295 218.094 291.974 218.032 291.676 217.904C291.378 217.775 291.137 217.576 290.953 217.308C290.769 217.039 290.677 216.701 290.677 216.295V209.656Z" fill="url(#paint69_linear_482_80500)"/>
<path d="M294.817 218V211.269H296.127V218H294.817ZM295.478 210.231C295.25 210.231 295.055 210.155 294.891 210.003C294.73 209.848 294.65 209.664 294.65 209.451C294.65 209.234 294.73 209.05 294.891 208.898C295.055 208.744 295.25 208.666 295.478 208.666C295.706 208.666 295.9 208.744 296.061 208.898C296.225 209.05 296.306 209.234 296.306 209.451C296.306 209.664 296.225 209.848 296.061 210.003C295.9 210.155 295.706 210.231 295.478 210.231Z" fill="url(#paint70_linear_482_80500)"/>
<path d="M299.2 214.004V218H297.889V211.269H299.147V212.365H299.23C299.385 212.008 299.628 211.722 299.958 211.506C300.291 211.29 300.71 211.181 301.215 211.181C301.674 211.181 302.076 211.278 302.421 211.471C302.765 211.661 303.033 211.944 303.222 212.321C303.412 212.698 303.507 213.164 303.507 213.719V218H302.197V213.876C302.197 213.389 302.07 213.007 301.816 212.733C301.562 212.455 301.213 212.316 300.768 212.316C300.465 212.316 300.194 212.382 299.958 212.514C299.724 212.645 299.539 212.838 299.401 213.092C299.267 213.343 299.2 213.647 299.2 214.004Z" fill="url(#paint71_linear_482_80500)"/>
<path d="M308.087 220.664C307.552 220.664 307.092 220.594 306.706 220.454C306.324 220.314 306.011 220.128 305.768 219.897C305.526 219.667 305.345 219.414 305.225 219.139L306.351 218.675C306.43 218.803 306.535 218.939 306.667 219.082C306.801 219.228 306.982 219.353 307.21 219.455C307.441 219.557 307.738 219.608 308.1 219.608C308.596 219.608 309.007 219.487 309.331 219.245C309.655 219.005 309.818 218.622 309.818 218.096V216.773H309.734C309.655 216.916 309.541 217.075 309.392 217.251C309.246 217.426 309.045 217.578 308.788 217.706C308.531 217.835 308.196 217.899 307.784 217.899C307.253 217.899 306.773 217.775 306.347 217.527C305.923 217.276 305.587 216.906 305.339 216.418C305.094 215.927 304.971 215.324 304.971 214.608C304.971 213.893 305.092 213.279 305.335 212.768C305.58 212.257 305.916 211.865 306.343 211.593C306.769 211.319 307.253 211.181 307.793 211.181C308.211 211.181 308.548 211.252 308.805 211.392C309.062 211.529 309.262 211.69 309.406 211.874C309.552 212.058 309.664 212.22 309.743 212.36H309.839V211.269H311.123V218.149C311.123 218.727 310.989 219.202 310.72 219.573C310.452 219.944 310.088 220.219 309.629 220.397C309.173 220.575 308.659 220.664 308.087 220.664ZM308.073 216.812C308.45 216.812 308.769 216.725 309.029 216.55C309.292 216.371 309.49 216.117 309.625 215.787C309.762 215.454 309.831 215.055 309.831 214.591C309.831 214.138 309.764 213.739 309.629 213.394C309.495 213.05 309.298 212.781 309.038 212.588C308.778 212.392 308.456 212.295 308.073 212.295C307.679 212.295 307.35 212.397 307.087 212.601C306.825 212.803 306.626 213.077 306.492 213.425C306.36 213.773 306.294 214.161 306.294 214.591C306.294 215.032 306.362 215.419 306.496 215.752C306.63 216.085 306.829 216.345 307.092 216.532C307.358 216.719 307.685 216.812 308.073 216.812Z" fill="url(#paint72_linear_482_80500)"/>
<defs>
<linearGradient id="paint0_linear_482_80500" x1="154.667" y1="93.6667" x2="197.333" y2="136.333" gradientUnits="userSpaceOnUse">
<stop stop-color="#06A9EF"/>
<stop offset="0.333333" stop-color="#6E0CDF"/>
<stop offset="0.666667" stop-color="#E50657"/>
<stop offset="1" stop-color="#FA9D4C"/>
</linearGradient>
<linearGradient id="paint1_linear_482_80500" x1="1.3335" y1="4" x2="202.893" y2="320.397" gradientUnits="userSpaceOnUse">
<stop stop-color="#06A9EF"/>
<stop offset="0.333333" stop-color="#6E0CDF"/>
<stop offset="0.666667" stop-color="#E50657"/>
<stop offset="1" stop-color="#FA9D4C"/>
</linearGradient>
<linearGradient id="paint2_linear_482_80500" x1="1.3335" y1="4" x2="202.893" y2="320.397" gradientUnits="userSpaceOnUse">
<stop stop-color="#06A9EF"/>
<stop offset="0.333333" stop-color="#6E0CDF"/>
<stop offset="0.666667" stop-color="#E50657"/>
<stop offset="1" stop-color="#FA9D4C"/>
</linearGradient>
<linearGradient id="paint3_linear_482_80500" x1="1.3335" y1="4" x2="202.893" y2="320.397" gradientUnits="userSpaceOnUse">
<stop stop-color="#06A9EF"/>
<stop offset="0.333333" stop-color="#6E0CDF"/>
<stop offset="0.666667" stop-color="#E50657"/>
<stop offset="1" stop-color="#FA9D4C"/>
</linearGradient>
<linearGradient id="paint4_linear_482_80500" x1="1.3335" y1="4" x2="202.893" y2="320.397" gradientUnits="userSpaceOnUse">
<stop stop-color="#06A9EF"/>
<stop offset="0.333333" stop-color="#6E0CDF"/>
<stop offset="0.666667" stop-color="#E50657"/>
<stop offset="1" stop-color="#FA9D4C"/>
</linearGradient>
<linearGradient id="paint5_linear_482_80500" x1="1.3335" y1="4" x2="202.893" y2="320.397" gradientUnits="userSpaceOnUse">
<stop stop-color="#06A9EF"/>
<stop offset="0.333333" stop-color="#6E0CDF"/>
<stop offset="0.666667" stop-color="#E50657"/>
<stop offset="1" stop-color="#FA9D4C"/>
</linearGradient>
<linearGradient id="paint6_linear_482_80500" x1="1.3335" y1="4" x2="202.893" y2="320.397" gradientUnits="userSpaceOnUse">
<stop stop-color="#06A9EF"/>
<stop offset="0.333333" stop-color="#6E0CDF"/>
<stop offset="0.666667" stop-color="#E50657"/>
<stop offset="1" stop-color="#FA9D4C"/>
</linearGradient>
<linearGradient id="paint7_linear_482_80500" x1="1.3335" y1="4" x2="202.893" y2="320.397" gradientUnits="userSpaceOnUse">
<stop stop-color="#06A9EF"/>
<stop offset="0.333333" stop-color="#6E0CDF"/>
<stop offset="0.666667" stop-color="#E50657"/>
<stop offset="1" stop-color="#FA9D4C"/>
</linearGradient>
<linearGradient id="paint8_linear_482_80500" x1="1.3335" y1="4" x2="202.893" y2="320.397" gradientUnits="userSpaceOnUse">
<stop stop-color="#06A9EF"/>
<stop offset="0.333333" stop-color="#6E0CDF"/>
<stop offset="0.666667" stop-color="#E50657"/>
<stop offset="1" stop-color="#FA9D4C"/>
</linearGradient>
<linearGradient id="paint9_linear_482_80500" x1="40.6309" y1="10.6661" x2="244.076" y2="272.717" gradientUnits="userSpaceOnUse">
<stop stop-color="#06A9EF"/>
<stop offset="0.333333" stop-color="#6E0CDF"/>
<stop offset="0.666667" stop-color="#E50657"/>
<stop offset="1" stop-color="#FA9D4C"/>
</linearGradient>
<linearGradient id="paint10_linear_482_80500" x1="40.6309" y1="10.6661" x2="244.076" y2="272.717" gradientUnits="userSpaceOnUse">
<stop stop-color="#06A9EF"/>
<stop offset="0.333333" stop-color="#6E0CDF"/>
<stop offset="0.666667" stop-color="#E50657"/>
<stop offset="1" stop-color="#FA9D4C"/>
</linearGradient>
<linearGradient id="paint11_linear_482_80500" x1="40.6309" y1="10.6661" x2="244.076" y2="272.717" gradientUnits="userSpaceOnUse">
<stop stop-color="#06A9EF"/>
<stop offset="0.333333" stop-color="#6E0CDF"/>
<stop offset="0.666667" stop-color="#E50657"/>
<stop offset="1" stop-color="#FA9D4C"/>
</linearGradient>
<linearGradient id="paint12_linear_482_80500" x1="40.6309" y1="10.6661" x2="244.076" y2="272.717" gradientUnits="userSpaceOnUse">
<stop stop-color="#06A9EF"/>
<stop offset="0.333333" stop-color="#6E0CDF"/>
<stop offset="0.666667" stop-color="#E50657"/>
<stop offset="1" stop-color="#FA9D4C"/>
</linearGradient>
<linearGradient id="paint13_linear_482_80500" x1="40.6309" y1="10.6661" x2="244.076" y2="272.717" gradientUnits="userSpaceOnUse">
<stop stop-color="#06A9EF"/>
<stop offset="0.333333" stop-color="#6E0CDF"/>
<stop offset="0.666667" stop-color="#E50657"/>
<stop offset="1" stop-color="#FA9D4C"/>
</linearGradient>
<linearGradient id="paint14_linear_482_80500" x1="40.6309" y1="10.6661" x2="244.076" y2="272.717" gradientUnits="userSpaceOnUse">
<stop stop-color="#06A9EF"/>
<stop offset="0.333333" stop-color="#6E0CDF"/>
<stop offset="0.666667" stop-color="#E50657"/>
<stop offset="1" stop-color="#FA9D4C"/>
</linearGradient>
<linearGradient id="paint15_linear_482_80500" x1="40.6309" y1="10.6661" x2="244.076" y2="272.717" gradientUnits="userSpaceOnUse">
<stop stop-color="#06A9EF"/>
<stop offset="0.333333" stop-color="#6E0CDF"/>
<stop offset="0.666667" stop-color="#E50657"/>
<stop offset="1" stop-color="#FA9D4C"/>
</linearGradient>
<linearGradient id="paint16_linear_482_80500" x1="40.6309" y1="10.6661" x2="244.076" y2="272.717" gradientUnits="userSpaceOnUse">
<stop stop-color="#06A9EF"/>
<stop offset="0.333333" stop-color="#6E0CDF"/>
<stop offset="0.666667" stop-color="#E50657"/>
<stop offset="1" stop-color="#FA9D4C"/>
</linearGradient>
<linearGradient id="paint17_linear_482_80500" x1="40.6309" y1="10.6661" x2="244.076" y2="272.717" gradientUnits="userSpaceOnUse">
<stop stop-color="#06A9EF"/>
<stop offset="0.333333" stop-color="#6E0CDF"/>
<stop offset="0.666667" stop-color="#E50657"/>
<stop offset="1" stop-color="#FA9D4C"/>
</linearGradient>
<linearGradient id="paint18_linear_482_80500" x1="40.6309" y1="10.6661" x2="244.076" y2="272.717" gradientUnits="userSpaceOnUse">
<stop stop-color="#06A9EF"/>
<stop offset="0.333333" stop-color="#6E0CDF"/>
<stop offset="0.666667" stop-color="#E50657"/>
<stop offset="1" stop-color="#FA9D4C"/>
</linearGradient>
<linearGradient id="paint19_linear_482_80500" x1="40.6309" y1="10.6661" x2="244.076" y2="272.717" gradientUnits="userSpaceOnUse">
<stop stop-color="#06A9EF"/>
<stop offset="0.333333" stop-color="#6E0CDF"/>
<stop offset="0.666667" stop-color="#E50657"/>
<stop offset="1" stop-color="#FA9D4C"/>
</linearGradient>
<linearGradient id="paint20_linear_482_80500" x1="40.6309" y1="10.6661" x2="244.076" y2="272.717" gradientUnits="userSpaceOnUse">
<stop stop-color="#06A9EF"/>
<stop offset="0.333333" stop-color="#6E0CDF"/>
<stop offset="0.666667" stop-color="#E50657"/>
<stop offset="1" stop-color="#FA9D4C"/>
</linearGradient>
<linearGradient id="paint21_linear_482_80500" x1="40.6309" y1="10.6661" x2="244.076" y2="272.717" gradientUnits="userSpaceOnUse">
<stop stop-color="#06A9EF"/>
<stop offset="0.333333" stop-color="#6E0CDF"/>
<stop offset="0.666667" stop-color="#E50657"/>
<stop offset="1" stop-color="#FA9D4C"/>
</linearGradient>
<linearGradient id="paint22_linear_482_80500" x1="40.6309" y1="10.6661" x2="244.076" y2="272.717" gradientUnits="userSpaceOnUse">
<stop stop-color="#06A9EF"/>
<stop offset="0.333333" stop-color="#6E0CDF"/>
<stop offset="0.666667" stop-color="#E50657"/>
<stop offset="1" stop-color="#FA9D4C"/>
</linearGradient>
<linearGradient id="paint23_linear_482_80500" x1="40.6309" y1="10.6661" x2="244.076" y2="272.717" gradientUnits="userSpaceOnUse">
<stop stop-color="#06A9EF"/>
<stop offset="0.333333" stop-color="#6E0CDF"/>
<stop offset="0.666667" stop-color="#E50657"/>
<stop offset="1" stop-color="#FA9D4C"/>
</linearGradient>
<linearGradient id="paint24_linear_482_80500" x1="40.6309" y1="10.6661" x2="244.076" y2="272.717" gradientUnits="userSpaceOnUse">
<stop stop-color="#06A9EF"/>
<stop offset="0.333333" stop-color="#6E0CDF"/>
<stop offset="0.666667" stop-color="#E50657"/>
<stop offset="1" stop-color="#FA9D4C"/>
</linearGradient>
<linearGradient id="paint25_linear_482_80500" x1="40.6309" y1="10.6661" x2="244.076" y2="272.717" gradientUnits="userSpaceOnUse">
<stop stop-color="#06A9EF"/>
<stop offset="0.333333" stop-color="#6E0CDF"/>
<stop offset="0.666667" stop-color="#E50657"/>
<stop offset="1" stop-color="#FA9D4C"/>
</linearGradient>
<linearGradient id="paint26_linear_482_80500" x1="40.6309" y1="10.6661" x2="244.076" y2="272.717" gradientUnits="userSpaceOnUse">
<stop stop-color="#06A9EF"/>
<stop offset="0.333333" stop-color="#6E0CDF"/>
<stop offset="0.666667" stop-color="#E50657"/>
<stop offset="1" stop-color="#FA9D4C"/>
</linearGradient>
<linearGradient id="paint27_linear_482_80500" x1="40.6309" y1="10.6661" x2="244.076" y2="272.717" gradientUnits="userSpaceOnUse">
<stop stop-color="#06A9EF"/>
<stop offset="0.333333" stop-color="#6E0CDF"/>
<stop offset="0.666667" stop-color="#E50657"/>
<stop offset="1" stop-color="#FA9D4C"/>
</linearGradient>
<linearGradient id="paint28_linear_482_80500" x1="40.6309" y1="10.6661" x2="244.076" y2="272.717" gradientUnits="userSpaceOnUse">
<stop stop-color="#06A9EF"/>
<stop offset="0.333333" stop-color="#6E0CDF"/>
<stop offset="0.666667" stop-color="#E50657"/>
<stop offset="1" stop-color="#FA9D4C"/>
</linearGradient>
<linearGradient id="paint29_linear_482_80500" x1="40.6309" y1="10.6661" x2="244.076" y2="272.717" gradientUnits="userSpaceOnUse">
<stop stop-color="#06A9EF"/>
<stop offset="0.333333" stop-color="#6E0CDF"/>
<stop offset="0.666667" stop-color="#E50657"/>
<stop offset="1" stop-color="#FA9D4C"/>
</linearGradient>
<linearGradient id="paint30_linear_482_80500" x1="40.6309" y1="10.6661" x2="244.076" y2="272.717" gradientUnits="userSpaceOnUse">
<stop stop-color="#06A9EF"/>
<stop offset="0.333333" stop-color="#6E0CDF"/>
<stop offset="0.666667" stop-color="#E50657"/>
<stop offset="1" stop-color="#FA9D4C"/>
</linearGradient>
<linearGradient id="paint31_linear_482_80500" x1="40.6309" y1="10.6661" x2="244.076" y2="272.717" gradientUnits="userSpaceOnUse">
<stop stop-color="#06A9EF"/>
<stop offset="0.333333" stop-color="#6E0CDF"/>
<stop offset="0.666667" stop-color="#E50657"/>
<stop offset="1" stop-color="#FA9D4C"/>
</linearGradient>
<linearGradient id="paint32_linear_482_80500" x1="40.6309" y1="10.6661" x2="244.076" y2="272.717" gradientUnits="userSpaceOnUse">
<stop stop-color="#06A9EF"/>
<stop offset="0.333333" stop-color="#6E0CDF"/>
<stop offset="0.666667" stop-color="#E50657"/>
<stop offset="1" stop-color="#FA9D4C"/>
</linearGradient>
<linearGradient id="paint33_linear_482_80500" x1="40.6309" y1="10.6661" x2="244.076" y2="272.717" gradientUnits="userSpaceOnUse">
<stop stop-color="#06A9EF"/>
<stop offset="0.333333" stop-color="#6E0CDF"/>
<stop offset="0.666667" stop-color="#E50657"/>
<stop offset="1" stop-color="#FA9D4C"/>
</linearGradient>
<linearGradient id="paint34_linear_482_80500" x1="40.6309" y1="10.6661" x2="244.076" y2="272.717" gradientUnits="userSpaceOnUse">
<stop stop-color="#06A9EF"/>
<stop offset="0.333333" stop-color="#6E0CDF"/>
<stop offset="0.666667" stop-color="#E50657"/>
<stop offset="1" stop-color="#FA9D4C"/>
</linearGradient>
<linearGradient id="paint35_linear_482_80500" x1="40.6309" y1="10.6661" x2="244.076" y2="272.717" gradientUnits="userSpaceOnUse">
<stop stop-color="#06A9EF"/>
<stop offset="0.333333" stop-color="#6E0CDF"/>
<stop offset="0.666667" stop-color="#E50657"/>
<stop offset="1" stop-color="#FA9D4C"/>
</linearGradient>
<linearGradient id="paint36_linear_482_80500" x1="40.6309" y1="10.6661" x2="244.076" y2="272.717" gradientUnits="userSpaceOnUse">
<stop stop-color="#06A9EF"/>
<stop offset="0.333333" stop-color="#6E0CDF"/>
<stop offset="0.666667" stop-color="#E50657"/>
<stop offset="1" stop-color="#FA9D4C"/>
</linearGradient>
<linearGradient id="paint37_linear_482_80500" x1="40.6309" y1="10.6661" x2="244.076" y2="272.717" gradientUnits="userSpaceOnUse">
<stop stop-color="#06A9EF"/>
<stop offset="0.333333" stop-color="#6E0CDF"/>
<stop offset="0.666667" stop-color="#E50657"/>
<stop offset="1" stop-color="#FA9D4C"/>
</linearGradient>
<linearGradient id="paint38_linear_482_80500" x1="40.6309" y1="10.6661" x2="244.076" y2="272.717" gradientUnits="userSpaceOnUse">
<stop stop-color="#06A9EF"/>
<stop offset="0.333333" stop-color="#6E0CDF"/>
<stop offset="0.666667" stop-color="#E50657"/>
<stop offset="1" stop-color="#FA9D4C"/>
</linearGradient>
<linearGradient id="paint39_linear_482_80500" x1="40.6309" y1="10.6661" x2="244.076" y2="272.717" gradientUnits="userSpaceOnUse">
<stop stop-color="#06A9EF"/>
<stop offset="0.333333" stop-color="#6E0CDF"/>
<stop offset="0.666667" stop-color="#E50657"/>
<stop offset="1" stop-color="#FA9D4C"/>
</linearGradient>
<linearGradient id="paint40_linear_482_80500" x1="40.6309" y1="10.6661" x2="244.076" y2="272.717" gradientUnits="userSpaceOnUse">
<stop stop-color="#06A9EF"/>
<stop offset="0.333333" stop-color="#6E0CDF"/>
<stop offset="0.666667" stop-color="#E50657"/>
<stop offset="1" stop-color="#FA9D4C"/>
</linearGradient>
<linearGradient id="paint41_linear_482_80500" x1="40.6309" y1="10.6661" x2="244.076" y2="272.717" gradientUnits="userSpaceOnUse">
<stop stop-color="#06A9EF"/>
<stop offset="0.333333" stop-color="#6E0CDF"/>
<stop offset="0.666667" stop-color="#E50657"/>
<stop offset="1" stop-color="#FA9D4C"/>
</linearGradient>
<linearGradient id="paint42_linear_482_80500" x1="40.6309" y1="10.6661" x2="244.076" y2="272.717" gradientUnits="userSpaceOnUse">
<stop stop-color="#06A9EF"/>
<stop offset="0.333333" stop-color="#6E0CDF"/>
<stop offset="0.666667" stop-color="#E50657"/>
<stop offset="1" stop-color="#FA9D4C"/>
</linearGradient>
<linearGradient id="paint43_linear_482_80500" x1="40.6309" y1="10.6661" x2="244.076" y2="272.717" gradientUnits="userSpaceOnUse">
<stop stop-color="#06A9EF"/>
<stop offset="0.333333" stop-color="#6E0CDF"/>
<stop offset="0.666667" stop-color="#E50657"/>
<stop offset="1" stop-color="#FA9D4C"/>
</linearGradient>
<linearGradient id="paint44_linear_482_80500" x1="40.6309" y1="10.6661" x2="244.076" y2="272.717" gradientUnits="userSpaceOnUse">
<stop stop-color="#06A9EF"/>
<stop offset="0.333333" stop-color="#6E0CDF"/>
<stop offset="0.666667" stop-color="#E50657"/>
<stop offset="1" stop-color="#FA9D4C"/>
</linearGradient>
<linearGradient id="paint45_linear_482_80500" x1="40.6309" y1="10.6661" x2="244.076" y2="272.717" gradientUnits="userSpaceOnUse">
<stop stop-color="#06A9EF"/>
<stop offset="0.333333" stop-color="#6E0CDF"/>
<stop offset="0.666667" stop-color="#E50657"/>
<stop offset="1" stop-color="#FA9D4C"/>
</linearGradient>
<linearGradient id="paint46_linear_482_80500" x1="40.6309" y1="10.6661" x2="244.076" y2="272.717" gradientUnits="userSpaceOnUse">
<stop stop-color="#06A9EF"/>
<stop offset="0.333333" stop-color="#6E0CDF"/>
<stop offset="0.666667" stop-color="#E50657"/>
<stop offset="1" stop-color="#FA9D4C"/>
</linearGradient>
<linearGradient id="paint47_linear_482_80500" x1="40.6309" y1="10.6661" x2="244.076" y2="272.717" gradientUnits="userSpaceOnUse">
<stop stop-color="#06A9EF"/>
<stop offset="0.333333" stop-color="#6E0CDF"/>
<stop offset="0.666667" stop-color="#E50657"/>
<stop offset="1" stop-color="#FA9D4C"/>
</linearGradient>
<linearGradient id="paint48_linear_482_80500" x1="40.6309" y1="10.6661" x2="244.076" y2="272.717" gradientUnits="userSpaceOnUse">
<stop stop-color="#06A9EF"/>
<stop offset="0.333333" stop-color="#6E0CDF"/>
<stop offset="0.666667" stop-color="#E50657"/>
<stop offset="1" stop-color="#FA9D4C"/>
</linearGradient>
<linearGradient id="paint49_linear_482_80500" x1="40.6309" y1="10.6661" x2="244.076" y2="272.717" gradientUnits="userSpaceOnUse">
<stop stop-color="#06A9EF"/>
<stop offset="0.333333" stop-color="#6E0CDF"/>
<stop offset="0.666667" stop-color="#E50657"/>
<stop offset="1" stop-color="#FA9D4C"/>
</linearGradient>
<linearGradient id="paint50_linear_482_80500" x1="40.6309" y1="10.6661" x2="244.076" y2="272.717" gradientUnits="userSpaceOnUse">
<stop stop-color="#06A9EF"/>
<stop offset="0.333333" stop-color="#6E0CDF"/>
<stop offset="0.666667" stop-color="#E50657"/>
<stop offset="1" stop-color="#FA9D4C"/>
</linearGradient>
<linearGradient id="paint51_linear_482_80500" x1="40.6309" y1="10.6661" x2="244.076" y2="272.717" gradientUnits="userSpaceOnUse">
<stop stop-color="#06A9EF"/>
<stop offset="0.333333" stop-color="#6E0CDF"/>
<stop offset="0.666667" stop-color="#E50657"/>
<stop offset="1" stop-color="#FA9D4C"/>
</linearGradient>
<linearGradient id="paint52_linear_482_80500" x1="40.6309" y1="10.6661" x2="244.076" y2="272.717" gradientUnits="userSpaceOnUse">
<stop stop-color="#06A9EF"/>
<stop offset="0.333333" stop-color="#6E0CDF"/>
<stop offset="0.666667" stop-color="#E50657"/>
<stop offset="1" stop-color="#FA9D4C"/>
</linearGradient>
<linearGradient id="paint53_linear_482_80500" x1="40.6309" y1="10.6661" x2="244.076" y2="272.717" gradientUnits="userSpaceOnUse">
<stop stop-color="#06A9EF"/>
<stop offset="0.333333" stop-color="#6E0CDF"/>
<stop offset="0.666667" stop-color="#E50657"/>
<stop offset="1" stop-color="#FA9D4C"/>
</linearGradient>
<linearGradient id="paint54_linear_482_80500" x1="40.6309" y1="10.6661" x2="244.076" y2="272.717" gradientUnits="userSpaceOnUse">
<stop stop-color="#06A9EF"/>
<stop offset="0.333333" stop-color="#6E0CDF"/>
<stop offset="0.666667" stop-color="#E50657"/>
<stop offset="1" stop-color="#FA9D4C"/>
</linearGradient>
<linearGradient id="paint55_linear_482_80500" x1="40.6309" y1="10.6661" x2="244.076" y2="272.717" gradientUnits="userSpaceOnUse">
<stop stop-color="#06A9EF"/>
<stop offset="0.333333" stop-color="#6E0CDF"/>
<stop offset="0.666667" stop-color="#E50657"/>
<stop offset="1" stop-color="#FA9D4C"/>
</linearGradient>
<linearGradient id="paint56_linear_482_80500" x1="40.6309" y1="10.6661" x2="244.076" y2="272.717" gradientUnits="userSpaceOnUse">
<stop stop-color="#06A9EF"/>
<stop offset="0.333333" stop-color="#6E0CDF"/>
<stop offset="0.666667" stop-color="#E50657"/>
<stop offset="1" stop-color="#FA9D4C"/>
</linearGradient>
<linearGradient id="paint57_linear_482_80500" x1="40.6309" y1="10.6661" x2="244.076" y2="272.717" gradientUnits="userSpaceOnUse">
<stop stop-color="#06A9EF"/>
<stop offset="0.333333" stop-color="#6E0CDF"/>
<stop offset="0.666667" stop-color="#E50657"/>
<stop offset="1" stop-color="#FA9D4C"/>
</linearGradient>
<linearGradient id="paint58_linear_482_80500" x1="40.6309" y1="10.6661" x2="244.076" y2="272.717" gradientUnits="userSpaceOnUse">
<stop stop-color="#06A9EF"/>
<stop offset="0.333333" stop-color="#6E0CDF"/>
<stop offset="0.666667" stop-color="#E50657"/>
<stop offset="1" stop-color="#FA9D4C"/>
</linearGradient>
<linearGradient id="paint59_linear_482_80500" x1="40.6309" y1="10.6661" x2="244.076" y2="272.717" gradientUnits="userSpaceOnUse">
<stop stop-color="#06A9EF"/>
<stop offset="0.333333" stop-color="#6E0CDF"/>
<stop offset="0.666667" stop-color="#E50657"/>
<stop offset="1" stop-color="#FA9D4C"/>
</linearGradient>
<linearGradient id="paint60_linear_482_80500" x1="40.6309" y1="10.6661" x2="244.076" y2="272.717" gradientUnits="userSpaceOnUse">
<stop stop-color="#06A9EF"/>
<stop offset="0.333333" stop-color="#6E0CDF"/>
<stop offset="0.666667" stop-color="#E50657"/>
<stop offset="1" stop-color="#FA9D4C"/>
</linearGradient>
<linearGradient id="paint61_linear_482_80500" x1="40.6309" y1="10.6661" x2="244.076" y2="272.717" gradientUnits="userSpaceOnUse">
<stop stop-color="#06A9EF"/>
<stop offset="0.333333" stop-color="#6E0CDF"/>
<stop offset="0.666667" stop-color="#E50657"/>
<stop offset="1" stop-color="#FA9D4C"/>
</linearGradient>
<linearGradient id="paint62_linear_482_80500" x1="40.6309" y1="10.6661" x2="244.076" y2="272.717" gradientUnits="userSpaceOnUse">
<stop stop-color="#06A9EF"/>
<stop offset="0.333333" stop-color="#6E0CDF"/>
<stop offset="0.666667" stop-color="#E50657"/>
<stop offset="1" stop-color="#FA9D4C"/>
</linearGradient>
<linearGradient id="paint63_linear_482_80500" x1="40.6309" y1="10.6661" x2="244.076" y2="272.717" gradientUnits="userSpaceOnUse">
<stop stop-color="#06A9EF"/>
<stop offset="0.333333" stop-color="#6E0CDF"/>
<stop offset="0.666667" stop-color="#E50657"/>
<stop offset="1" stop-color="#FA9D4C"/>
</linearGradient>
<linearGradient id="paint64_linear_482_80500" x1="40.6309" y1="10.6661" x2="244.076" y2="272.717" gradientUnits="userSpaceOnUse">
<stop stop-color="#06A9EF"/>
<stop offset="0.333333" stop-color="#6E0CDF"/>
<stop offset="0.666667" stop-color="#E50657"/>
<stop offset="1" stop-color="#FA9D4C"/>
</linearGradient>
<linearGradient id="paint65_linear_482_80500" x1="40.6309" y1="10.6661" x2="244.076" y2="272.717" gradientUnits="userSpaceOnUse">
<stop stop-color="#06A9EF"/>
<stop offset="0.333333" stop-color="#6E0CDF"/>
<stop offset="0.666667" stop-color="#E50657"/>
<stop offset="1" stop-color="#FA9D4C"/>
</linearGradient>
<linearGradient id="paint66_linear_482_80500" x1="40.6309" y1="10.6661" x2="244.076" y2="272.717" gradientUnits="userSpaceOnUse">
<stop stop-color="#06A9EF"/>
<stop offset="0.333333" stop-color="#6E0CDF"/>
<stop offset="0.666667" stop-color="#E50657"/>
<stop offset="1" stop-color="#FA9D4C"/>
</linearGradient>
<linearGradient id="paint67_linear_482_80500" x1="40.6309" y1="10.6661" x2="244.076" y2="272.717" gradientUnits="userSpaceOnUse">
<stop stop-color="#06A9EF"/>
<stop offset="0.333333" stop-color="#6E0CDF"/>
<stop offset="0.666667" stop-color="#E50657"/>
<stop offset="1" stop-color="#FA9D4C"/>
</linearGradient>
<linearGradient id="paint68_linear_482_80500" x1="40.6309" y1="10.6661" x2="244.076" y2="272.717" gradientUnits="userSpaceOnUse">
<stop stop-color="#06A9EF"/>
<stop offset="0.333333" stop-color="#6E0CDF"/>
<stop offset="0.666667" stop-color="#E50657"/>
<stop offset="1" stop-color="#FA9D4C"/>
</linearGradient>
<linearGradient id="paint69_linear_482_80500" x1="40.6309" y1="10.6661" x2="244.076" y2="272.717" gradientUnits="userSpaceOnUse">
<stop stop-color="#06A9EF"/>
<stop offset="0.333333" stop-color="#6E0CDF"/>
<stop offset="0.666667" stop-color="#E50657"/>
<stop offset="1" stop-color="#FA9D4C"/>
</linearGradient>
<linearGradient id="paint70_linear_482_80500" x1="40.6309" y1="10.6661" x2="244.076" y2="272.717" gradientUnits="userSpaceOnUse">
<stop stop-color="#06A9EF"/>
<stop offset="0.333333" stop-color="#6E0CDF"/>
<stop offset="0.666667" stop-color="#E50657"/>
<stop offset="1" stop-color="#FA9D4C"/>
</linearGradient>
<linearGradient id="paint71_linear_482_80500" x1="40.6309" y1="10.6661" x2="244.076" y2="272.717" gradientUnits="userSpaceOnUse">
<stop stop-color="#06A9EF"/>
<stop offset="0.333333" stop-color="#6E0CDF"/>
<stop offset="0.666667" stop-color="#E50657"/>
<stop offset="1" stop-color="#FA9D4C"/>
</linearGradient>
<linearGradient id="paint72_linear_482_80500" x1="40.6309" y1="10.6661" x2="244.076" y2="272.717" gradientUnits="userSpaceOnUse">
<stop stop-color="#06A9EF"/>
<stop offset="0.333333" stop-color="#6E0CDF"/>
<stop offset="0.666667" stop-color="#E50657"/>
<stop offset="1" stop-color="#FA9D4C"/>
</linearGradient>
</defs>
</svg>
