<svg width="200" height="200" viewBox="0 0 200 200" fill="none" xmlns="http://www.w3.org/2000/svg">
<g id="ic:round-lock" opacity="0.5">
<path id="Vector" d="M150 66.6667H141.667V50C141.667 27 123 8.33337 100 8.33337C77.0002 8.33337 58.3335 27 58.3335 50V66.6667H50.0002C40.8335 66.6667 33.3335 74.1667 33.3335 83.3334V166.667C33.3335 175.833 40.8335 183.333 50.0002 183.333H150C159.167 183.333 166.667 175.833 166.667 166.667V83.3334C166.667 74.1667 159.167 66.6667 150 66.6667ZM100 141.667C90.8335 141.667 83.3335 134.167 83.3335 125C83.3335 115.833 90.8335 108.333 100 108.333C109.167 108.333 116.667 115.833 116.667 125C116.667 134.167 109.167 141.667 100 141.667ZM75.0002 66.6667V50C75.0002 36.1667 86.1668 25 100 25C113.833 25 125 36.1667 125 50V66.6667H75.0002Z" fill="url(#paint0_linear_482_76909)"/>
</g>
<defs>
<linearGradient id="paint0_linear_482_76909" x1="100" y1="8.33337" x2="100" y2="183.333" gradientUnits="userSpaceOnUse">
<stop stop-color="#ED5189"/>
<stop offset="0.5" stop-color="#E50657"/>
<stop offset="1" stop-color="#CE054E"/>
</linearGradient>
</defs>
</svg>
