<svg width="30" height="32" viewBox="0 0 30 32" fill="none" xmlns="http://www.w3.org/2000/svg">
<g id="ic:round-keyboard-arrow-down" filter="url(#filter0_d_482_76563)">
<path id="Vector" d="M8.12016 9.29001L12.0002 13.17L15.8802 9.29001C15.9727 9.19742 16.0827 9.12399 16.2036 9.07388C16.3246 9.02378 16.4542 8.99799 16.5852 8.99799C16.7161 8.99799 16.8457 9.02378 16.9667 9.07388C17.0877 9.12399 17.1976 9.19742 17.2902 9.29001C17.3827 9.38259 17.4562 9.4925 17.5063 9.61346C17.5564 9.73443 17.5822 9.86408 17.5822 9.99501C17.5822 10.1259 17.5564 10.2556 17.5063 10.3765C17.4562 10.4975 17.3827 10.6074 17.2902 10.7L12.7002 15.29C12.6076 15.3827 12.4978 15.4563 12.3768 15.5064C12.2558 15.5566 12.1261 15.5825 11.9952 15.5825C11.8642 15.5825 11.7345 15.5566 11.6135 15.5064C11.4926 15.4563 11.3827 15.3827 11.2902 15.29L6.70016 10.7C6.60746 10.6075 6.53391 10.4976 6.48373 10.3766C6.43354 10.2557 6.40771 10.126 6.40771 9.99501C6.40771 9.86404 6.43354 9.73436 6.48373 9.61338C6.53391 9.49241 6.60746 9.38252 6.70016 9.29001C7.09016 8.91001 7.73016 8.90001 8.12016 9.29001Z" fill="#EBEBF5" fill-opacity="0.6"/>
</g>
<defs>
<filter id="filter0_d_482_76563" x="-4" y="0" width="40" height="40" filterUnits="userSpaceOnUse" color-interpolation-filters="sRGB">
<feFlood flood-opacity="0" result="BackgroundImageFix"/>
<feColorMatrix in="SourceAlpha" type="matrix" values="0 0 0 0 0 0 0 0 0 0 0 0 0 0 0 0 0 0 127 0" result="hardAlpha"/>
<feOffset dx="4" dy="8"/>
<feGaussianBlur stdDeviation="4"/>
<feComposite in2="hardAlpha" operator="out"/>
<feColorMatrix type="matrix" values="0 0 0 0 0 0 0 0 0 0 0 0 0 0 0 0 0 0 0.24 0"/>
<feBlend mode="normal" in2="BackgroundImageFix" result="effect1_dropShadow_482_76563"/>
<feBlend mode="normal" in="SourceGraphic" in2="effect1_dropShadow_482_76563" result="shape"/>
</filter>
</defs>
</svg>
