<svg width="330" height="191" viewBox="0 0 330 191" fill="none" xmlns="http://www.w3.org/2000/svg">
<g id="Pointmap" opacity="0.84">
<circle id="Point" cx="2" cy="2" r="2" transform="matrix(0.866044 -0.499967 0.866044 0.499967 125.235 14.1824)" fill="#0597D7"/>
<circle id="Point_2" cx="2" cy="2" r="2" transform="matrix(0.866044 -0.499967 0.866044 0.499967 120.039 23.1818)" fill="#0597D7"/>
<circle id="Point_3" cx="2" cy="2" r="2" transform="matrix(0.866044 -0.499967 0.866044 0.499967 26.5063 83.1779)" fill="#15B4FA"/>
<circle id="Point_4" cx="2" cy="2" r="2" transform="matrix(0.866044 -0.499967 0.866044 0.499967 120.039 29.1814)" fill="#DCF4FE"/>
<circle id="Point_5" cx="2" cy="2" r="2" transform="matrix(0.866044 -0.499967 0.866044 0.499967 135.628 20.182)" fill="#0597D7"/>
<circle id="Point_6" cx="2" cy="2" r="2" transform="matrix(0.866044 -0.499967 0.866044 0.499967 31.7026 86.1777)" fill="#DCF4FE"/>
<circle id="Point_7" cx="2" cy="2" r="2" transform="matrix(0.866044 -0.499967 0.866044 0.499967 36.8989 83.1779)" fill="#46C4FB"/>
<circle id="Point_8" cx="2" cy="2" r="2" transform="matrix(0.866044 -0.499967 0.866044 0.499967 68.0762 65.179)" fill="#78D4FC"/>
<circle id="Point_9" cx="2" cy="2" r="2" transform="matrix(0.866044 -0.499967 0.866044 0.499967 73.2725 62.1792)" fill="#DCF4FE"/>
<circle id="Point_10" cx="2" cy="2" r="2" transform="matrix(0.866044 -0.499967 0.866044 0.499967 130.432 29.1814)" fill="#78D4FC"/>
<circle id="Point_11" cx="2" cy="2" r="2" transform="matrix(0.866044 -0.499967 0.866044 0.499967 151.217 17.1822)" fill="#78D4FC"/>
<circle id="Point_12" cx="2" cy="2" r="2" transform="matrix(0.866044 -0.499967 0.866044 0.499967 68.0762 71.1786)" fill="#DCF4FE"/>
<circle id="Point_13" cx="2" cy="2" r="2" transform="matrix(0.866044 -0.499967 0.866044 0.499967 120.039 41.1806)" fill="#DCF4FE"/>
<circle id="Point_14" cx="2" cy="2" r="2" transform="matrix(0.866044 -0.499967 0.866044 0.499967 125.235 38.1808)" fill="#DCF4FE"/>
<circle id="Point_15" cx="2" cy="2" r="2" transform="matrix(0.866044 -0.499967 0.866044 0.499967 146.021 26.1816)" fill="#DCF4FE"/>
<circle id="Point_16" cx="2" cy="2" r="2" transform="matrix(0.866044 -0.499967 0.866044 0.499967 83.665 68.1788)" fill="#46C4FB"/>
<circle id="Point_17" cx="2" cy="2" r="2" transform="matrix(0.866044 -0.499967 0.866044 0.499967 114.843 50.18)" fill="#DCF4FE"/>
<circle id="Point_18" cx="2" cy="2" r="2" transform="matrix(0.866044 -0.499967 0.866044 0.499967 120.039 47.1802)" fill="#DCF4FE"/>
<circle id="Point_19" cx="2" cy="2" r="2" transform="matrix(0.866044 -0.499967 0.866044 0.499967 135.628 38.1808)" fill="#DCF4FE"/>
<circle id="Point_20" cx="2" cy="2" r="2" transform="matrix(0.866044 -0.499967 0.866044 0.499967 140.824 35.181)" fill="#DCF4FE"/>
<circle id="Point_21" cx="2" cy="2" r="2" transform="matrix(0.866044 -0.499967 0.866044 0.499967 146.021 32.1812)" fill="#DCF4FE"/>
<circle id="Point_22" cx="2" cy="2" r="2" transform="matrix(0.866044 -0.499967 0.866044 0.499967 156.413 26.1816)" fill="#78D4FC"/>
<circle id="Point_23" cx="2" cy="2" r="2" transform="matrix(0.866044 -0.499967 0.866044 0.499967 161.609 23.1818)" fill="#DCF4FE"/>
<circle id="Point_24" cx="2" cy="2" r="2" transform="matrix(0.866044 -0.499967 0.866044 0.499967 36.8989 101.177)" fill="#78D4FC"/>
<circle id="Point_25" cx="2" cy="2" r="2" transform="matrix(0.866044 -0.499967 0.866044 0.499967 83.665 74.1785)" fill="#DCF4FE"/>
<circle id="Point_26" cx="2" cy="2" r="2" transform="matrix(0.866044 -0.499967 0.866044 0.499967 88.8613 71.1786)" fill="#78D4FC"/>
<circle id="Point_27" cx="2" cy="2" r="2" transform="matrix(0.866044 -0.499967 0.866044 0.499967 94.0576 68.1788)" fill="#0597D7"/>
<circle id="Point_28" cx="2" cy="2" r="2" transform="matrix(0.866044 -0.499967 0.866044 0.499967 99.2539 65.179)" fill="#46C4FB"/>
<circle id="Point_29" cx="2" cy="2" r="2" transform="matrix(0.866044 -0.499967 0.866044 0.499967 104.45 62.1792)" fill="#DCF4FE"/>
<circle id="Point_30" cx="2" cy="2" r="2" transform="matrix(0.866044 -0.499967 0.866044 0.499967 114.843 56.1796)" fill="#DCF4FE"/>
<circle id="Point_31" cx="2" cy="2" r="2" transform="matrix(0.866044 -0.499967 0.866044 0.499967 135.628 44.1804)" fill="#DCF4FE"/>
<circle id="Point_32" cx="2" cy="2" r="2" transform="matrix(0.866044 -0.499967 0.866044 0.499967 140.824 41.1806)" fill="#0597D7"/>
<circle id="Point_33" cx="2" cy="2" r="2" transform="matrix(0.866044 -0.499967 0.866044 0.499967 156.413 32.1812)" fill="#DCF4FE"/>
<circle id="Point_34" cx="2" cy="2" r="2" transform="matrix(0.866044 -0.499967 0.866044 0.499967 161.609 29.1814)" fill="#DCF4FE"/>
<circle id="Point_35" cx="2" cy="2" r="2" transform="matrix(0.866044 -0.499967 0.866044 0.499967 172.001 23.1818)" fill="#0597D7"/>
<circle id="Point_36" cx="2" cy="2" r="2" transform="matrix(0.866044 -0.499967 0.866044 0.499967 47.2915 101.177)" fill="#DCF4FE"/>
<circle id="Point_37" cx="2" cy="2" r="2" transform="matrix(0.866044 -0.499967 0.866044 0.499967 52.4878 98.1769)" fill="#78D4FC"/>
<circle id="Point_38" cx="2" cy="2" r="2" transform="matrix(0.866044 -0.499967 0.866044 0.499967 94.0576 74.1785)" fill="#0597D7"/>
<circle id="Point_39" cx="2" cy="2" r="2" transform="matrix(0.866044 -0.499967 0.866044 0.499967 99.2539 71.1786)" fill="#0597D7"/>
<circle id="Point_40" cx="2" cy="2" r="2" transform="matrix(0.866044 -0.499967 0.866044 0.499967 109.646 65.179)" fill="#78D4FC"/>
<circle id="Point_41" cx="2" cy="2" r="2" transform="matrix(0.866044 -0.499967 0.866044 0.499967 114.843 62.1792)" fill="#46C4FB"/>
<circle id="Point_42" cx="2" cy="2" r="2" transform="matrix(0.866044 -0.499967 0.866044 0.499967 146.021 44.1804)" fill="#0597D7"/>
<circle id="Point_43" cx="2" cy="2" r="2" transform="matrix(0.866044 -0.499967 0.866044 0.499967 156.413 38.1808)" fill="#DCF4FE"/>
<circle id="Point_44" cx="2" cy="2" r="2" transform="matrix(0.866044 -0.499967 0.866044 0.499967 161.609 35.181)" fill="#0597D7"/>
<circle id="Point_45" cx="2" cy="2" r="2" transform="matrix(0.866044 -0.499967 0.866044 0.499967 172.001 29.1814)" fill="#0597D7"/>
<circle id="Point_46" cx="2" cy="2" r="2" transform="matrix(0.866044 -0.499967 0.866044 0.499967 182.394 23.1818)" fill="#DCF4FE"/>
<circle id="Point_47" cx="2" cy="2" r="2" transform="matrix(0.866044 -0.499967 0.866044 0.499967 47.2915 107.176)" fill="#78D4FC"/>
<circle id="Point_48" cx="2" cy="2" r="2" transform="matrix(0.866044 -0.499967 0.866044 0.499967 57.6836 101.177)" fill="#78D4FC"/>
<circle id="Point_49" cx="2" cy="2" r="2" transform="matrix(0.866044 -0.499967 0.866044 0.499967 62.8799 98.1769)" fill="#DCF4FE"/>
<circle id="Point_50" cx="2" cy="2" r="2" transform="matrix(0.866044 -0.499967 0.866044 0.499967 114.843 68.1788)" fill="#46C4FB"/>
<circle id="Point_51" cx="2" cy="2" r="2" transform="matrix(0.866044 -0.499967 0.866044 0.499967 130.432 59.1794)" fill="#DCF4FE"/>
<circle id="Point_52" cx="2" cy="2" r="2" transform="matrix(0.866044 -0.499967 0.866044 0.499967 151.217 47.1802)" fill="#DCF4FE"/>
<circle id="Point_53" cx="2" cy="2" r="2" transform="matrix(0.866044 -0.499967 0.866044 0.499967 156.413 44.1804)" fill="#DCF4FE"/>
<circle id="Point_54" cx="2" cy="2" r="2" transform="matrix(0.866044 -0.499967 0.866044 0.499967 187.59 26.1816)" fill="#0597D7"/>
<circle id="Point_55" cx="2" cy="2" r="2" transform="matrix(0.866044 -0.499967 0.866044 0.499967 57.6836 107.176)" fill="#DCF4FE"/>
<circle id="Point_56" cx="2" cy="2" r="2" transform="matrix(0.866044 -0.499967 0.866044 0.499967 62.8799 104.176)" fill="#46C4FB"/>
<circle id="Point_57" cx="2" cy="2" r="2" transform="matrix(0.866044 -0.499967 0.866044 0.499967 156.413 50.18)" fill="#78D4FC"/>
<circle id="Point_58" cx="2" cy="2" r="2" transform="matrix(0.866044 -0.499967 0.866044 0.499967 172.001 41.1806)" fill="#DCF4FE"/>
<circle id="Point_59" cx="2" cy="2" r="2" transform="matrix(0.866044 -0.499967 0.866044 0.499967 182.394 35.181)" fill="#DCF4FE"/>
<circle id="Point_60" cx="2" cy="2" r="2" transform="matrix(0.866044 -0.499967 0.866044 0.499967 192.787 29.1814)" fill="#DCF4FE"/>
<circle id="Point_61" cx="2" cy="2" r="2" transform="matrix(0.866044 -0.499967 0.866044 0.499967 52.4878 116.176)" fill="#DCF4FE"/>
<circle id="Point_62" cx="2" cy="2" r="2" transform="matrix(0.866044 -0.499967 0.866044 0.499967 62.8799 110.176)" fill="#15B4FA"/>
<circle id="Point_63" cx="2" cy="2" r="2" transform="matrix(0.866044 -0.499967 0.866044 0.499967 68.0762 107.176)" fill="#15B4FA"/>
<circle id="Point_64" cx="2" cy="2" r="2" transform="matrix(0.866044 -0.499967 0.866044 0.499967 109.646 83.1779)" fill="#46C4FB"/>
<circle id="Point_65" cx="2" cy="2" r="2" transform="matrix(0.866044 -0.499967 0.866044 0.499967 161.609 53.1798)" fill="#DCF4FE"/>
<circle id="Point_66" cx="2" cy="2" r="2" transform="matrix(0.866044 -0.499967 0.866044 0.499967 172.001 47.1802)" fill="#DCF4FE"/>
<circle id="Point_67" cx="2" cy="2" r="2" transform="matrix(0.866044 -0.499967 0.866044 0.499967 187.59 38.1808)" fill="#DCF4FE"/>
<circle id="Point_68" cx="2" cy="2" r="2" transform="matrix(0.866044 -0.499967 0.866044 0.499967 62.8799 116.176)" fill="#46C4FB"/>
<circle id="Point_69" cx="2" cy="2" r="2" transform="matrix(0.866044 -0.499967 0.866044 0.499967 73.2725 110.176)" fill="#15B4FA"/>
<circle id="Point_70" cx="2" cy="2" r="2" transform="matrix(0.866044 -0.499967 0.866044 0.499967 161.609 59.1794)" fill="#DCF4FE"/>
<circle id="Point_71" cx="2" cy="2" r="2" transform="matrix(0.866044 -0.499967 0.866044 0.499967 172.001 53.1798)" fill="#DCF4FE"/>
<circle id="Point_72" cx="2" cy="2" r="2" transform="matrix(0.866044 -0.499967 0.866044 0.499967 177.198 50.18)" fill="#78D4FC"/>
<circle id="Point_73" cx="2" cy="2" r="2" transform="matrix(0.866044 -0.499967 0.866044 0.499967 187.59 44.1804)" fill="#DCF4FE"/>
<circle id="Point_74" cx="2" cy="2" r="2" transform="matrix(0.866044 -0.499967 0.866044 0.499967 73.2725 116.176)" fill="#46C4FB"/>
<circle id="Point_75" cx="2" cy="2" r="2" transform="matrix(0.866044 -0.499967 0.866044 0.499967 83.665 110.176)" fill="#15B4FA"/>
<circle id="Point_76" cx="2" cy="2" r="2" transform="matrix(0.866044 -0.499967 0.866044 0.499967 88.8613 107.176)" fill="#0597D7"/>
<circle id="Point_77" cx="2" cy="2" r="2" transform="matrix(0.866044 -0.499967 0.866044 0.499967 94.0576 104.176)" fill="#15B4FA"/>
<circle id="Point_78" cx="2" cy="2" r="2" transform="matrix(0.866044 -0.499967 0.866044 0.499967 114.843 92.1773)" fill="#DCF4FE"/>
<circle id="Point_79" cx="2" cy="2" r="2" transform="matrix(0.866044 -0.499967 0.866044 0.499967 172.001 59.1794)" fill="#DCF4FE"/>
<circle id="Point_80" cx="2" cy="2" r="2" transform="matrix(0.866044 -0.499967 0.866044 0.499967 78.4688 119.176)" fill="#0597D7"/>
<circle id="Point_81" cx="2" cy="2" r="2" transform="matrix(0.866044 -0.499967 0.866044 0.499967 83.665 116.176)" fill="#DCF4FE"/>
<circle id="Point_82" cx="2" cy="2" r="2" transform="matrix(0.866044 -0.499967 0.866044 0.499967 88.8613 113.176)" fill="#46C4FB"/>
<circle id="Point_83" cx="2" cy="2" r="2" transform="matrix(0.866044 -0.499967 0.866044 0.499967 94.0576 110.176)" fill="#78D4FC"/>
<circle id="Point_84" cx="2" cy="2" r="2" transform="matrix(0.866044 -0.499967 0.866044 0.499967 104.45 104.176)" fill="#DCF4FE"/>
<circle id="Point_85" cx="2" cy="2" r="2" transform="matrix(0.866044 -0.499967 0.866044 0.499967 156.413 74.1785)" fill="#DCF4FE"/>
<circle id="Point_86" cx="2" cy="2" r="2" transform="matrix(0.866044 -0.499967 0.866044 0.499967 166.805 68.1788)" fill="#DCF4FE"/>
<circle id="Point_87" cx="2" cy="2" r="2" transform="matrix(0.866044 -0.499967 0.866044 0.499967 182.394 59.1794)" fill="#46C4FB"/>
<circle id="Point_88" cx="2" cy="2" r="2" transform="matrix(0.866044 -0.499967 0.866044 0.499967 187.59 56.1796)" fill="#DCF4FE"/>
<circle id="Point_89" cx="2" cy="2" r="2" transform="matrix(0.866044 -0.499967 0.866044 0.499967 78.4688 125.175)" fill="#DCF4FE"/>
<circle id="Point_90" cx="2" cy="2" r="2" transform="matrix(0.866044 -0.499967 0.866044 0.499967 135.628 92.1773)" fill="#DCF4FE"/>
<circle id="Point_91" cx="2" cy="2" r="2" transform="matrix(0.866044 -0.499967 0.866044 0.499967 140.824 89.1775)" fill="#46C4FB"/>
<circle id="Point_92" cx="2" cy="2" r="2" transform="matrix(0.866044 -0.499967 0.866044 0.499967 146.021 86.1777)" fill="#DCF4FE"/>
<circle id="Point_93" cx="2" cy="2" r="2" transform="matrix(0.866044 -0.499967 0.866044 0.499967 156.413 80.1781)" fill="#DCF4FE"/>
<circle id="Point_94" cx="2" cy="2" r="2" transform="matrix(0.866044 -0.499967 0.866044 0.499967 166.805 74.1785)" fill="#DCF4FE"/>
<circle id="Point_95" cx="2" cy="2" r="2" transform="matrix(0.866044 -0.499967 0.866044 0.499967 177.198 68.1788)" fill="#DCF4FE"/>
<circle id="Point_96" cx="2" cy="2" r="2" transform="matrix(0.866044 -0.499967 0.866044 0.499967 187.59 62.1792)" fill="#DCF4FE"/>
<circle id="Point_97" cx="2" cy="2" r="2" transform="matrix(0.866044 -0.499967 0.866044 0.499967 203.179 53.1798)" fill="#DCF4FE"/>
<circle id="Point_98" cx="2" cy="2" r="2" transform="matrix(0.866044 -0.499967 0.866044 0.499967 208.375 50.18)" fill="#DCF4FE"/>
<circle id="Point_99" cx="2" cy="2" r="2" transform="matrix(0.866044 -0.499967 0.866044 0.499967 213.572 47.1802)" fill="#46C4FB"/>
<circle id="Point_100" cx="2" cy="2" r="2" transform="matrix(0.866044 -0.499967 0.866044 0.499967 94.0576 122.175)" fill="#15B4FA"/>
<circle id="Point_101" cx="2" cy="2" r="2" transform="matrix(0.866044 -0.499967 0.866044 0.499967 109.646 113.176)" fill="#DCF4FE"/>
<circle id="Point_102" cx="2" cy="2" r="2" transform="matrix(0.866044 -0.499967 0.866044 0.499967 135.628 98.1769)" fill="#DCF4FE"/>
<circle id="Point_103" cx="2" cy="2" r="2" transform="matrix(0.866044 -0.499967 0.866044 0.499967 151.217 89.1775)" fill="#0597D7"/>
<circle id="Point_104" cx="2" cy="2" r="2" transform="matrix(0.866044 -0.499967 0.866044 0.499967 156.413 86.1777)" fill="#46C4FB"/>
<circle id="Point_105" cx="2" cy="2" r="2" transform="matrix(0.866044 -0.499967 0.866044 0.499967 187.59 68.1788)" fill="#DCF4FE"/>
<circle id="Point_106" cx="2" cy="2" r="2" transform="matrix(0.866044 -0.499967 0.866044 0.499967 203.179 59.1794)" fill="#DCF4FE"/>
<circle id="Point_107" cx="2" cy="2" r="2" transform="matrix(0.866044 -0.499967 0.866044 0.499967 208.375 56.1796)" fill="#46C4FB"/>
<circle id="Point_108" cx="2" cy="2" r="2" transform="matrix(0.866044 -0.499967 0.866044 0.499967 213.572 53.1798)" fill="#DCF4FE"/>
<circle id="Point_109" cx="2" cy="2" r="2" transform="matrix(0.866044 -0.499967 0.866044 0.499967 223.964 47.1802)" fill="#78D4FC"/>
<circle id="Point_110" cx="2" cy="2" r="2" transform="matrix(0.866044 -0.499967 0.866044 0.499967 104.45 122.175)" fill="#DCF4FE"/>
<circle id="Point_111" cx="2" cy="2" r="2" transform="matrix(0.866044 -0.499967 0.866044 0.499967 125.235 110.176)" fill="#DCF4FE"/>
<circle id="Point_112" cx="2" cy="2" r="2" transform="matrix(0.866044 -0.499967 0.866044 0.499967 135.628 104.176)" fill="#DCF4FE"/>
<circle id="Point_113" cx="2" cy="2" r="2" transform="matrix(0.866044 -0.499967 0.866044 0.499967 146.021 98.1769)" fill="#DCF4FE"/>
<circle id="Point_114" cx="2" cy="2" r="2" transform="matrix(0.866044 -0.499967 0.866044 0.499967 151.217 95.1771)" fill="#46C4FB"/>
<circle id="Point_115" cx="2" cy="2" r="2" transform="matrix(0.866044 -0.499967 0.866044 0.499967 166.805 86.1777)" fill="#DCF4FE"/>
<circle id="Point_116" cx="2" cy="2" r="2" transform="matrix(0.866044 -0.499967 0.866044 0.499967 172.001 83.1779)" fill="#78D4FC"/>
<circle id="Point_117" cx="2" cy="2" r="2" transform="matrix(0.866044 -0.499967 0.866044 0.499967 182.394 77.1783)" fill="#DCF4FE"/>
<circle id="Point_118" cx="2" cy="2" r="2" transform="matrix(0.866044 -0.499967 0.866044 0.499967 187.59 74.1785)" fill="#15B4FA"/>
<circle id="Point_119" cx="2" cy="2" r="2" transform="matrix(0.866044 -0.499967 0.866044 0.499967 197.983 68.1788)" fill="#15B4FA"/>
<circle id="Point_120" cx="2" cy="2" r="2" transform="matrix(0.866044 -0.499967 0.866044 0.499967 203.179 65.179)" fill="#15B4FA"/>
<circle id="Point_121" cx="2" cy="2" r="2" transform="matrix(0.866044 -0.499967 0.866044 0.499967 208.375 62.1792)" fill="#0597D7"/>
<circle id="Point_122" cx="2" cy="2" r="2" transform="matrix(0.866044 -0.499967 0.866044 0.499967 223.964 53.1798)" fill="#78D4FC"/>
<circle id="Point_123" cx="2" cy="2" r="2" transform="matrix(0.866044 -0.499967 0.866044 0.499967 114.843 122.175)" fill="#DCF4FE"/>
<circle id="Point_124" cx="2" cy="2" r="2" transform="matrix(0.866044 -0.499967 0.866044 0.499967 125.235 116.176)" fill="#DCF4FE"/>
<circle id="Point_125" cx="2" cy="2" r="2" transform="matrix(0.866044 -0.499967 0.866044 0.499967 140.824 107.176)" fill="#DCF4FE"/>
<circle id="Point_126" cx="2" cy="2" r="2" transform="matrix(0.866044 -0.499967 0.866044 0.499967 151.217 101.177)" fill="#DCF4FE"/>
<circle id="Point_127" cx="2" cy="2" r="2" transform="matrix(0.866044 -0.499967 0.866044 0.499967 161.609 95.1771)" fill="#46C4FB"/>
<circle id="Point_128" cx="2" cy="2" r="2" transform="matrix(0.866044 -0.499967 0.866044 0.499967 166.805 92.1773)" fill="#DCF4FE"/>
<circle id="Point_129" cx="2" cy="2" r="2" transform="matrix(0.866044 -0.499967 0.866044 0.499967 177.198 86.1777)" fill="#DCF4FE"/>
<circle id="Point_130" cx="2" cy="2" r="2" transform="matrix(0.866044 -0.499967 0.866044 0.499967 192.787 77.1783)" fill="#DCF4FE"/>
<circle id="Point_131" cx="2" cy="2" r="2" transform="matrix(0.866044 -0.499967 0.866044 0.499967 197.983 74.1785)" fill="#15B4FA"/>
<circle id="Point_132" cx="2" cy="2" r="2" transform="matrix(0.866044 -0.499967 0.866044 0.499967 208.375 68.1788)" fill="#DCF4FE"/>
<circle id="Point_133" cx="2" cy="2" r="2" transform="matrix(0.866044 -0.499967 0.866044 0.499967 223.964 59.1794)" fill="#DCF4FE"/>
<circle id="Point_134" cx="2" cy="2" r="2" transform="matrix(0.866044 -0.499967 0.866044 0.499967 234.357 53.1798)" fill="#78D4FC"/>
<circle id="Point_135" cx="2" cy="2" r="2" transform="matrix(0.866044 -0.499967 0.866044 0.499967 135.628 116.176)" fill="#46C4FB"/>
<circle id="Point_136" cx="2" cy="2" r="2" transform="matrix(0.866044 -0.499967 0.866044 0.499967 146.021 110.176)" fill="#DCF4FE"/>
<circle id="Point_137" cx="2" cy="2" r="2" transform="matrix(0.866044 -0.499967 0.866044 0.499967 161.609 101.177)" fill="#DCF4FE"/>
<circle id="Point_138" cx="2" cy="2" r="2" transform="matrix(0.866044 -0.499967 0.866044 0.499967 166.805 98.1769)" fill="#DCF4FE"/>
<circle id="Point_139" cx="2" cy="2" r="2" transform="matrix(0.866044 -0.499967 0.866044 0.499967 177.198 92.1773)" fill="#46C4FB"/>
<circle id="Point_140" cx="2" cy="2" r="2" transform="matrix(0.866044 -0.499967 0.866044 0.499967 182.394 89.1775)" fill="#DCF4FE"/>
<circle id="Point_141" cx="2" cy="2" r="2" transform="matrix(0.866044 -0.499967 0.866044 0.499967 187.59 86.1777)" fill="#46C4FB"/>
<circle id="Point_142" cx="2" cy="2" r="2" transform="matrix(0.866044 -0.499967 0.866044 0.499967 192.787 83.1779)" fill="#DCF4FE"/>
<circle id="Point_143" cx="2" cy="2" r="2" transform="matrix(0.866044 -0.499967 0.866044 0.499967 203.179 77.1783)" fill="#15B4FA"/>
<circle id="Point_144" cx="2" cy="2" r="2" transform="matrix(0.866044 -0.499967 0.866044 0.499967 213.572 71.1786)" fill="#46C4FB"/>
<circle id="Point_145" cx="2" cy="2" r="2" transform="matrix(0.866044 -0.499967 0.866044 0.499967 223.964 65.179)" fill="#DCF4FE"/>
<circle id="Point_146" cx="2" cy="2" r="2" transform="matrix(0.866044 -0.499967 0.866044 0.499967 234.357 59.1794)" fill="#78D4FC"/>
<circle id="Point_147" cx="2" cy="2" r="2" transform="matrix(0.866044 -0.499967 0.866044 0.499967 125.235 128.175)" fill="#DCF4FE"/>
<circle id="Point_148" cx="2" cy="2" r="2" transform="matrix(0.866044 -0.499967 0.866044 0.499967 130.432 125.175)" fill="#DCF4FE"/>
<circle id="Point_149" cx="2" cy="2" r="2" transform="matrix(0.866044 -0.499967 0.866044 0.499967 146.021 116.176)" fill="#DCF4FE"/>
<circle id="Point_150" cx="2" cy="2" r="2" transform="matrix(0.866044 -0.499967 0.866044 0.499967 156.413 110.176)" fill="#DCF4FE"/>
<circle id="Point_151" cx="2" cy="2" r="2" transform="matrix(0.866044 -0.499967 0.866044 0.499967 177.198 98.1769)" fill="#78D4FC"/>
<circle id="Point_152" cx="2" cy="2" r="2" transform="matrix(0.866044 -0.499967 0.866044 0.499967 187.59 92.1773)" fill="#46C4FB"/>
<circle id="Point_153" cx="2" cy="2" r="2" transform="matrix(0.866044 -0.499967 0.866044 0.499967 203.179 83.1779)" fill="#DCF4FE"/>
<circle id="Point_154" cx="2" cy="2" r="2" transform="matrix(0.866044 -0.499967 0.866044 0.499967 208.375 80.1781)" fill="#DCF4FE"/>
<circle id="Point_155" cx="2" cy="2" r="2" transform="matrix(0.866044 -0.499967 0.866044 0.499967 218.768 74.1785)" fill="#0597D7"/>
<circle id="Point_156" cx="2" cy="2" r="2" transform="matrix(0.866044 -0.499967 0.866044 0.499967 135.628 128.175)" fill="#46C4FB"/>
<circle id="Point_157" cx="2" cy="2" r="2" transform="matrix(0.866044 -0.499967 0.866044 0.499967 146.021 122.175)" fill="#DCF4FE"/>
<circle id="Point_158" cx="2" cy="2" r="2" transform="matrix(0.866044 -0.499967 0.866044 0.499967 156.413 116.176)" fill="#78D4FC"/>
<circle id="Point_159" cx="2" cy="2" r="2" transform="matrix(0.866044 -0.499967 0.866044 0.499967 166.805 110.176)" fill="#DCF4FE"/>
<circle id="Point_160" cx="2" cy="2" r="2" transform="matrix(0.866044 -0.499967 0.866044 0.499967 187.59 98.1769)" fill="#DCF4FE"/>
<circle id="Point_161" cx="2" cy="2" r="2" transform="matrix(0.866044 -0.499967 0.866044 0.499967 197.983 92.1773)" fill="#0597D7"/>
<circle id="Point_162" cx="2" cy="2" r="2" transform="matrix(0.866044 -0.499967 0.866044 0.499967 203.179 89.1775)" fill="#DCF4FE"/>
<circle id="Point_163" cx="2" cy="2" r="2" transform="matrix(0.866044 -0.499967 0.866044 0.499967 213.572 83.1779)" fill="#0597D7"/>
<circle id="Point_164" cx="2" cy="2" r="2" transform="matrix(0.866044 -0.499967 0.866044 0.499967 218.768 80.1781)" fill="#DCF4FE"/>
<circle id="Point_165" cx="2" cy="2" r="2" transform="matrix(0.866044 -0.499967 0.866044 0.499967 234.357 71.1786)" fill="#0597D7"/>
<circle id="Point_166" cx="2" cy="2" r="2" transform="matrix(0.866044 -0.499967 0.866044 0.499967 146.021 128.175)" fill="#0597D7"/>
<circle id="Point_167" cx="2" cy="2" r="2" transform="matrix(0.866044 -0.499967 0.866044 0.499967 156.413 122.175)" fill="#DCF4FE"/>
<circle id="Point_168" cx="2" cy="2" r="2" transform="matrix(0.866044 -0.499967 0.866044 0.499967 166.805 116.176)" fill="#DCF4FE"/>
<circle id="Point_169" cx="2" cy="2" r="2" transform="matrix(0.866044 -0.499967 0.866044 0.499967 177.198 110.176)" fill="#46C4FB"/>
<circle id="Point_170" cx="2" cy="2" r="2" transform="matrix(0.866044 -0.499967 0.866044 0.499967 187.59 104.176)" fill="#DCF4FE"/>
<circle id="Point_171" cx="2" cy="2" r="2" transform="matrix(0.866044 -0.499967 0.866044 0.499967 192.787 101.177)" fill="#78D4FC"/>
<circle id="Point_172" cx="2" cy="2" r="2" transform="matrix(0.866044 -0.499967 0.866044 0.499967 203.179 95.1771)" fill="#DCF4FE"/>
<circle id="Point_173" cx="2" cy="2" r="2" transform="matrix(0.866044 -0.499967 0.866044 0.499967 213.572 89.1775)" fill="#0597D7"/>
<circle id="Point_174" cx="2" cy="2" r="2" transform="matrix(0.866044 -0.499967 0.866044 0.499967 218.768 86.1777)" fill="#DCF4FE"/>
<circle id="Point_175" cx="2" cy="2" r="2" transform="matrix(0.866044 -0.499967 0.866044 0.499967 229.161 80.1781)" fill="#15B4FA"/>
<circle id="Point_176" cx="2" cy="2" r="2" transform="matrix(0.866044 -0.499967 0.866044 0.499967 156.413 128.175)" fill="#0597D7"/>
<circle id="Point_177" cx="2" cy="2" r="2" transform="matrix(0.866044 -0.499967 0.866044 0.499967 161.609 125.175)" fill="#78D4FC"/>
<circle id="Point_178" cx="2" cy="2" r="2" transform="matrix(0.866044 -0.499967 0.866044 0.499967 166.805 122.175)" fill="#15B4FA"/>
<circle id="Point_179" cx="2" cy="2" r="2" transform="matrix(0.866044 -0.499967 0.866044 0.499967 177.198 116.176)" fill="#DCF4FE"/>
<circle id="Point_180" cx="2" cy="2" r="2" transform="matrix(0.866044 -0.499967 0.866044 0.499967 203.179 101.177)" fill="#DCF4FE"/>
<circle id="Point_181" cx="2" cy="2" r="2" transform="matrix(0.866044 -0.499967 0.866044 0.499967 213.572 95.1771)" fill="#DCF4FE"/>
<circle id="Point_182" cx="2" cy="2" r="2" transform="matrix(0.866044 -0.499967 0.866044 0.499967 223.964 89.1775)" fill="#DCF4FE"/>
<circle id="Point_183" cx="2" cy="2" r="2" transform="matrix(0.866044 -0.499967 0.866044 0.499967 172.001 125.175)" fill="#DCF4FE"/>
<circle id="Point_184" cx="2" cy="2" r="2" transform="matrix(0.866044 -0.499967 0.866044 0.499967 177.198 122.175)" fill="#15B4FA"/>
<circle id="Point_185" cx="2" cy="2" r="2" transform="matrix(0.866044 -0.499967 0.866044 0.499967 192.787 113.176)" fill="#DCF4FE"/>
<circle id="Point_186" cx="2" cy="2" r="2" transform="matrix(0.866044 -0.499967 0.866044 0.499967 208.375 104.176)" fill="#15B4FA"/>
<circle id="Point_187" cx="2" cy="2" r="2" transform="matrix(0.866044 -0.499967 0.866044 0.499967 229.161 92.1773)" fill="#46C4FB"/>
<circle id="Point_188" cx="2" cy="2" r="2" transform="matrix(0.866044 -0.499967 0.866044 0.499967 187.59 122.175)" fill="#DCF4FE"/>
<circle id="Point_189" cx="2" cy="2" r="2" transform="matrix(0.866044 -0.499967 0.866044 0.499967 223.964 101.177)" fill="#46C4FB"/>
<circle id="Point_190" cx="2" cy="2" r="2" transform="matrix(0.866044 -0.499967 0.866044 0.499967 229.161 98.1769)" fill="#DCF4FE"/>
<circle id="Point_191" cx="2" cy="2" r="2" transform="matrix(0.866044 -0.499967 0.866044 0.499967 177.198 134.175)" fill="#DCF4FE"/>
<circle id="Point_192" cx="2" cy="2" r="2" transform="matrix(0.866044 -0.499967 0.866044 0.499967 187.59 128.175)" fill="#46C4FB"/>
<circle id="Point_193" cx="2" cy="2" r="2" transform="matrix(0.866044 -0.499967 0.866044 0.499967 203.179 119.176)" fill="#78D4FC"/>
<circle id="Point_194" cx="2" cy="2" r="2" transform="matrix(0.866044 -0.499967 0.866044 0.499967 213.572 113.176)" fill="#DCF4FE"/>
<circle id="Point_195" cx="2" cy="2" r="2" transform="matrix(0.866044 -0.499967 0.866044 0.499967 218.768 110.176)" fill="#DCF4FE"/>
<circle id="Point_196" cx="2" cy="2" r="2" transform="matrix(0.866044 -0.499967 0.866044 0.499967 192.787 131.175)" fill="#0597D7"/>
<circle id="Point_197" cx="2" cy="2" r="2" transform="matrix(0.866044 -0.499967 0.866044 0.499967 197.983 128.175)" fill="#DCF4FE"/>
<circle id="Point_198" cx="2" cy="2" r="2" transform="matrix(0.866044 -0.499967 0.866044 0.499967 208.375 122.175)" fill="#DCF4FE"/>
<circle id="Point_199" cx="2" cy="2" r="2" transform="matrix(0.866044 -0.499967 0.866044 0.499967 234.357 107.176)" fill="#46C4FB"/>
<circle id="Point_200" cx="2" cy="2" r="2" transform="matrix(0.866044 -0.499967 0.866044 0.499967 182.394 143.174)" fill="#0597D7"/>
<circle id="Point_201" cx="2" cy="2" r="2" transform="matrix(0.866044 -0.499967 0.866044 0.499967 192.787 137.174)" fill="#0597D7"/>
<circle id="Point_202" cx="2" cy="2" r="2" transform="matrix(0.866044 -0.499967 0.866044 0.499967 197.983 134.175)" fill="#46C4FB"/>
<circle id="Point_203" cx="2" cy="2" r="2" transform="matrix(0.866044 -0.499967 0.866044 0.499967 203.179 131.175)" fill="#DCF4FE"/>
<circle id="Point_204" cx="2" cy="2" r="2" transform="matrix(0.866044 -0.499967 0.866044 0.499967 218.768 122.175)" fill="#15B4FA"/>
<circle id="Point_205" cx="2" cy="2" r="2" transform="matrix(0.866044 -0.499967 0.866044 0.499967 223.964 119.176)" fill="#15B4FA"/>
<circle id="Point_206" cx="2" cy="2" r="2" transform="matrix(0.866044 -0.499967 0.866044 0.499967 187.59 146.174)" fill="#0597D7"/>
<circle id="Point_207" cx="2" cy="2" r="2" transform="matrix(0.866044 -0.499967 0.866044 0.499967 197.983 140.174)" fill="#0597D7"/>
<circle id="Point_208" cx="2" cy="2" r="2" transform="matrix(0.866044 -0.499967 0.866044 0.499967 218.768 128.175)" fill="#DCF4FE"/>
<circle id="Point_209" cx="2" cy="2" r="2" transform="matrix(0.866044 -0.499967 0.866044 0.499967 229.161 122.175)" fill="#46C4FB"/>
<circle id="Point_210" cx="2" cy="2" r="2" transform="matrix(0.866044 -0.499967 0.866044 0.499967 234.357 119.176)" fill="#DCF4FE"/>
<circle id="Point_211" cx="2" cy="2" r="2" transform="matrix(0.866044 -0.499967 0.866044 0.499967 239.553 116.176)" fill="#DCF4FE"/>
<circle id="Point_212" cx="2" cy="2" r="2" transform="matrix(0.866044 -0.499967 0.866044 0.499967 203.179 143.174)" fill="#DCF4FE"/>
<circle id="Point_213" cx="2" cy="2" r="2" transform="matrix(0.866044 -0.499967 0.866044 0.499967 218.768 134.175)" fill="#DCF4FE"/>
<circle id="Point_214" cx="2" cy="2" r="2" transform="matrix(0.866044 -0.499967 0.866044 0.499967 229.161 128.175)" fill="#46C4FB"/>
<circle id="Point_215" cx="2" cy="2" r="2" transform="matrix(0.866044 -0.499967 0.866044 0.499967 249.946 116.176)" fill="#DCF4FE"/>
<circle id="Point_216" cx="2" cy="2" r="2" transform="matrix(0.866044 -0.499967 0.866044 0.499967 229.161 134.175)" fill="#DCF4FE"/>
<circle id="Point_217" cx="2" cy="2" r="2" transform="matrix(0.866044 -0.499967 0.866044 0.499967 244.75 125.175)" fill="#DCF4FE"/>
<circle id="Point_218" cx="2" cy="2" r="2" transform="matrix(0.866044 -0.499967 0.866044 0.499967 260.338 116.176)" fill="#46C4FB"/>
<circle id="Point_219" cx="2" cy="2" r="2" transform="matrix(0.866044 -0.499967 0.866044 0.499967 223.964 143.174)" fill="#78D4FC"/>
<circle id="Point_220" cx="2" cy="2" r="2" transform="matrix(0.866044 -0.499967 0.866044 0.499967 244.75 131.175)" fill="#46C4FB"/>
<circle id="Point_221" cx="2" cy="2" r="2" transform="matrix(0.866044 -0.499967 0.866044 0.499967 260.338 122.175)" fill="#46C4FB"/>
<circle id="Point_222" cx="2" cy="2" r="2" transform="matrix(0.866044 -0.499967 0.866044 0.499967 244.75 137.174)" fill="#DCF4FE"/>
<circle id="Point_223" cx="2" cy="2" r="2" transform="matrix(0.866044 -0.499967 0.866044 0.499967 255.142 131.175)" fill="#78D4FC"/>
<circle id="Point_224" cx="2" cy="2" r="2" transform="matrix(0.866044 -0.499967 0.866044 0.499967 260.338 128.175)" fill="#15B4FA"/>
<circle id="Point_225" cx="2" cy="2" r="2" transform="matrix(0.866044 -0.499967 0.866044 0.499967 265.535 125.175)" fill="#15B4FA"/>
<circle id="Point_226" cx="2" cy="2" r="2" transform="matrix(0.866044 -0.499967 0.866044 0.499967 275.927 119.176)" fill="#DCF4FE"/>
<circle id="Point_227" cx="2" cy="2" r="2" transform="matrix(0.866044 -0.499967 0.866044 0.499967 275.927 125.175)" fill="#15B4FA"/>
<circle id="Point_228" cx="2" cy="2" r="2" transform="matrix(0.866044 -0.499967 0.866044 0.499967 270.731 134.175)" fill="#78D4FC"/>
<circle id="Point_229" cx="2" cy="2" r="2" transform="matrix(0.866044 -0.499967 0.866044 0.499967 281.123 128.175)" fill="#0597D7"/>
</g>
</svg>
