<svg width="28" height="28" viewBox="0 0 28 28" fill="none" xmlns="http://www.w3.org/2000/svg">
<g id="simple-icons:facebook" clip-path="url(#clip0_482_76920)">
<path id="Vector" d="M10.6178 27.6394V18.3294H7.7315V14.0513H10.6178V12.2079C10.6178 7.4421 12.7738 5.2336 17.4522 5.2336C17.92 5.2336 18.5663 5.2826 19.1648 5.35377C19.6131 5.3999 20.0578 5.4759 20.496 5.58127V9.46044C20.2427 9.43681 19.9886 9.4228 19.7342 9.41844C19.4492 9.41104 19.1641 9.40754 18.879 9.40794C18.0542 9.40794 17.4102 9.51994 16.9248 9.76844C16.5986 9.93213 16.3243 10.1834 16.1327 10.4941C15.8317 10.9841 15.6963 11.6549 15.6963 12.5381V14.0513H20.2685L19.8182 16.5048L19.4833 18.3294H15.6963V27.9486C22.6287 27.1109 28 21.2088 28 14.0513C28 6.31977 21.7315 0.0512695 14 0.0512695C6.2685 0.0512695 0 6.31977 0 14.0513C0 20.6173 4.51967 26.1263 10.6178 27.6394Z" fill="white"/>
</g>
<defs>
<clipPath id="clip0_482_76920">
<rect width="28" height="28" fill="white"/>
</clipPath>
</defs>
</svg>
